<?xml version="1.0" encoding="utf-8"?>
<!-- Generator: Adobe Illustrator 24.0.2, SVG Export Plug-In . SVG Version: 6.00 Build 0)  -->
<svg version="1.1" id="Слой_1" xmlns="http://www.w3.org/2000/svg" xmlns:xlink="http://www.w3.org/1999/xlink" x="0px" y="0px"
	 viewBox="0 0 1037.5 226.6" style="enable-background:new 0 0 1037.5 226.6;" xml:space="preserve">
<style type="text/css">
	.st0{fill:#FFFFFF;}
	.st1{fill:none;stroke:#B2B2B2;stroke-width:3;stroke-miterlimit:10;}
	.st2{fill-rule:evenodd;clip-rule:evenodd;fill:#06599F;}
	.st3{fill-rule:evenodd;clip-rule:evenodd;fill:#FFFFFF;}
	.st4{opacity:0.8;}
</style>
<g id="Слой_1_1_">
	<g>
		<g>
			<g>
				<g>
					<path id="SVGID_1_" class="st0" d="M181.1,48.5c0,0,10.5,6,15.5,15.2c5.3,9.7,5.1,22.3,5.1,22.3v63.3c0,0,0.5,11.2-4.2,19.9
						c-5,9.4-15.2,16.3-15.2,16.3c-18.6,10.8-37.2,21.6-55.9,32.4l0,0l0,0c0.1,0.3-10,6.3-21.7,6.8c-7.8,0.3-14.8-2.4-22-5.6
						l-61.5-35.4c0,0-7.8-5.1-12.2-13.7c-3.7-7.1-4.2-17.8-4.2-17.8V84.7c0,0-0.5-12.6,5.9-22.9c5.6-8.9,18.4-15.6,18.4-15.8
						l54.1-30.9c0,0,9.1-4.8,20.5-4.8c11.4,0.1,20.5,5.3,20.5,5.3L181.1,48.5z"/>
				</g>
				<g>
					<path id="SVGID_2_" class="st1" d="M181.1,48.5c0,0,10.5,6,15.5,15.2c5.3,9.7,5.1,22.3,5.1,22.3v63.3c0,0,0.5,11.2-4.2,19.9
						c-5,9.4-15.2,16.3-15.2,16.3c-18.6,10.8-37.2,21.6-55.9,32.4l0,0l0,0c0.1,0.3-10,6.3-21.7,6.8c-7.8,0.3-14.8-2.4-22-5.6
						l-61.5-35.4c0,0-7.8-5.1-12.2-13.7c-3.7-7.1-4.2-17.8-4.2-17.8V84.7c0,0-0.5-12.6,5.9-22.9c5.6-8.9,18.4-15.6,18.4-15.8
						l54.1-30.9c0,0,9.1-4.8,20.5-4.8c11.4,0.1,20.5,5.3,20.5,5.3L181.1,48.5z"/>
				</g>
			</g>
			<g>
				<g>
					<path id="SVGID_3_" class="st2" d="M168.4,59.8c0,0,8.8,5,12.9,12.7c4.4,8.1,4.2,18.6,4.2,18.6v53c0,0,0.4,9.4-3.5,16.7
						c-4.2,7.9-12.7,13.7-12.7,13.7c-15.6,9-31.1,18.1-46.7,27.1l0,0l0,0c0.1,0.2-8.4,5.3-18.1,5.7c-6.5,0.3-12.3-2-18.4-4.7
						L34.7,173c0,0-6.5-4.3-10.2-11.4c-3.1-5.9-3.5-14.9-3.5-14.9V90.1c0,0-0.4-10.6,5-19.1c4.7-7.5,15.4-13.1,15.4-13.2L86.7,32
						c0,0,7.6-4,17.1-4c9.5,0.1,17.1,4.5,17.1,4.5L168.4,59.8z"/>
				</g>
			</g>
			<g>
				<g>
					<path id="SVGID_5_" class="st3" d="M86.6,69.8c0,0-12.1,0.2-15.2,1.5c-4.8,2-7.1,5.6-7.1,5.6s-4.6,7.1-7.1,11.3
						c-1,1.7-2.1,2.7-2.1,2.7s-1.1-0.8-1.8-1.8c-0.8-1.1-1.2-2.4-1.2-2.4S51.7,85.6,51,85s-1.8-0.9-1.8-0.9l-8.9-0.6
						c0,0-1.2,0.1-1.8,0.9s-0.6,2.1-0.6,2.1s-0.1,1.1,0,2.1c0.1,0.9,0.3,1.8,0.3,1.8s1.5,1.8,5.1,3s8.9,1.5,8.9,1.5s-1,1.4-2.4,2.7
						c-1.7,1.6-3.9,3-3.9,3s-5.7,5.3-7.1,12.8c-1.6,8.4,1.2,20.2,1.2,20.2s0.1,4.6,0.3,10.1c0.2,5.4,0.6,10.7,0.6,10.7
						s0.2,1.6,0.9,2.4c0.7,0.7,1.8,0.6,1.8,0.6h12.8c0,0,1.1,0.1,1.8-0.6c0.6-0.6,0.9-2.1,0.9-2.1v-6.8c0,0,22.5,2.3,44.9,2.4
						c21.8,0.1,43.4-2.1,43.4-2.1l0.3,7.1c0,0,0.3,1,0.9,1.5c0.6,0.5,1.5,0.6,1.5,0.6h13.7c0,0,0.9-0.3,1.5-0.9
						c0.5-0.6,0.6-1.5,0.6-1.5s0.4-5.3,0.6-10.4c0.1-4.8,0-8.9,0-8.9c1.5-8.5,2.7-16.4,1.8-22c-1-6.3-4.9-11.1-7.4-13.1
						c-2.6-2-2.7-2.2-3.6-3c-1.9-1.7-2.7-2.7-2.7-2.7s5.1-0.6,8.6-1.8c3.3-1.2,5.3-2.7,5.3-2.7s0.3-2.9,0-4.8
						c-0.3-1.7-0.6-1.8-0.6-1.8s-1-0.5-2-0.5c-0.1,0-0.2,0-0.2,0c-2.8,0.2-7.6,0.8-7.6,0.8s-1.6,0-2.4,0.6c-0.8,0.6-0.9,1.5-0.9,1.5
						s-0.6,1.8-1.5,3c-0.8,1.1-1.8,1.5-1.8,1.5s-1-1-2.1-2.7c-1.3-2-2.8-5-4.5-7.4c-2.1-3.1-4.2-5.6-4.2-5.6s-2.1-2.3-5.3-3.6
						c-3.1-1.2-7.4-1.2-7.4-1.2s-11.1-0.5-21.1-0.6C96.2,69.5,86.6,69.8,86.6,69.8z"/>
				</g>
			</g>
			<g>
				<g>
					<path id="SVGID_7_" d="M135.1,94.2L135.1,94.2L135.1,94.2z M135.1,106.7c0,0-16.2,0-23.2,0c-0.8,0-2.3-0.2-3.3-0.3
						c-1.2-0.2-2.1-0.6-2.1-0.6l-5.1-2.4c0,0-1-0.5-1.8-0.6c-0.3-0.1-0.6-0.1-0.9-0.1c-0.5,0-0.9,0.1-0.9,0.1L77,102.5
						c0,0-0.6-0.1-1.2-0.1c-0.3,0-0.6,0-0.9,0.1c-0.7,0.3-0.9,1.2-0.9,1.2l-8-0.6c0,0-0.6-0.2-0.9-0.6c-0.3-0.5-0.3-1.2-0.3-1.2
						v-2.1c0,0-0.1-0.7,0.3-1.2c0.4-0.4,1.2-0.6,1.2-0.6l7.4-0.6c0.2,0.6,0.6,1,1.2,1.2c0.1,0,0.3,0.1,0.4,0.1c0.2,0,0.3,0,0.5-0.1
						c0.3,0,0.6,0,0.9,0c6.5,0,13.1,0,19.6,0c0.5,0,1,0.1,1.5,0.1c0.3-0.1,0.5-0.1,0.8-0.1c0.2,0,0.4,0,0.5,0s0.3,0,0.5,0
						c0.6-0.1,1.6-0.4,2.4-0.9c0.2-0.1,2.3-1.4,3-1.7c0.9-0.4,1.2-0.5,2-0.9c0.8-0.3,1.6-0.5,2.4-0.6c0.4,0,0.8-0.1,1.1-0.1
						c0.7,0,1.3,0.1,1.3,0.1l23.2,0.3c0,0,1.9,0.3,3.3,1.5c1.4,1.3,2,3,2.1,4.5s-0.3,3.1-1.5,4.5
						C137.9,105.8,136.6,106.5,135.1,106.7z"/>
				</g>
			</g>
			<g>
				<g>
					<path id="SVGID_9_" d="M75.1,134.9c-2.3,0-4.5-0.9-4.5-0.9s-1.8-0.6-3.3-1.8s-2.7-3-2.7-3v-0.9h9.8c0,0,0.5-0.1,0.9-0.3
						s0.6-0.6,0.6-0.6l2.4-3.6c0,0,0.3-0.4,0.3-0.9c0-0.6-0.3-1.2-0.3-1.2l-2.1-3.3c0,0-0.4-0.5-0.9-0.9s-1.2-0.6-1.2-0.6l-9.5,0.3
						v-0.9c0,0,1.2-2.1,3.6-3.6c2.2-1.4,5.6-2.1,5.6-2.1s0.1,0,0.3,0c0.8,0,3,0.1,5,0.9c2.6,1.1,5.1,3.3,5.1,3.3s1.8,1.6,3.9,2.4
						c1.4,0.6,3,0.6,3.4,0.6c0.1,0,0.1,0,0.1,0h28.5c0,0,0.3,0,0.7,0c0.7,0,1.7-0.1,2.6-0.3c1.5-0.4,2.7-1.5,2.7-1.5s1.3-0.9,3-1.5
						c1.4-0.5,3.3-0.6,3.3-0.6c4.6,0.2,8.3,4.1,8.3,8.6s-3.8,8.3-8.3,8.6c-0.8-0.2-1.8-0.1-2.7-0.3l0,0c0.1,0-1.4-0.5-2.7-1.2
						c-0.4-0.2-1.4-1-1.8-1.2c-1-0.6-1.5-0.7-2.1-0.9c-0.8-0.2-1.7-0.3-2.5-0.3c-0.2,0-0.3,0-0.5,0c-0.3,0-3.4,0-7.4,0
						c-8,0-19.6,0-19.6,0s-2.5,0.1-4.5,0.6c-1.8,0.5-3.6,1.8-3.6,1.8l-5.1,3.9c0,0-2.4,1.1-4.8,1.2
						C75.2,134.9,75.1,134.9,75.1,134.9z"/>
				</g>
			</g>
			<g>
				<g>
					<path id="SVGID_11_" class="st3" d="M127.3,122.2c0,0-0.2,0.2-0.3,0.6c-0.1,0.4,0.3,0.9,0.3,0.9l2.1,3c0,0,0.1,0.1,0.3,0.3
						c0.5,0.3,0.6,0.3,0.6,0.3h3.9c0,0,0.3,0,0.6-0.3c0.4-0.3,0.3-0.3,0.3-0.3l1.8-3c0,0,0.3-0.5,0.3-0.9s-0.3-0.9-0.3-0.9l-1.8-2.7
						c0,0-0.1-0.1-0.3-0.3c-0.2-0.2-0.6-0.3-0.6-0.3h-3.9c0,0-0.3,0.1-0.6,0.3c-0.3,0.2-0.3,0.3-0.3,0.3L127.3,122.2z"/>
				</g>
			</g>
		</g>
	</g>
</g>
<g id="Слой_2_1_" class="st4">
</g>
<g id="Слой_3" class="st4">
</g>
<g id="Слой_4">
	<g>
		<path class="st0" d="M375.6,217.2c-8.1,4.2-27,9-51,9c-69.1,0-104.7-45.3-104.7-105.1c0-71.5,48.7-111,108.9-111
			c23.4,0,41.3,4.8,49.1,9.3l-9.2,37.5c-9-4.1-21.8-7.9-37.9-7.9c-35.6,0-63.5,22.8-63.5,69.4c0,42,23.6,68.4,63.7,68.4
			c13.8,0,28.8-2.9,37.7-6.8L375.6,217.2z"/>
		<path class="st0" d="M483.2,223l-2.7-15.1h-1c-9.4,12.1-24.2,18.5-41.4,18.5c-29.5,0-46.8-22.2-46.8-46.6
			c0-39.6,33.8-58.4,85-58.4v-1.9c0-8.1-4.1-19.6-26.5-19.6c-14.8,0-30.3,5.3-39.9,11.4L401.7,81c10.1-6.1,29.8-13.6,56.3-13.6
			c48.2,0,63.5,29.9,63.5,65.7v53.1c0,14.5,0.7,28.3,2.3,36.9h-40.6L483.2,223L483.2,223z M477.7,151c-23.7-0.1-42,5.9-42,24
			c0,12.3,7.6,18.2,17.9,18.2c11,0,20.3-7.7,23.3-17.5c0.7-2.5,0.8-5.4,0.8-8.1L477.7,151L477.7,151z"/>
		<path class="st0" d="M557,121c0-22.3-0.4-37.1-1.2-50.2h38.7l1.6,28.2h1.1c7.4-22.3,25.1-31.6,39.1-31.6c4.2,0,6.3,0.1,9.6,0.9
			v44.5c-3.5-0.8-7.1-1.3-12.2-1.3c-16.5,0-27.8,9.2-30.9,24c-0.6,3-0.8,6.7-0.8,10.5v77h-45L557,121L557,121z"/>
		<path class="st0" d="M671.1,13.4h121.8v38.8h-76.7v48H788v38.4h-71.8V223h-45.1L671.1,13.4L671.1,13.4z"/>
		<path class="st0" d="M865.8,28.6c0.1,13.2-9.2,23.6-24.2,23.6c-14.3,0-23.5-10.5-23.4-23.6C818.1,15,827.6,4.9,842,4.9
			C856.6,4.9,865.7,15,865.8,28.6z M819.5,223V70.8h45.1V223H819.5z"/>
		<path class="st0" d="M934.9,70.8l14.2,25.5c4.3,7.8,8.1,15.3,11.8,22.7h0.8c3.7-8.3,7.3-15.9,11.1-23.4l12.8-24.7h48.9l-47.6,72.5
			L1035,223h-51l-14.5-27.4c-4.1-7.5-7.8-15.2-11.2-23.2h-0.8c-3.7,8.2-7.4,15.7-11.1,23.2L932.8,223h-49.3l49-77.5l-47.9-74.6
			L934.9,70.8L934.9,70.8z"/>
	</g>
</g>
</svg>
