<?xml version="1.0" encoding="utf-8"?>
<!-- Generator: Adobe Illustrator 24.0.2, SVG Export Plug-In . SVG Version: 6.00 Build 0)  -->
<svg version="1.1" xmlns="http://www.w3.org/2000/svg" xmlns:xlink="http://www.w3.org/1999/xlink" x="0px" y="0px"
	 viewBox="0 0 500 500" style="enable-background:new 0 0 500 500;" xml:space="preserve">
<style type="text/css">
	.st0{clip-path:url(#SVGID_6_);}
	.st1{clip-path:url(#SVGID_10_);}
	.st2{fill:#FFC09D;}
	.st3{fill:#FFA472;}
	.st4{clip-path:url(#SVGID_13_);fill:#FFB085;}
	.st5{clip-path:url(#SVGID_13_);fill:#FFA472;}
	.st6{fill:#484F55;}
	.st7{fill:#999999;}
	.st8{fill:#09436B;}
	.st9{fill:#06599F;}
	.st10{fill:#333333;}
	.st11{fill:#FFB085;}
	.st12{fill:#4F7BDA;}
	.st13{fill:#FFFFFF;}
	.st14{fill:#F15A3B;}
	.st15{font-family:'MyriadPro-Regular';}
	.st16{font-size:12px;}
	.st17{clip-path:url(#SVGID_15_);fill:#F15A3B;}
	.st18{clip-path:url(#SVGID_15_);fill:#DC482A;}
	.st19{opacity:0.5;clip-path:url(#SVGID_15_);}
	.st20{opacity:0.57;}
	.st21{fill:none;}
	.st22{fill-rule:evenodd;clip-rule:evenodd;fill:#06599F;}
	.st23{fill-rule:evenodd;clip-rule:evenodd;fill:#FFFFFF;}
</style>
<g id="BACKGROUND">
</g>
<g id="OBJECTS">
	<g>
		<defs>
			<rect id="SVGID_4_" width="500" height="500"/>
		</defs>
		<clipPath id="SVGID_6_">
			<use xlink:href="#SVGID_4_"  style="overflow:visible;"/>
		</clipPath>
		<g class="st0">
			<defs>
				
					<rect id="SVGID_8_" x="70.1" y="13" transform="matrix(0.9403 0.3402 -0.3402 0.9403 108.592 -93.2278)" width="500" height="500"/>
			</defs>
			<clipPath id="SVGID_10_">
				<use xlink:href="#SVGID_8_"  style="overflow:visible;"/>
			</clipPath>
			<g class="st1">
				<path class="st2" d="M457.4,149.7c1.5-5.1,1.7-11.3-1.2-14.8c-2.7-3.3-7.6-4.4-11.2-2.1c-3.5,2.3-6.4,6.7-9,10.5
					c-0.3,0.4-2.4,4.3-2.5,4.9c-0.1,0.7,0.2,1.4,0.4,2c2.3,5.1,8.9,9.6,13.5,11.6C452.5,163.9,455.9,154.7,457.4,149.7z"/>
				<path class="st3" d="M270.8,157.9c4.4-1.9,8.1-5.2,10.3-9.5c3.4-6.8,2.5-15.7-2.1-22.3c-7.8-11.1-25.1-18-36.7-24
					c-8.7-4.5-19.3-10.1-27.6-2.4c-2.9,2.7-4.2,3.7-5.2,7.6c-0.7,2.7-0.8,4.1-0.3,6.8c2.1,12,17,24.9,26,32
					c8.2,6.4,17.2,13.2,27.3,13.3C265.3,159.6,268.2,159,270.8,157.9z"/>
				<g>
					<defs>
						<path id="SVGID_12_" d="M396.9,188.1c3.8-11.9,9.6-23.4,17.3-34.7c7.6-11,17.2-21.3,29.7-26.2c2.3-0.9,4.8-1.6,7.2-1.2
							c4.4,0.8,7.3,5.3,7.8,9.7c0.4,4.4-1.1,8.8-2.7,13c-9.4,24.5-20.4,47.4-25.6,73.3c-5.9,29.4,5.6,60.1,0.7,89.8
							c-4.6,28-13.4,62.7-6.2,90.8c2.1,8.1,6,16.3,4.5,24.5c-1.6,9.3-9.6,16-17.3,21.5c-19,13.6-39.4,25.3-60.9,34.7
							c-5.1,2.3-11.8,4.1-15.8,0.2c-2.2-2.2-2.8-5.5-3.3-8.6c-4.1-23.8-11-41.6-28.7-57.7c-17.4-15.7-31-35.6-39.5-57.5
							c-9.8-25-8.7-37.4,7.5-58.7c3-4,6.5-7.9,11-10.2c21.1-10.6,44.8,6,66.8,3.1c25.2-3.4,45-31.8,42.6-56.5
							C390.3,220,391.9,203.7,396.9,188.1z"/>
					</defs>
					<clipPath id="SVGID_13_">
						<use xlink:href="#SVGID_12_"  style="overflow:visible;"/>
					</clipPath>
					<path class="st4" d="M396.9,188.1c3.8-11.9,9.6-23.4,17.3-34.7c7.6-11,17.2-21.3,29.7-26.2c2.3-0.9,4.8-1.6,7.2-1.2
						c4.4,0.8,7.3,5.3,7.8,9.7c0.4,4.4-1.1,8.8-2.7,13c-9.4,24.5-20.4,47.4-25.6,73.3c-5.9,29.4,5.6,60.1,0.7,89.8
						c-4.6,28-13.4,62.7-6.2,90.8c2.1,8.1,6,16.3,4.5,24.5c-1.6,9.3-9.6,16-17.3,21.5c-19,13.6-39.4,25.3-60.9,34.7
						c-5.1,2.3-11.8,4.1-15.8,0.2c-2.2-2.2-2.8-5.5-3.3-8.6c-4.1-23.8-11-41.6-28.7-57.7c-17.4-15.7-31-35.6-39.5-57.5
						c-9.8-25-8.7-37.4,7.5-58.7c3-4,6.5-7.9,11-10.2c21.1-10.6,44.8,6,66.8,3.1c25.2-3.4,45-31.8,42.6-56.5
						C390.3,220,391.9,203.7,396.9,188.1z"/>
					<path class="st5" d="M401.5,405.2l-159.9,0.4c-3.2,0-5.9-2.6-5.9-5.9l-0.8-317.8c0-3.2,2.6-5.9,5.9-5.9l159.9-0.4
						c3.2,0,5.9,2.6,5.9,5.9l0.8,317.8C407.4,402.6,404.8,405.2,401.5,405.2z"/>
				</g>
				<g>
					<path class="st6" d="M395.5,392.8l-159.9,0.4c-3.2,0-5.9-2.6-5.9-5.9L229,69.5c0-3.2,2.6-5.9,5.9-5.9l159.9-0.4
						c3.2,0,5.9,2.6,5.9,5.9l0.8,317.8C401.4,390.1,398.8,392.8,395.5,392.8z"/>
					<path class="st7" d="M324.7,372.2c0,5-4.1,9.1-9.1,9.1c-5,0-9.1-4.1-9.1-9.1c0-5,4.1-9.1,9.1-9.1
						C320.5,363.1,324.6,367.2,324.7,372.2z"/>
					<path class="st8" d="M284.1,206.1c-19.6-36.8-31.8-76-37.6-116.7l-4.3,0l0.6,265.9l145.2-0.4l0-5.3
						C343.7,311.8,310.6,257.2,284.1,206.1z"/>
					<path class="st9" d="M388,322.9L387.5,89l-115,0.3C283.5,176.6,330.4,254.9,388,322.9z"/>
					<path class="st9" d="M272.5,89.3l-26,0.1c5.8,40.7,18.1,79.9,37.6,116.7c26.5,51.1,59.5,105.7,104,143.5l-0.1-26.7
						C330.4,254.9,283.5,176.6,272.5,89.3z"/>
					
						<rect x="284.7" y="71.2" transform="matrix(1 -2.425178e-03 2.425178e-03 1 -0.181 0.7637)" class="st10" width="60.3" height="7.7"/>
				</g>
				<path class="st3" d="M274.9,292.7c-28,8.2-63,1.5-87-14.5c-0.1,1.1,0,2.2,0.1,3.3c0.9,8.2,6.9,15.9,15,19.2
					c13.7,5.6,33.6,1.8,47.8,0.5C259.5,300.4,269.8,299.5,274.9,292.7z"/>
				<path class="st11" d="M274.9,292.7c1.2-1.5,2.1-3.4,2.6-5.5c1.1-4.2,1.7-5.9,0.3-10c-1-2.8-1.7-4.2-3.7-6.4
					c-8.9-9.8-30.3-12.9-42.6-14.1c-11.3-1.1-23.5-2-32.8,3.8c-2.7,1.7-5,3.9-6.7,6.4c-2.3,3.4-3.7,7.4-3.9,11.4
					C211.9,294.2,246.9,300.9,274.9,292.7z"/>
				<path class="st2" d="M257.8,291.4c4.6-0.9,9.4-3.4,10.4-7.7c0.9-4-0.9-9.1-4.7-11.4c-3.7-2.3-8.6-3.1-12.9-3.8
					c-0.5-0.1-4.6-0.3-5-0.2c-0.6,0.2-1,0.8-1.3,1.3c-2.6,4.5-2.3,12.6-1.2,17.8C244.3,293.1,253.1,292.3,257.8,291.4z"/>
				<path class="st3" d="M207.6,333.4c-0.2,2.3,0.1,4.7,1,6.9c2.1,5.1,7.4,8.9,13.2,9.5c9.8,1.1,21.9-5.1,30.8-8.6
					c3.1-1.2,6.4-2.5,9.1-4.4C244.7,342.1,224.4,340.2,207.6,333.4z"/>
				<path class="st11" d="M267.1,327.2c-0.1-2.9,0-4.1-1.7-6.5c-1.2-1.6-1.9-2.4-3.6-3.4c-7.6-4.6-21.8-2.6-30-1.1
					c-7.4,1.4-15.5,3.1-20.4,8.6c-1.4,1.6-2.5,3.4-3.1,5.4c-0.3,1.1-0.6,2.1-0.7,3.2c16.9,6.7,37.1,8.7,54.1,3.4
					C264.9,334.6,267.2,331.7,267.1,327.2z"/>
				<path class="st2" d="M255.2,333.6c2.8-1.4,5.4-3.9,5.3-6.9c-0.1-2.7-2.3-5.7-5.1-6.4c-2.8-0.8-6.1-0.4-9,0c-0.3,0-3,0.7-3.3,0.8
					c-0.4,0.2-0.5,0.7-0.6,1.1c-0.8,3.3,0.9,8.5,2.6,11.7C246.8,337.3,252.3,335.1,255.2,333.6z"/>
				<path class="st3" d="M202.9,246.9c11.4,7.3,30.1,7.1,43.1,8.2c6.8,0.6,14.7,1.3,20.4-1.8c-26.8,4.8-55.8-5-74-25.4
					C192.3,235.2,196.4,242.7,202.9,246.9z"/>
				<path class="st11" d="M192.5,227.9c18.2,20.4,47.1,30.2,74,25.4c2.5-1.3,4.6-3.4,6-6.5c1.7-3.6,2.5-5,1.9-9
					c-0.4-2.7-0.8-4-2.3-6.4c-6.5-10.3-25.3-16.6-36.2-19.7c-10-2.8-20.9-5.6-30.3-1.9c-2.7,1.1-5.1,2.7-7.1,4.7
					c-3.4,3.4-5.5,7.9-5.9,12.6C192.5,227.3,192.5,227.6,192.5,227.9z"/>
				<path class="st2" d="M253.9,247.4c4.3,0,9.1-1.5,10.7-5.2c1.5-3.5,0.6-8.4-2.4-11c-3-2.6-7.3-4.2-11.1-5.5c-0.4-0.2-4.1-1-4.5-1
					c-0.6,0.1-1,0.5-1.4,1c-3,3.6-4.1,11-3.9,15.9C241.5,246.8,249.6,247.4,253.9,247.4z"/>
			</g>
			<g class="st1">
				<g>
					<g>
						<path class="st12" d="M296,284.4l-0.9,0c-2.7,0-4.8-2.2-4.8-4.9l0-13.6c0-2.7,2.2-4.8,4.8-4.8l24.7,0.1c1.3,0,2.5,0.5,3.4,1.4
							c0.9,0.9,1.4,2.1,1.4,3.4l0,13.6c0,2.7-2.2,4.8-4.8,4.8l-18-0.1c-1.9,2.1-5.8,6.3-5.8,6.3L296,284.4z"/>
						<path class="st13" d="M295.1,262.1C295.1,262.1,295.1,262.1,295.1,262.1l24.7,0.1c2.1,0,3.8,1.7,3.8,3.9l0,13.6
							c0,2.1-1.7,3.8-3.8,3.8c0,0,0,0,0,0l-18.4-0.1c-2,2.1-4.3,4.7-4.3,4.7l0-4.7l-1.9,0c-2.1,0-3.8-1.7-3.8-3.9l0-13.6
							C291.3,263.8,293,262.1,295.1,262.1 M295.1,260.1c-3.2,0-5.8,2.6-5.8,5.8l0,13.6c0,3.2,2.6,5.8,5.8,5.9l0,2.7l0,5.2l3.5-3.8
							c0,0,1.9-2.1,3.7-4.1l17.6,0.1c3.2,0,5.9-2.6,5.9-5.8l0-13.6c0-1.6-0.6-3-1.7-4.1c-1.1-1.1-2.6-1.7-4.1-1.7L295.1,260.1
							L295.1,260.1L295.1,260.1L295.1,260.1z"/>
					</g>
					<g>
						<path class="st12" d="M329.3,273.3l-18-0.1c-1.3,0-2.5-0.5-3.4-1.4c-0.9-0.9-1.4-2.1-1.4-3.4l0-13.6c0-2.7,2.2-4.8,4.8-4.8
							L336,250c1.3,0,2.5,0.5,3.4,1.4s1.4,2.1,1.4,3.4l0,13.6c0,2.7-2.2,4.8-4.8,4.8l-0.9,0l0,6.3
							C335,279.6,331.1,275.4,329.3,273.3z"/>
						<path class="st13" d="M311.3,250.9C311.3,250.9,311.3,250.9,311.3,250.9L336,251c2.1,0,3.8,1.7,3.8,3.9l0,13.6
							c0,2.1-1.7,3.8-3.8,3.8c0,0,0,0,0,0l-1.9,0l0,4.7c0,0-2.3-2.6-4.3-4.7l-18.4-0.1c-2.1,0-3.8-1.7-3.8-3.9l0-13.6
							C307.5,252.6,309.2,250.9,311.3,250.9 M311.3,248.9c-3.2,0-5.8,2.6-5.8,5.8l0,13.6c0,1.6,0.6,3,1.7,4.1
							c1.1,1.1,2.6,1.7,4.1,1.7l17.6,0.1c1.8,2,3.7,4.1,3.7,4.1l3.5,3.8l0-5.2l0-2.7c3.2,0,5.8-2.6,5.8-5.8l0-13.6
							c0-1.6-0.6-3-1.7-4.1c-1.1-1.1-2.6-1.7-4.1-1.7L311.3,248.9L311.3,248.9L311.3,248.9L311.3,248.9z"/>
					</g>
				</g>
				<path class="st14" d="M340.8,261.5l-8.9-0.1c-1.8,0-3.2-1.5-3.2-3.3l0.1-8.9c0-1.8,1.5-3.2,3.3-3.2l8.9,0.1
					c1.8,0,3.2,1.5,3.2,3.3l-0.1,8.9C344.1,260.1,342.6,261.5,340.8,261.5z"/>
				<text transform="matrix(0.9999 1.168838e-02 -1.168838e-02 0.9999 333.3163 257.385)" class="st13 st15 st16">1</text>
			</g>
			<g class="st1">
				<defs>
					<path id="SVGID_14_" d="M325.3,462.1c22.9-7.4,70.8-25.1,107.2-54.1c6.5-5.2,16.2-3.3,20.3,3.9L555.4,593l-61,3l-135.1-4.3
						l-42.3-112.3C314.3,472.3,318.1,464.5,325.3,462.1z"/>
				</defs>
				<clipPath id="SVGID_15_">
					<use xlink:href="#SVGID_14_"  style="overflow:visible;"/>
				</clipPath>
				<path class="st17" d="M443.3,530.9c24.3,2.8,48.1-2.9,67.9-15.9l-58.6-103.4c-4-7-13.4-8.9-19.7-3.8
					c-34.7,28-84.5,46.5-107.9,54.2c-7.1,2.3-10.8,10.1-8.2,17.1l3.2,8.5C351.6,518.5,399.4,526.2,443.3,530.9z"/>
				<path class="st18" d="M544.9,574.5l-33.7-59.4c-19.8,13-43.6,18.7-67.9,15.9c-44-4.7-91.8-12.5-123.3-43.2l36.1,95.7
					c1.9,5,6.6,8.3,11.9,8.5l125.8,4c0.4,0,0.7,0,1.1,0l39.1-1.9C543.9,593.6,549.7,583,544.9,574.5z"/>
				<g class="st19">
					<g class="st20">
						
							<rect x="301.1" y="415.8" transform="matrix(0.8959 -0.4443 0.4443 0.8959 -220.3218 196.1192)" class="st12" width="14.4" height="304.8"/>
					</g>
					<g class="st20">
						<path class="st12" d="M265.1,419.5l135.4,273.1l12.9-6.4L307.9,473.5c0,0-0.1-0.1-0.1-0.1c0,0,0.1,0.1,0.1,0.1l-30-60.4
							L265.1,419.5z"/>
					</g>
					<g class="st20">
						<path class="st12" d="M347,507.1l84.4,170.2l12.9-6.4L367.5,516C360.4,513.5,353.5,510.5,347,507.1z"/>
					</g>
					<g class="st20">
						<path class="st12" d="M296,404.2l51,102.9c6.5,3.5,13.4,6.4,20.5,8.9l-58.6-118.2L296,404.2z"/>
					</g>
					<g class="st20">
						<path class="st12" d="M339.3,382.7l-12.9,6.4l66.5,134.1c5.9,1.3,11.8,2.4,17.8,3.4L339.3,382.7z"/>
					</g>
					<g class="st20">
						<path class="st12" d="M392.9,523.2l68.9,139l12.9-6.4l-64-129.1C404.7,525.7,398.8,524.5,392.9,523.2z"/>
					</g>
					<g class="st20">
						<path class="st12" d="M452.2,531.6l-81.5-164.5l-12.9,6.4l77.6,156.5c2.7,0.3,5.3,0.6,8,0.9
							C446.3,531.3,449.3,531.5,452.2,531.6z"/>
					</g>
					<g class="st20">
						<path class="st12" d="M506.1,640.2l-53.9-108.6c-3-0.1-5.9-0.3-8.9-0.6c-2.6-0.3-5.3-0.6-8-0.9l57.8,116.5L506.1,640.2z"/>
					</g>
					<g class="st20">
						<path class="st12" d="M401.6,351.8l-12.9,6.4L473.9,530c4.9-0.9,9.6-2.1,14.3-3.7L401.6,351.8z"/>
					</g>
					<g class="st20">
						<path class="st12" d="M537,624.9l-48.9-98.6c-4.6,1.6-9.4,2.8-14.3,3.7l50.2,101.3L537,624.9z"/>
					</g>
					<g class="st20">
						<path class="st12" d="M567.9,609.5l-49.4-99.7c-3.8,3-7.9,5.7-12,8.2l48.6,97.9L567.9,609.5z"/>
					</g>
					<g class="st20">
						<path class="st12" d="M432.5,336.5l-12.9,6.4L506.4,518c4.2-2.4,8.2-5.1,12-8.2L432.5,336.5z"/>
					</g>
					<g class="st20">
						<path class="st12" d="M598.3,594.5L462.9,321.4l-12.9,6.4l83.2,167.8c0.3-0.3,0.6-0.7,0.8-1c-0.3,0.3-0.6,0.7-0.8,1
							l52.2,105.2L598.3,594.5z"/>
					</g>
					<g class="st20">
						
							<rect x="210.3" y="399.5" transform="matrix(0.8959 -0.4443 0.4443 0.8959 -142.926 203.4831)" class="st12" width="304.8" height="14.4"/>
					</g>
					<g class="st20">
						<path class="st12" d="M511.4,363.5L238.3,498.9l6.4,12.9l67-33.2c-1.3-1.7-2.6-3.4-3.9-5.1c1.3,1.8,2.6,3.5,3.9,5.1
							l206.1-102.2L511.4,363.5z"/>
					</g>
					<g class="st20">
						<path class="st12" d="M526.7,394.4l-200.1,99.2c4.2,3.5,8.7,6.6,13.3,9.5l193.2-95.8L526.7,394.4z"/>
					</g>
					<g class="st20">
						<path class="st12" d="M253.6,529.8l6.4,12.9l79.9-39.6c-4.7-2.8-9.1-6-13.3-9.5L253.6,529.8z"/>
					</g>
					<g class="st20">
						<path class="st12" d="M362,514l-93.3,46.3l6.4,12.9l106.4-52.7C374.8,518.6,368.3,516.4,362,514z"/>
					</g>
					<g class="st20">
						<path class="st12" d="M541.8,424.8L362,514c6.3,2.5,12.8,4.6,19.5,6.4l166.7-82.7L541.8,424.8z"/>
					</g>
					<g class="st20">
						<path class="st12" d="M557.4,456.2l-143.2,71c8.6,1.3,17.2,2.4,25.7,3.4l123.9-61.5L557.4,456.2z"/>
					</g>
					<g class="st20">
						<path class="st12" d="M284.3,591.6l6.4,12.9l149.1-73.9c-8.5-0.9-17.1-2-25.7-3.4L284.3,591.6z"/>
					</g>
					<g class="st20">
						
							<rect x="287" y="554" transform="matrix(0.8959 -0.4443 0.4443 0.8959 -203.6024 253.6161)" class="st12" width="304.8" height="14.4"/>
					</g>
					<g class="st20">
						
							<rect x="302.3" y="584.9" transform="matrix(0.8959 -0.4443 0.4443 0.8959 -215.7365 263.6407)" class="st12" width="304.8" height="14.4"/>
					</g>
					<g class="st20">
						
							<rect x="317.4" y="615.4" transform="matrix(0.8959 -0.4443 0.4443 0.8959 -227.6861 273.5136)" class="st12" width="304.8" height="14.4"/>
					</g>
				</g>
			</g>
			<g class="st1">
				<text transform="matrix(0.9403 0.3402 -0.3402 0.9403 140.3927 -75.3614)" class="st15 st16">УAловите свое</text>
			</g>
		</g>
		<g class="st0">
		</g>
	</g>
</g>
<g id="DESIGNED_BY_FREEPIK">
</g>
<g id="Слой_4">
	<g id="Слой_4_1_">
		<g>
			<path class="st13" d="M282.5,212.8c-1,0.5-3.2,1.1-6.1,1.1c-8.2,0-12.5-5.4-12.5-12.5c0-8.5,5.8-13.2,13-13.2
				c2.8,0,4.9,0.6,5.8,1.1l-1.1,4.5c-1.1-0.5-2.6-0.9-4.5-0.9c-4.2,0-7.6,2.7-7.6,8.3c0,5,2.8,8.1,7.6,8.1c1.6,0,3.4-0.3,4.5-0.8
				L282.5,212.8z"/>
			<path class="st13" d="M295.4,213.5l-0.3-1.8h-0.1c-1.1,1.4-2.9,2.2-4.9,2.2c-3.5,0-5.6-2.6-5.6-5.5c0-4.7,4-7,10.1-7v-0.2
				c0-1-0.5-2.3-3.2-2.3c-1.8,0-3.6,0.6-4.7,1.4l-1-3.6c1.2-0.7,3.5-1.6,6.7-1.6c5.7,0,7.6,3.6,7.6,7.8v6.3c0,1.7,0.1,3.4,0.3,4.4
				L295.4,213.5L295.4,213.5L295.4,213.5z M294.7,204.9c-2.8,0-5,0.7-5,2.9c0,1.5,0.9,2.2,2.1,2.2c1.3,0,2.4-0.9,2.8-2.1
				c0.1-0.3,0.1-0.6,0.1-1V204.9L294.7,204.9z"/>
			<path class="st13" d="M304.1,201.4c0-2.7,0-4.4-0.1-6h4.6l0.2,3.4h0.1c0.9-2.7,3-3.8,4.7-3.8c0.5,0,0.7,0,1.1,0.1v5.3
				c-0.4-0.1-0.8-0.2-1.5-0.2c-2,0-3.3,1.1-3.7,2.9c-0.1,0.4-0.1,0.8-0.1,1.2v9.2h-5.4L304.1,201.4L304.1,201.4z"/>
			<path class="st13" d="M317.7,188.6h14.5v4.6h-9.1v5.7h8.5v4.6h-8.5v10h-5.4V188.6L317.7,188.6z"/>
			<path class="st13" d="M340.9,190.4c0,1.6-1.1,2.8-2.9,2.8c-1.7,0-2.8-1.2-2.8-2.8c0-1.6,1.1-2.8,2.8-2.8
				C339.8,187.5,340.9,188.7,340.9,190.4z M335.4,213.5v-18.1h5.4v18.1H335.4z"/>
			<path class="st13" d="M349.1,195.4l1.7,3c0.5,0.9,1,1.8,1.4,2.7h0.1c0.4-1,0.9-1.9,1.3-2.8l1.5-2.9h5.8l-5.7,8.6l5.7,9.5h-6.1
				l-1.7-3.3c-0.5-0.9-0.9-1.8-1.3-2.8h-0.1c-0.4,1-0.9,1.9-1.3,2.8l-1.6,3.3H343l5.8-9.2l-5.7-8.9L349.1,195.4L349.1,195.4z"/>
		</g>
	</g>
	<g id="Слой_1_1_">
		<g>
			<g>
				<g>
					<g>
						<path id="SVGID_1_" class="st13" d="M333.3,138.3c0,0,2.5,1.4,3.7,3.7c1.3,2.3,1.2,5.4,1.2,5.4v15.2c0,0,0.1,2.7-1,4.8
							c-1.2,2.3-3.7,3.9-3.7,3.9c-4.5,2.6-9,5.2-13.5,7.8l0,0l0,0c0,0.1-2.4,1.5-5.2,1.6c-1.9,0.1-3.6-0.6-5.3-1.3l-14.8-8.5
							c0,0-1.9-1.2-2.9-3.3c-0.9-1.7-1-4.3-1-4.3V147c0,0-0.1-3,1.4-5.5c1.3-2.1,4.4-3.8,4.4-3.8l13-7.4c0,0,2.2-1.2,4.9-1.2
							c2.7,0,4.9,1.3,4.9,1.3L333.3,138.3z"/>
					</g>
					<g>
						<path id="SVGID_2_" class="st21" d="M333.3,138.3c0,0,2.5,1.4,3.7,3.7c1.3,2.3,1.2,5.4,1.2,5.4v15.2c0,0,0.1,2.7-1,4.8
							c-1.2,2.3-3.7,3.9-3.7,3.9c-4.5,2.6-9,5.2-13.5,7.8l0,0l0,0c0,0.1-2.4,1.5-5.2,1.6c-1.9,0.1-3.6-0.6-5.3-1.3l-14.8-8.5
							c0,0-1.9-1.2-2.9-3.3c-0.9-1.7-1-4.3-1-4.3V147c0,0-0.1-3,1.4-5.5c1.3-2.1,4.4-3.8,4.4-3.8l13-7.4c0,0,2.2-1.2,4.9-1.2
							c2.7,0,4.9,1.3,4.9,1.3L333.3,138.3z"/>
					</g>
				</g>
				<g>
					<g>
						<path id="SVGID_3_" class="st22" d="M330.3,141c0,0,2.1,1.2,3.1,3.1c1.1,2,1,4.5,1,4.5v12.8c0,0,0.1,2.3-0.8,4
							c-1,1.9-3.1,3.3-3.1,3.3c-3.8,2.2-7.5,4.4-11.2,6.5l0,0l0,0c0,0-2,1.3-4.4,1.4c-1.6,0.1-3-0.5-4.4-1.1l-12.4-7.1
							c0,0-1.6-1-2.5-2.7c-0.7-1.4-0.8-3.6-0.8-3.6v-13.6c0,0-0.1-2.6,1.2-4.6c1.1-1.8,3.7-3.2,3.7-3.2l10.9-6.2c0,0,1.8-1,4.1-1
							c2.3,0,4.1,1.1,4.1,1.1L330.3,141z"/>
					</g>
				</g>
				<g>
					<g>
						<path id="SVGID_5_" class="st23" d="M310.6,143.4c0,0-2.9,0-3.7,0.4c-1.2,0.5-1.7,1.3-1.7,1.3s-1.1,1.7-1.7,2.7
							c-0.2,0.4-0.5,0.7-0.5,0.7s-0.3-0.2-0.4-0.4c-0.2-0.3-0.3-0.6-0.3-0.6s-0.1-0.3-0.3-0.4c-0.2-0.1-0.4-0.2-0.4-0.2l-2.1-0.1
							c0,0-0.3,0-0.4,0.2c-0.1,0.2-0.1,0.5-0.1,0.5s0,0.3,0,0.5c0,0.2,0.1,0.4,0.1,0.4s0.4,0.4,1.2,0.7c0.9,0.3,2.1,0.4,2.1,0.4
							s-0.2,0.3-0.6,0.7c-0.4,0.4-0.9,0.7-0.9,0.7s-1.4,1.3-1.7,3.1c-0.4,2,0.3,4.9,0.3,4.9s0,1.1,0.1,2.4c0,1.3,0.1,2.6,0.1,2.6
							s0,0.4,0.2,0.6c0.2,0.2,0.4,0.1,0.4,0.1h3.1c0,0,0.3,0,0.4-0.1c0.1-0.1,0.2-0.5,0.2-0.5v-1.6c0,0,5.4,0.6,10.8,0.6
							c5.2,0,10.5-0.5,10.5-0.5l0.1,1.7c0,0,0.1,0.2,0.2,0.4c0.1,0.1,0.4,0.1,0.4,0.1h3.3c0,0,0.2-0.1,0.4-0.2
							c0.1-0.1,0.1-0.4,0.1-0.4s0.1-1.3,0.1-2.5c0-1.2,0-2.1,0-2.1c0.4-2,0.7-3.9,0.4-5.3c-0.2-1.5-1.2-2.7-1.8-3.2
							c-0.6-0.5-0.7-0.5-0.9-0.7c-0.5-0.4-0.7-0.7-0.7-0.7s1.2-0.1,2.1-0.4c0.8-0.3,1.3-0.7,1.3-0.7s0.1-0.7,0-1.2
							c-0.1-0.4-0.1-0.4-0.1-0.4s-0.2-0.1-0.5-0.1c0,0,0,0,0,0c-0.7,0-1.8,0.2-1.8,0.2s-0.4,0-0.6,0.1s-0.2,0.4-0.2,0.4
							s-0.1,0.4-0.4,0.7c-0.2,0.3-0.4,0.4-0.4,0.4s-0.2-0.2-0.5-0.7c-0.3-0.5-0.7-1.2-1.1-1.8c-0.5-0.7-1-1.3-1-1.3
							s-0.5-0.6-1.3-0.9c-0.7-0.3-1.8-0.3-1.8-0.3s-2.7-0.1-5.1-0.1C312.9,143.3,310.6,143.4,310.6,143.4z"/>
					</g>
				</g>
				<g>
					<g>
						<path id="SVGID_7_" d="M322.2,149.3L322.2,149.3L322.2,149.3z M322.2,152.3c0,0-3.9,0-5.6,0c-0.2,0-0.6,0-0.8-0.1
							c-0.3,0-0.5-0.1-0.5-0.1l-1.2-0.6c0,0-0.2-0.1-0.4-0.1c-0.1,0-0.1,0-0.2,0c-0.1,0-0.2,0-0.2,0l-5-0.1c0,0-0.1,0-0.3,0
							c-0.1,0-0.1,0-0.2,0c-0.2,0.1-0.2,0.3-0.2,0.3l-1.9-0.1c0,0-0.1,0-0.2-0.1c-0.1-0.1-0.1-0.3-0.1-0.3v-0.5c0,0,0-0.2,0.1-0.3
							c0.1-0.1,0.3-0.1,0.3-0.1l1.8-0.1c0,0.1,0.1,0.2,0.3,0.3c0,0,0.1,0,0.1,0c0,0,0.1,0,0.1,0c0.1,0,0.1,0,0.2,0
							c1.6,0,3.2,0,4.7,0c0.1,0,0.2,0,0.4,0c0.1,0,0.1,0,0.2,0c0,0,0.1,0,0.1,0s0.1,0,0.1,0c0.1,0,0.4-0.1,0.6-0.2
							c0,0,0.6-0.3,0.7-0.4c0.2-0.1,0.3-0.1,0.5-0.2c0.2-0.1,0.4-0.1,0.6-0.1c0.1,0,0.2,0,0.3,0c0.2,0,0.3,0,0.3,0l5.6,0.1
							c0,0,0.5,0.1,0.8,0.4c0.3,0.3,0.5,0.7,0.5,1.1s-0.1,0.7-0.4,1.1C322.9,152.1,322.6,152.2,322.2,152.3z"/>
					</g>
				</g>
				<g>
					<g>
						<path id="SVGID_9_" d="M307.8,159.1c-0.6,0-1.1-0.2-1.1-0.2s-0.4-0.1-0.8-0.4c-0.4-0.3-0.7-0.7-0.7-0.7v-0.2h2.4
							c0,0,0.1,0,0.2-0.1c0.1,0,0.1-0.1,0.1-0.1l0.6-0.9c0,0,0.1-0.1,0.1-0.2c0-0.1-0.1-0.3-0.1-0.3l-0.5-0.8c0,0-0.1-0.1-0.2-0.2
							c-0.1-0.1-0.3-0.1-0.3-0.1l-2.3,0.1v-0.2c0,0,0.3-0.5,0.9-0.9c0.5-0.3,1.3-0.5,1.3-0.5s0,0,0.1,0c0.2,0,0.7,0,1.2,0.2
							c0.6,0.3,1.2,0.8,1.2,0.8s0.4,0.4,0.9,0.6c0.3,0.1,0.7,0.1,0.8,0.1c0,0,0,0,0,0h6.9c0,0,0.1,0,0.2,0c0.2,0,0.4,0,0.6-0.1
							c0.4-0.1,0.7-0.4,0.7-0.4s0.3-0.2,0.7-0.4c0.3-0.1,0.8-0.1,0.8-0.1c1.1,0,2,1,2,2.1c0,1.1-0.9,2-2,2.1c-0.2,0-0.4,0-0.7-0.1
							l0,0c0,0-0.3-0.1-0.7-0.3c-0.1,0-0.3-0.2-0.4-0.3c-0.2-0.1-0.4-0.2-0.5-0.2c-0.2,0-0.4-0.1-0.6-0.1c0,0-0.1,0-0.1,0
							c-0.1,0-0.8,0-1.8,0c-1.9,0-4.7,0-4.7,0s-0.6,0-1.1,0.1c-0.4,0.1-0.9,0.4-0.9,0.4l-1.2,0.9C308.9,158.7,308.4,159,307.8,159.1
							C307.8,159.1,307.8,159.1,307.8,159.1z"/>
					</g>
				</g>
				<g>
					<g>
						<path id="SVGID_11_" class="st23" d="M320.4,156c0,0,0,0-0.1,0.1c0,0.1,0.1,0.2,0.1,0.2l0.5,0.7c0,0,0,0,0.1,0.1
							c0.1,0.1,0.1,0.1,0.1,0.1h0.9c0,0,0.1,0,0.1-0.1c0.1-0.1,0.1-0.1,0.1-0.1l0.4-0.7c0,0,0.1-0.1,0.1-0.2s-0.1-0.2-0.1-0.2
							l-0.4-0.7c0,0,0,0-0.1-0.1c0,0-0.1-0.1-0.1-0.1h-0.9c0,0-0.1,0-0.1,0.1c-0.1,0-0.1,0.1-0.1,0.1L320.4,156z"/>
					</g>
				</g>
			</g>
		</g>
	</g>
</g>
</svg>
