<?xml version="1.0" encoding="utf-8"?>
<!-- Generator: Adobe Illustrator 24.0.2, SVG Export Plug-In . SVG Version: 6.00 Build 0)  -->
<svg version="1.1" id="Слой_1" opacity="0.4" xmlns="http://www.w3.org/2000/svg" xmlns:xlink="http://www.w3.org/1999/xlink"
	 x="0px" y="0px" viewBox="0 0 1920 848" style="enable-background:new 0 0 1920 848;" xml:space="preserve">
<style type="text/css">
	.st0{fill:#6287B6;}
	.st1{fill:#002D56;}
	.st2{fill:#B7B9B7;}
	.st3{fill:#FFA47C;}
	.st4{fill:#9A9393;}
	.st5{fill:#1C5C92;}
	.st6{fill:#596273;}
	.st7{fill:#7E908D;}
	.st8{fill:#00233F;}
	.st9{fill:#535353;}
	.st10{fill:#A39D9D;}
	.st11{fill:#303030;}
	.st12{fill:#424242;}
	.st13{fill:#1C1C1C;}
	.st14{fill:#7F7F7F;}
	.st15{fill:#191919;}
	.st16{fill:#B8B3B3;}
	.st17{fill:#D7D4D4;}
	.st18{fill:#FFBD95;}
	.st19{fill:#8D3B26;}
	.st20{fill:#4169A4;}
	.st21{fill:#CFCCCC;}
	.st22{fill:#004877;}
	.st23{fill:#B8D1FF;}
	.st24{fill:#E0F2FF;}
	.st25{fill:#CEE0FF;}
	.st26{fill:#0F0D0D;}
	.st27{fill:#3B1B1D;}
	.st28{fill:#722C1D;}
	.st29{fill:#70655E;}
	.st30{fill:#524843;}
	.st31{fill:#B4ABA6;}
	.st32{fill:#DAD3CF;}
	.st33{fill:#3D3D3D;}
	.st34{fill:#BFD2E1;}
	.st35{fill:url(#SVGID_1_);}
	.st36{fill:#46676C;}
	.st37{fill:url(#SVGID_2_);}
	.st38{fill:url(#SVGID_3_);}
	.st39{fill:#375B60;}
	.st40{fill:url(#SVGID_4_);}
	.st41{fill:url(#SVGID_5_);}
	.st42{fill:url(#SVGID_6_);}
	.st43{fill:url(#SVGID_7_);}
	.st44{fill:url(#SVGID_8_);}
	.st45{fill:url(#SVGID_9_);}
	.st46{fill:url(#SVGID_10_);}
	.st47{fill:url(#SVGID_11_);}
	.st48{fill:url(#SVGID_12_);}
	.st49{fill:url(#SVGID_13_);}
	.st50{fill:url(#SVGID_14_);}
	.st51{fill:#668186;}
	.st52{fill:#D1C6C6;}
	.st53{fill:url(#SVGID_15_);}
	.st54{fill:url(#SVGID_16_);}
	.st55{fill:url(#SVGID_17_);}
	.st56{fill:url(#SVGID_18_);}
	.st57{fill:#BD0000;}
	.st58{fill:url(#SVGID_19_);}
	.st59{fill:url(#SVGID_20_);}
	.st60{fill:#E50000;}
	.st61{fill:#FFFFFF;}
	.st62{fill:url(#SVGID_21_);}
	.st63{fill:url(#SVGID_22_);}
	.st64{fill:url(#SVGID_23_);}
	.st65{fill:url(#SVGID_24_);}
	.st66{fill:#DD5600;}
	.st67{fill:url(#SVGID_25_);}
	.st68{fill:#D1DFEA;}
	.st69{fill:url(#SVGID_26_);}
	.st70{fill:#686868;}
	.st71{fill:#B4B4B4;}
	.st72{fill:#D60000;}
	.st73{opacity:0.3;clip-path:url(#SVGID_28_);enable-background:new    ;}
	.st74{fill:url(#SVGID_29_);}
	.st75{fill:url(#SVGID_30_);}
</style>
<g id="Слой_2_1_">
	<rect y="-0.4" class="st0" width="1920" height="848.8"/>
</g>
<g id="Слой_1_1_">
	<g>
		<g>
			<g>
				<g>
					<rect x="1157.4" y="534.4" class="st1" width="51.3" height="11.1"/>
					<g>
						<path class="st1" d="M1203.7,485.8c-2-0.4-49.1-9.1-66.5-34.5s-6.9-64.2-6.5-65.8l0.2-0.9l0.9-0.1c0.4,0,44-4.3,61.1-17.7
							c9.5-7.5,15.9-22.9,21.5-36.5c5.3-12.9,9.5-23.1,15.4-24.7c12.5-3.4,24.7,2.5,32.6,15.9c8.2,13.9,5.7,31,5.6,31.8l-2.7-0.4
							c0-0.2,2.4-17-5.2-30c-7.2-12.2-18.2-17.7-29.6-14.6c-4.6,1.2-9,11.9-13.6,23.1c-5.8,13.9-12.3,29.7-22.3,37.6
							c-16.5,12.9-54.9,17.5-61.6,18.2c-1.5,6-8.9,40.4,6.3,62.7c16.7,24.4,64.2,33.3,64.7,33.4L1203.7,485.8z"/>
						<g>
							<g>
								<path class="st1" d="M1224.9,506.1c-4,1.7-10.1,3.1-16.2-0.1c-10.5-5.5-22.6-29.4-26.3-35.1c-3.7-5.7-43.9-51.1-47.4-55.7
									s-19.3-12.2-22.7-25.7c-2-7.9,1.2-12.3,3.1-14.1l-0.1-0.1c0,0,5.3-6.3,15.5-2.2c12.9,5.1,18.5,21.8,22.5,25.8
									c4.1,4.1,43.9,49.8,49.1,54.2c5.2,4.4,27.3,19.6,31.4,30.6c2.6,7-0.2,13.3-2.5,16.9C1230.5,501.9,1226.5,505.4,1224.9,506.1
									z"/>
								<path class="st1" d="M1163,522.2h61.2l15-28.1c5.1-9.5-1.8-21-12.6-21H1163c-6.8,0-12.2,5.5-12.2,12.2V510
									C1150.8,516.7,1156.3,522.2,1163,522.2z"/>
								<path class="st1" d="M1224.2,522.2l-5,9.8c-0.8,1.5-2.3,2.4-4,2.4H1158c-1.8,0-3.3-1.3-3.5-3.1l-0.3-2.7
									c-0.4-3.4,2.3-6.4,5.7-6.4H1224.2z"/>
								
									<rect x="1145.7" y="331" transform="matrix(0.8166 -0.5772 0.5772 0.8166 21.3591 749.8367)" class="st1" width="89.9" height="20.6"/>
								<path class="st1" d="M1155.5,401.4c0,0-2.5,8.4-5.7,11.6s-5.7,5.8,0,12.1c5.7,6.3,39.4,43.7,40.9,44.1s36,3.9,36,3.9h-42.9
									l-53.5-63.7L1155.5,401.4z"/>
								<path class="st1" d="M1162.5,347.8c0,0,6.7-1.8,12.1,3c5.3,4.8,9,4.3,11.1,3.2c1.6-0.9,22.5-16.1,31.8-22.9
									c2.2-1.6-7.7-9.5-3.5-18.9c2.1-4.7,11.3,17.3,11.3,17.3l-50.8,35.9L1162.5,347.8z"/>
								<path class="st1" d="M1120.6,363.4l30.4-14.6c8.2-3.9,18.1-0.5,22,7.7c2.2,4.6,2.1,9.7,0.1,14l0,0l0,0
									c-0.6,1.4-1.5,2.7-2.5,3.9l-14.7,22.8l0,0c-2.4,5.6-6.8,10.4-12.7,13.3c-13,6.2-28.6,0.7-34.9-12.3
									C1102.1,385.3,1107.6,369.7,1120.6,363.4z"/>
								
									<rect x="1231.4" y="321.3" transform="matrix(0.8075 -0.5898 0.5898 0.8075 46.0546 793.6324)" class="st1" width="15.3" height="9.8"/>
								<path class="st1" d="M1232.6,329.9l12.1-9.5c0,0,0,2.9-2.5,6.1c-1.9,2.4-2.5,2.5-2.8,3.6s0.3,2,0.3,2l-3.5,2.6L1232.6,329.9
									z"/>
								<path class="st1" d="M1245,308.7c3,8.4-1.4,17.5-9.8,20.5s-17.5-1.4-20.5-9.8s1.4-17.5,9.8-20.5
									C1232.9,296,1242.1,300.4,1245,308.7z"/>
								<path class="st1" d="M1227.4,491.2c0,3.7-3,6.8-6.8,6.8s-6.8-3-6.8-6.8c0-3.7,3-6.8,6.8-6.8S1227.4,487.5,1227.4,491.2z"/>
							</g>
							<g>
								
									<rect x="1245.4" y="327.5" transform="matrix(0.8075 -0.5899 0.5899 0.8075 39.4495 803.2635)" class="st1" width="9.9" height="27.4"/>
								
									<rect x="1253.4" y="351.5" transform="matrix(0.8075 -0.5898 0.5898 0.8075 32.5337 812.4036)" class="st1" width="15.3" height="9.8"/>
								
									<rect x="1260.1" y="359.6" transform="matrix(0.8075 -0.5898 0.5898 0.8075 29.1926 817.1595)" class="st1" width="13.3" height="8.5"/>
								<g>
									
										<rect x="1273.2" y="416.9" transform="matrix(0.386 -0.9225 0.9225 0.386 397.88 1434.1326)" class="st1" width="6.2" height="2.6"/>
									<path class="st1" d="M1279.9,413.5l-2.7-1.1l6.8-16.2c1-2.5,0.7-5.3-0.9-7.5l-11.1-15.2l2.4-1.7l11,15.2
										c2.2,3,2.6,7,1.2,10.4L1279.9,413.5z"/>
									
										<rect x="1274.2" y="408.3" transform="matrix(0.386 -0.9225 0.9225 0.386 406.8506 1432.4121)" class="st1" width="10.6" height="4.5"/>
								</g>
								<path class="st1" d="M1238.3,333.1l16.2,22.2l8-5.8c0,0-6.4,3.3-7.6,1.9s-13.3-17.5-13.2-18.2c0.1-0.8,4.7-5.8,4.7-5.8
									L1238.3,333.1z"/>
								
									<rect x="1268.4" y="366" transform="matrix(0.8075 -0.5899 0.5899 0.8075 25.7826 822.2822)" class="st1" width="8.5" height="11.3"/>
							</g>
						</g>
					</g>
					<g>
						<polygon class="st1" points="1141.9,594.2 1221.7,594.2 1212.8,545.5 1150.8,545.5 						"/>
						<polygon class="st1" points="1154.1,548.2 1154.1,591 1145.4,591 1152.7,548.2 						"/>
						<polygon class="st1" points="1209.5,548.2 1209.5,591 1218.1,591 1210.9,548.2 						"/>
						<polygon class="st1" points="1179.9,548.4 1179.9,591.2 1173,591.2 1176.7,548.4 						"/>
						<polygon class="st1" points="1181.8,548.4 1181.8,591.2 1188.6,591.2 1184.9,548.4 						"/>
						<polygon class="st1" points="1210.9,548.2 1213.3,548.2 1221.1,591 1218.1,591 						"/>
						<rect x="1149" y="545.5" class="st1" width="65.4" height="2.9"/>
						<rect x="1140.3" y="590.7" class="st1" width="82.9" height="3.5"/>
					</g>
				</g>
			</g>
			<g>
				<g>
					<g>
						<polygon class="st1" points="482.4,170.7 482.9,169 72.7,117.8 72.1,119.5 288.6,170.7 289.4,169.1 88.1,121.5 						"/>
						<rect x="19.1" y="164.8" class="st1" width="469.6" height="10.3"/>
						<polygon class="st1" points="19.1,169.9 43.9,169.9 75.2,164.8 82.1,169.9 488.7,169.9 488.7,175 19.1,175 						"/>
						<rect x="44" y="114.1" class="st1" width="31.1" height="441.7"/>
						<path class="st1" d="M52.9,114.1H44v441.7h31.1c0,0-22.3-69-22.3-88.4C52.9,386.7,52.9,114.1,52.9,114.1z"/>
						<path class="st1" d="M0,590.6h204.9l-33.1-29.2c-4-3.5-10.1-5.6-16.6-5.6H20.9C9.4,555.8,0,562.1,0,570V590.6z"/>
						<path class="st1" d="M45.2,117.8H74c4.1,0,7.5-2.3,7.5-5.1l0,0c0-2.8-3.4-5.1-7.5-5.1H45.2c-4.1,0-7.5,2.3-7.5,5.1l0,0
							C37.6,115.5,41,117.8,45.2,117.8z"/>
					</g>
					<g>
						<rect x="357.9" y="175" class="st1" width="6.9" height="16.2"/>
						<path class="st1" d="M140.2,239.3c-0.8-1.1-1.5-2.2-2.1-3.4c-8.9,9-24.4,18.5-49.9,18.5c-0.3,0-0.6,0-0.9,0
							c-43.5-0.4-67.4-18-67.4-49.7c0-28.1,23.2-32.1,24.2-32.2v4.9c-0.7,0.1-17.4,3.1-17.4,27.3c0,20.3,10.5,44.7,60.7,45.1
							c0.3,0,0.5,0,0.8,0c24.7,0,39.1-9.8,47.3-19.6c-2.4-6.1-3.7-13-3.7-20c0-10.8,3.3-23.5,12.5-23.5c1.5,0,4.3,0.4,6.4,2.9
							c5.2,6.2,4.4,25.2-8,41.1c4,9.3,12.4,19.6,29.4,19.6c17.4,0,31.2-11,39.8-23.7c-4-8.7-6-17.8-6-24.9c0-4.2,0.7-7.7,2-10.2
							c2.4-4.5,6.5-5.2,8.8-5.2c4,0,7.3,1.6,9.3,4.4c1.6,2.2,2.3,5.3,2.3,9.1c0,7.6-3.3,17.6-9.3,27.1c6.3,12.7,16.9,23.4,30.2,23.4
							c14.1,0,25.9-11.4,33.4-24.4c-2.6-8.1-3.9-16.4-3.9-22.5c0-10.7,3.5-16.1,10.3-16.1c1.9,0,5.4,0.5,7.4,4
							c1.1,1.8,1.6,4.4,1.6,7.5c0,7.6-2.9,17.9-8.3,27.6c0.9,2.8,2,5.4,3.2,7.9c4.8,9.9,11,16.1,16.2,16.1c8.5,0,13.7-12,13.7-31.2
							c0-25.4,15.4-37.3,25.9-37.3c10.3,0,15.1,6.3,16.1,9.4h-6.9c-0.1-0.2-1.7-4.8-9.2-4.8c-5.4,0-19.1,9.7-19.1,32.7
							c0,16.3-3.6,35.8-20.5,35.8c-10.6,0-18.6-9.9-23.7-21.7c-8.5,12-20.9,21.7-36.2,21.7c-15.7,0-27.1-10-34.3-22.3
							C205.2,245,190.5,255,172,255C158.3,254.9,147.3,249.5,140.2,239.3z M140.1,223.4C140.2,223.4,140.2,223.4,140.1,223.4
							c1.8-3,3.1-5.8,3.9-8c5-13.2,2.5-23.3,0.3-24.1C140.8,192.1,135.8,206.5,140.1,223.4z M214.2,193.1c-1.1,2-1.6,5-1.6,8.7
							c0,5.5,1.2,11.7,3.3,17.9c3.7-7.2,5.6-14.3,5.6-19.8c0-3-0.6-5.5-1.7-7.1c-1.2-1.8-2.6-1.8-3.2-1.8
							C215.4,191,214.5,192.6,214.2,193.1z M285.4,203.4c0,4.1,0.6,8.8,1.6,13.5c2.7-6.6,4.2-13.1,4.2-18.2c0-3.2-0.6-4.9-1.1-5.8
							c-0.4-0.6-0.8-1.1-1.1-1.1C288,191.8,285.4,194.6,285.4,203.4z"/>
						<rect x="285.5" y="175" class="st1" width="6.9" height="16.2"/>
						<rect x="213.2" y="175" class="st1" width="6.9" height="16.2"/>
						<rect x="140.8" y="175" class="st1" width="6.9" height="16.2"/>
					</g>
					<rect x="357.9" y="191.2" class="st1" width="6.9" height="264.3"/>
				</g>
			</g>
			<g>
				<g>
					<g>
						<polygon class="st1" points="1805.9,195.5 1806.4,193.7 1359.1,142.5 1358.3,144.2 1594.4,195.4 1595.4,193.8 1375.9,146.2 
													"/>
						<rect x="1300.6" y="189.5" class="st1" width="512.2" height="10.3"/>
						<polygon class="st1" points="1300.6,194.6 1327.6,194.6 1361.7,189.5 1369.2,194.6 1812.7,194.6 1812.7,199.7 1300.6,199.7 
													"/>
						<rect x="1327.8" y="138.8" class="st1" width="33.9" height="441.7"/>
						<path class="st1" d="M1337.4,138.8h-9.6v441.7h33.9c0,0-24.3-69-24.3-88.4C1337.4,411.4,1337.4,138.8,1337.4,138.8z"/>
						<path class="st1" d="M1279.7,615.3h223.5l-36.1-29.2c-4.3-3.5-11-5.6-18.1-5.6h-146.4c-12.6,0-22.8,6.3-22.8,14.2
							L1279.7,615.3L1279.7,615.3z"/>
						<path class="st1" d="M1329,142.5h31.5c4.5,0,8.2-2.3,8.2-5.1l0,0c0-2.8-3.7-5.1-8.2-5.1H1329c-4.5,0-8.2,2.3-8.2,5.1l0,0
							C1320.8,140.2,1324.5,142.5,1329,142.5z"/>
					</g>
					<g>
						<rect x="1670.1" y="199.7" class="st1" width="7.5" height="16.2"/>
						<path class="st1" d="M1432.7,264c-0.8-1.1-1.6-2.2-2.3-3.4c-9.7,9-26.6,18.5-54.5,18.5c-0.3,0-0.6,0-1,0
							c-47.4-0.4-73.5-18-73.5-49.7c0-28.1,25.3-32.1,26.4-32.2v4.9c-0.8,0.1-19,3.1-19,27.3c0,20.3,11.5,44.7,66.3,45.1
							c0.3,0,0.6,0,0.9,0c27,0,42.6-9.8,51.5-19.6c-2.6-6.1-4-13-4-20c0-10.8,3.6-23.5,13.6-23.5c1.6,0,4.7,0.4,7,2.9
							c5.7,6.2,4.8,25.2-8.7,41.1c4.4,9.3,13.5,19.6,32,19.6c19,0,34.1-11,43.4-23.7c-4.3-8.7-6.5-17.8-6.5-24.9
							c0-4.2,0.7-7.7,2.2-10.2c2.6-4.5,7.1-5.2,9.6-5.2c4.4,0,8,1.6,10.2,4.4c1.7,2.2,2.6,5.3,2.6,9.1c0,7.6-3.6,17.6-10.2,27.1
							c6.9,12.7,18.5,23.4,33,23.4c15.3,0,28.3-11.4,36.5-24.4c-2.8-8.1-4.3-16.4-4.3-22.5c0-10.7,3.8-16.1,11.2-16.1
							c2.1,0,5.9,0.5,8,4c1.2,1.8,1.7,4.4,1.7,7.5c0,7.6-3.2,17.9-9.1,27.6c1,2.8,2.2,5.4,3.5,7.9c5.2,9.9,12,16.1,17.7,16.1
							c9.2,0,15-12,15-31.2c0-25.4,16.8-37.3,28.2-37.3c11.2,0,16.5,6.3,17.6,9.4h-7.5c-0.1-0.2-1.9-4.8-10.1-4.8
							c-5.9,0-20.9,9.7-20.9,32.7c0,16.3-3.9,35.8-22.3,35.8c-11.6,0-20.3-9.9-25.9-21.7c-9.3,12-22.8,21.7-39.4,21.7
							c-17.1,0-29.6-10-37.4-22.3c-10.6,12.3-26.6,22.3-46.8,22.3C1452.4,279.6,1440.4,274.2,1432.7,264z M1432.6,248.1
							C1432.6,248.1,1432.6,248.2,1432.6,248.1c2-3,3.4-5.8,4.3-8c5.4-13.2,2.7-23.3,0.3-24.1
							C1433.3,216.8,1427.9,231.2,1432.6,248.1z M1513.3,217.9c-1.2,2-1.8,5-1.8,8.7c0,5.5,1.3,11.7,3.7,17.9
							c4-7.2,6.1-14.3,6.1-19.8c0-3-0.6-5.5-1.9-7.1c-1.4-1.8-2.9-1.8-3.5-1.8C1514.7,215.7,1513.6,217.4,1513.3,217.9z M1591,228.1
							c0,4.1,0.6,8.8,1.7,13.5c2.9-6.6,4.6-13.1,4.6-18.2c0-3.2-0.7-4.9-1.2-5.8c-0.4-0.6-0.9-1.1-1.2-1.1
							C1593.9,216.6,1591,219.3,1591,228.1z"/>
						<rect x="1591.1" y="199.7" class="st1" width="7.5" height="16.2"/>
						<rect x="1512.2" y="199.7" class="st1" width="7.5" height="16.2"/>
						<rect x="1433.3" y="199.7" class="st1" width="7.5" height="16.2"/>
					</g>
					<rect x="1670.1" y="216" class="st1" width="7.5" height="264.3"/>
				</g>
			</g>
			<g>
				<path class="st1" d="M1593.7,395.5l0.8-7c0.5-0.1,0.9-0.1,1.4-0.2l-0.6,3.7l1.9,2l0.7-6.1c2-0.4,3.7-0.9,3.7-0.9l0,0
					c0.7,0,1.3-0.6,1.3-1.4l0,0c0-0.6-0.5-1-1-1.2c0.7-0.1,1.2-0.6,1.2-1.3l0,0c0-0.6-0.5-1-1-1.2c0.6-0.1,1.1-0.6,1.1-1.3l0,0
					c0-0.6-0.5-1.1-1.1-1.2c0.5-0.2,0.9-0.6,0.9-1.2l0,0c0-0.5-0.4-0.9-0.8-1.1l0.1-0.1c0,0-0.2,0-0.4-0.1c-0.1,0-0.1-0.1-0.2-0.1
					h-0.2c-0.5-0.1-1.3-0.2-2.2-0.3l0.1-0.8l2.3,0.3l0.1-1.1l2.6,0.3l0.4-3.5l-2.6-0.3l-0.1,1l0.2-2.2l-16.6-1.9l-4,0.7l-0.1,0.7
					c-0.4,0-6.2-0.7-12.2,4.4c-1.6,1.4-2.8,3.1-3.7,5c-1.9,0-3.6,0.1-4.9,0.2c-2.7,0.2-6.6,0.6-10.1,1.4c-6.8-6.2-20.1-17-23.5-19.2
					c-0.1-0.1-0.3-0.2-0.4-0.3c-1.4-1.9-8.2-4.8-10.8-5.9l2.2-6.5c1-0.5,5.9-6.7,6.8-9.7c1-3.2-0.9-5.9-0.9-5.9s-0.1,0-0.2,0
					c0.1-1.7,0.2-3.3,0.4-3.6c0.3-0.4,2.2-4.2,1.7-8.1l0,0c0-0.1,0-0.1,0-0.2s0-0.2,0-0.3c-0.2-1.8-0.6-3.4-1.4-4.6l0,0
					c0.5-0.4-1.5-5.8-8.2-6.8c-6.6-0.9-15,0.4-18.9,8.9c-9.4,20.4-2,33.7-2,33.7c-0.1,0-0.2,0.1-0.3,0.1c-0.1,0.1-0.2,0.1-0.4,0.2
					c-0.4,0.2-0.9,0.4-1.4,0.6c-0.1,0-0.2,0.1-0.3,0.1c-0.6,0.3-1.2,0.5-1.8,0.8c-0.1,0-0.2,0.1-0.3,0.1c-0.7,0.3-1.4,0.6-2.1,1
					c-0.2,0.1-0.4,0.2-0.6,0.3c-0.2,0.1-0.3,0.2-0.5,0.2c-1.5,0.6-3,1.3-4.3,2c-0.2,0.1-0.3,0.2-0.5,0.2c-0.1,0-0.2,0.1-0.3,0.2
					c-0.3,0.2-0.5,0.3-0.7,0.5c-0.5,0.3-1.1,0.7-1.5,1.1c-0.1,0.1-0.2,0.2-0.3,0.3c-0.4,0.4-0.8,0.7-1,1.2c-0.9,1.4-1.4,3.1-1.3,5.2
					c0,0.3,0.1,0.6,0.1,1.1c0.3,1.9,0.9,5.2,1.7,9.2c0.2,1,0.4,2,0.6,3.1c0.9,4.2,1.9,8.8,2.8,12.8c0.7,3,1.3,5.8,1.8,7.8
					c0.3,1.4,0.6,2.5,0.7,3.1c0.1,0.3,0.1,0.6,0.1,0.7c0.1,0.5-0.1,1.6-0.4,3.1c-0.1,0.7-0.3,1.6-0.4,2.5c-0.1,0.4-0.1,0.9-0.1,1.4
					c-0.1,0.9-0.1,1.9,0,2.9c0,0.5,0.1,1,0.2,1.5c0.2,1.4,0.7,2.9,1.5,4.1c0.3,0.4,0.6,0.8,0.9,1.2c0.5,0.5,1,0.9,1.6,1.3h-0.1v5.8
					c-1.9,3.8-5.7,11.8-5.9,17.3c-0.3,6.1,0.3,14.5,1.5,29.8s0.6,28.9-0.1,32.5s-3.1,15.3-5.2,28c-0.5,2.9-1.2,6.1-2,9.5
					c-2.1-2.3-4-4.8-6-7.4c-3.4-4.6-7-9.3-11.8-12.3c-1.9-1.2-6-1.4-8.3-1.4v-10.5h-3.3v0.7c0-3.7-2.8-6.6-6.4-6.9v-18.9
					c0-2.2-1.7-4-3.8-4.2l-30.2-2.7c-1.7-0.2-3.3,0.7-4.1,2.3c-1.3,2.6,0.3,5.7,3.2,6.1l18.6,2.4c2.1,0.3,3.7,2.1,3.7,4.2v1.3
					c0,2.3-1.9,4.2-4.2,4.2H1405c-3.3,0-4.6,3.3-5.1,5.3h-21.6c-2.5,0-4.8,1.4-6,3.4c0,0.1-0.1,0.2-0.1,0.2
					c-0.2,0.4-0.4,0.8-0.5,1.3c0,0.1-0.1,0.3-0.1,0.4c-0.1,0.5-0.2,1.1-0.2,1.7l0,0v22.1c0,2.9,1.8,5.4,4.3,6.5
					c0.8,0.4,1.8,0.6,2.7,0.6l0,0h13.3l-17.9,36.6c-1.7,3.5,0.9,7.7,4.8,7.7h55.5c2.1,0,3.5-2.1,2.7-4c-0.2-0.5-0.5-1-0.8-1.4h7.6
					c2.1,0,3.5-2.1,2.7-4c-1.2-2.8-3.9-4.6-6.9-4.6h-41.3c-1.9,0-3.2-2-2.4-3.8l12.8-26.4h19.1v5h4v3.1l-0.7,0.9
					c-0.3-0.1-0.6-0.2-1-0.2c-1.7,0-3,1.4-3,3c0,1.7,1.4,3,3,3c1.7,0,3-1.4,3-3c0-0.5-0.2-1-0.4-1.4l0.8-1h0.1v7.4h2.2v-7.4h1.9
					v-4.3h4v-5h-0.7c0.8,0,1.5-0.2,2.2-0.4c0.1,0,0.2-0.1,0.3-0.1c0.7-0.3,1.2-0.6,1.8-1c0.1-0.1,0.2-0.2,0.3-0.2
					c0.5-0.5,1-1,1.3-1.6c0.1-0.1,0.1-0.2,0.1-0.3c0.6-1,0.9-2.2,0.9-3.4v0.4h3.3v-10.2c2.5,0,5.8,0.3,7,1.1
					c4.4,2.7,7.7,7.1,11.1,11.7c2.3,3,4.6,6.1,7.2,8.8c-2.1,9.2-3.9,18.9-1.1,24.4c0.2,0.5,0.6,0.8,1.1,1.1
					c-0.8,1.9-1.4,4.3-1.5,5.5c-0.2,2.1,0.9,6.6,2.3,6.6l0,0h-0.4v2l10.4,0.2v-1.6c0.9,0.1,1.8,0.2,2.7,0.4c4,0.7,5.5,3.1,15.9,3.3
					c3,0.1,8.5,0,8.4-1.3c-0.3-6.4-9.9-3.8-13-6.9c-2.6-2.6-4.9-4.5-6.8-5.9c0.7-0.2,1.3-0.6,1.7-1.2c1.8-2.9,3.3-7.9,4.7-14
					c0.3,3.8,1.1,7.1,2.6,9.4c-0.5,1.6-0.9,3.1-0.9,4.1c-0.2,2.1,1.1,6.4,2.4,6.4h-0.4v1.9h10.4v-1.5c0.9,0.1,1.8,0.2,2.7,0.3
					c4.1,0.5,5.6,2.9,16,2.9c3,0,8.4-0.2,8.4-1.4c0-5.4-10-3.5-13.1-6.4c-4.6-4.2-8.3-6.6-10.6-7.8c0.9-0.7,1.4-1.5,1.8-2.4
					c3.4-8.6,4.1-26,4.3-40c6.7-17.3,11.1-39.2,14.7-57.7c2.4-12,4.6-23.5,7-29.7c1.1,0.6,1.9,1,1.9,1l0,0c0.6,0.5,1.4,0.4,1.9-0.1
					l0,0c0.4-0.5,0.3-1.1,0-1.6c0.6,0.4,1.3,0.4,1.8-0.2l0,0c0.4-0.5,0.3-1.1,0-1.6c0.5,0.3,1.2,0.3,1.7-0.2l0,0
					c0.4-0.5,0.3-1.1,0-1.6c0.5,0.2,1.1,0.1,1.4-0.3l0,0c0.3-0.4,0.3-0.9,0.1-1.4h0.1c0,0-0.1-0.1-0.3-0.3c0,0,0-0.1-0.1-0.1
					l-0.1-0.1c-0.3-0.4-0.7-0.9-1.2-1.4c11-10.1,11.7-23.5,12.2-34.5c0-0.9,0.1-1.7,0.1-2.6c4-0.9,7.5-1.8,10.5-2.7v0.2l10.8-3.2
					c0.3,0.1,1.1,0.3,2.2,0.5l-0.8,6.7c-0.2,1.4,0.9,2.7,2.3,2.9C1592.3,398,1593.6,397,1593.7,395.5z M1597.8,376.5
					c-0.6-0.1-1.3-0.2-1.9-0.2l0.1-0.8l1.9,0.2L1597.8,376.5z M1515.2,355.2c0-0.1,0-0.3-0.1-0.6l0.2,0.5L1515.2,355.2
					C1515.3,355.2,1515.2,355.2,1515.2,355.2z M1536.9,468.1c-3.2,16.2-6.9,35.1-12.3,51.1c0-6.4,0-11.4,0.2-13.3
					c0.4-3.9,3.6-30.5,4.5-52.2c0.3-6-0.3-18.8-0.4-24.1l0.2-2l7.8,3.2c0.5,0.8,1.8,2.6,3.4,4.2c0.9,0.9,2.4,1.8,3.8,2.7
					C1541.8,443.5,1539.7,453.6,1536.9,468.1z M1563.2,396c-0.5,11.1-1.1,23.5-11.3,32.8c-1.1-1.3-2.2-2.4-2.8-2.8
					c-0.9-0.6-4.2-1.7-6.9-2.6l0,0l-8.9-6.6l0,0c-0.7-0.5-1.3-1.1-2.1-1.6c-0.2-3.2-0.5-6.8-0.3-9.4c0.6-7.2,0.2-15.2,0.6-19.6
					c5.1,3,10.1,5.8,13.3,7.5c2.9,2,6.6,2.3,7.9,2.2c3.8-0.5,7.3-1.1,10.6-1.8C1563.3,394.7,1563.2,395.4,1563.2,396z M1568.6,379.3
					c0.7-1.2,1.5-2.3,2.5-3.2c5.2-4.4,10.1-3.9,10.3-3.8l0.2-1.1l-0.2,1.5l3.7,1.6l5.7,0.6l-0.2,1.9c-1.2,0.3-2.5,0.6-3.2,0.7
					c-1,0.1-1.9,1-2.6,2l-10.3-0.2v0.1C1572.5,379.4,1570.5,379.3,1568.6,379.3z"/>
				<path class="st1" d="M1604.5,374.8L1604.5,374.8l-0.2,1.9l3.4,0.4l6.6,5.5c0,0,0.3-1.2,0.2-1.6c-0.5-1.7-3.8-4.7-5.5-6.2
					l0.2-1.4c1.9-1.1,5.8-3.3,6.7-4.8c0.2-0.3,0.2-1.6,0.2-1.6l-7.7,3.9l-3.4-0.4l-0.3,2.2L1604.5,374.8z"/>
				<path class="st1" d="M1883.8,425.6c18.1-1.6,17.7-10.1,17.7-11c0-0.4,0-1.7-0.8-3.3l0,0l0,0c-0.2-0.4-0.5-0.9-0.8-1.4
					c-0.1-0.1-0.1-0.1-0.1-0.2c-0.3-0.4-0.7-0.9-1.2-1.3c-0.1-0.2-0.3-0.3-0.4-0.4c-0.4-0.4-1-0.8-1.5-1.2c-0.3-0.2-0.5-0.4-0.7-0.6
					c-0.9-0.6-1.8-1.2-3-1.8c-10.6-5.4-19.7-0.2-20.9,1.6c-1.3,1.8-0.4,5.4-1.7,7.8c-1,2-3.2,2.6-4,2.8
					c-8.3-17.6-17.3-51.7-30.8-62.2c-10.2-7.9-36.8-9.6-49.3-10.6c-10-0.8-24.2-1.2-40.5-1.5l0,0l0,0l0,0l0,0
					c-16.2,0.2-30.5,0.7-40.5,1.5c-12.5,1-39.2,2.7-49.3,10.6c-13.5,10.4-22.4,44.1-30.6,61.8c-1-0.4-2.2-1.1-2.9-2.5
					c-1.3-2.5-0.4-6.1-1.7-7.8c-1.3-1.8-10.3-7-20.9-1.6c-1.1,0.6-2.1,1.2-3,1.8c-0.3,0.2-0.5,0.4-0.8,0.6c-0.5,0.4-1,0.8-1.5,1.2
					c-0.2,0.2-0.3,0.3-0.4,0.5c-0.4,0.4-0.8,0.9-1.1,1.3c-0.1,0.1-0.1,0.1-0.1,0.2c-1.6,2.4-1.6,4.2-1.6,4.8c0,0.9-0.4,9.4,17.7,11
					c4.7,0.4,8.5,0.1,11.1-0.3c-6.7,9.7-17.6,22.6-19.5,32.2c-0.5,1-0.9,2.3-1,4c0,0.5,0.2,0.9,0.5,1.3c0,0.3,0,0.6-0.1,1l0,0
					c0,0,0,0.1,0,0.3c-0.6,11.6-0.6,27.8,0.1,43.5h-0.5v80.7h41v-25.9c26.6,0.9,65.7,0.7,105.2,0c39.5,0.7,78.6,0.9,105.2,0v25.9h41
					v-80.7h-0.6c0.7-15.9,0.7-32.2,0.1-43.8v-0.1l0,0c0-0.3,0-0.7-0.1-1c0.3-0.4,0.5-0.8,0.5-1.3c-0.1-1.6-0.5-2.9-1-3.9
					c-1.9-9.7-13-22.8-19.7-32.5C1873.6,425.5,1878,426.1,1883.8,425.6z"/>
			</g>
			<path class="st1" d="M673.1,569.2L673.1,569.2c1.4-0.4,1.4-5.3,0.7-7.4c-0.3-0.8-0.9-2-1.7-3.2c1.2-0.7,2-1.3,2-1.3
				s-7.1-25.8-9.7-36.6c-2.5-10.3-11.3-24.3-12.9-27.9c-1.6-3.6-1.2-7.2-3.5-23.8c-1-7.3-1.5-15.7-2-23.3c1.3-6.5,2.2-11.6,2.4-15.2
				c0.5-6.7-1.5-14.5-2.3-17.2l-0.6-4.7c2.2-0.6-0.2-5.1-0.5-6.3c-3.9-14.7-8.2-26.5-8.2-26.5v0.3c-0.1-0.5-0.1-0.9-0.1-1.3
				c0.2-5.2-5.4-33-6.5-36.5c-0.9-2.7-3-4.7-5.4-6.2l0,0h-0.1c-1.4-0.8-2.8-1.5-4.2-2c-0.9-0.4-1.8-0.7-2.3-0.8l0,0
				c-0.6-0.2-1.1-0.3-1.5-0.4c-0.6-0.2-1.1-0.5-1.5-0.7l0.5-0.7l-4.1-2.8c-0.5-1.1-1.2-2.5-1.9-4.1l-1-2.7c1.8-0.8,4.4-8.1,3.3-15.4
				c0-0.1,0-0.2,0-0.3c-0.2-1.2-0.5-2.5-0.9-3.7l0,0c0,0-3.4-13.3-17.8-11.6c-11.8,1.4-13.7,11.5-14,15l0,0c0,0-10.6,5.2-10.3,5.6
				c0.3,0.5,1.4-0.5,2.3-0.2c0.9,0.3,2.7,1.5,3.1,1.7c0.1,0.1,3.1-0.7,7-1.7c0.5,1.2,1,2,1.1,2.2c0.4,0.6,0.9,7.7,1.3,8.8
				c0.2,0.7,1.4,1,1.8,0.9c0.4-0.1,3.7,9,5.1,9.1c0.5,0,1.3-0.1,2.3-0.4c0.8,3.3,1.6,6.5,1.9,8.1l-0.4-0.6l-2,3.9l0,0
				c-0.6,0.6-1.3,1.1-1.9,1.8l0,0l0,0c-0.8,0.7-1.5,1.5-2.2,2.2c-1.6,0.6-2.7,0.9-2.7,0.9s-0.1,0.6-0.2,1.6
				c-2.8,1.2-5.2,2.3-7.2,3.3c-4.7-1.4-11-1.8-15.1-2c-1.4-0.1-3.3-0.1-5.5-0.1c-1.8-1.9-3.5-3.8-4.1-4.9c-1.5-2.5-5.5-4.1-9.5-9.3
				c-0.5-0.7-1.4-0.5-1.5,0.8c-1.3-1.4-2.6-2.8-3.9-3.8c-11.1-8.6-40.1-10.5-53.8-11.6c-10.9-0.9-26.4-1.4-44.1-1.6l0,0l0,0l0,0l0,0
				c-17.7,0.3-33.3,0.7-44.1,1.6c-9.1,0.7-25.1,1.8-38,5c-1,0.1-2,0.1-2.9,0.2c-1.5,0.1-2.9,0.2-4.3,0.3c-0.6,0-1.1,0.1-1.6,0.1
				c-0.3,0-0.7,0-1,0.1c-0.6,0-1.2,0.1-1.7,0.1c-0.2,0-0.4,0-0.6,0c-0.4,0-0.8,0.1-1.2,0.1c-3.3,0.2-5.9,0.4-7.7,0.5l0,0h-0.1
				c-1.3,0.1-2.5,0.9-3.1,2.1L323,350.3c-6.7,1.2-14.5,2.6-18.3,3.5c-3.3,0.7-8,1.8-12,3.4c-0.8-0.7-1.8-1.4-2.8-2.2
				c0.3-2.2,0.5-4.7,0.1-6.4c-0.2-0.8-1.2-2.1-2.5-3.5c-0.1-0.1-0.1-0.2-0.2-0.3c-0.1-0.1-0.1-0.1-0.2-0.2c-0.8-0.9-1.7-1.8-2.6-2.6
				l0,0l0,0c-0.7-0.6-1.3-1.2-1.9-1.8l0,0l-2-3.9l-0.4,0.6c0.4-1.9,1.4-6.1,2.4-9.9l0,0l0,0c0,0,0,0,0-0.1c1.5,0.2,2.8,0.3,3.4,0.1
				c1.3-0.4,2.7-10,3.1-10c0.4,0.1,1.5-0.5,1.6-1.3c0.1-1.1-0.9-8.1-0.6-8.8c0.1-0.2,0.4-1.2,0.7-2.5c4.3,0.2,7.5,0.3,7.6,0.2
				c0.4-0.3,2-1.9,2.7-2.4c0.8-0.5,2.1,0.3,2.3-0.3c0.2-0.5-11.5-3.5-11.5-3.5l0,0c-1.1-3.5-5.3-13.2-17.4-12.1
				c-14.7,1.3-15,15.4-15,15.4s0.1,0.1,0.4,0.2c-0.2,1.2-0.2,2.5-0.1,3.7c0,0.1,0,0.2,0,0.2c0.5,6.8,4,13.1,6,14.2l-0.4,1.1
				c-0.7,1.5-1.3,2.9-1.9,4.1l-4.1,2.8l0.5,0.7c-0.5,0.2-1,0.4-1.5,0.7c-0.4,0.1-0.9,0.2-1.5,0.4l0,0c-0.6,0.1-1.4,0.4-2.3,0.8
				c-1.4,0.5-2.8,1.2-4.2,2h-0.1l0,0c-2.4,1.5-4.5,3.5-5.4,6.2c-1.2,3.5-6.7,31.3-6.5,36.5c0,0.3,0,0.8-0.1,1.3v-0.3
				c0,0-4.3,11.8-8.2,26.5c-0.3,1.2-2.6,5.7-0.5,6.3l-0.5,3.8c-1.3,3.4-3.4,9.6-3.6,15.1c-0.3,6.6,0.9,18.9,2.2,35.6
				s0.6,32.2-0.1,36c-0.8,3.9-6.4,20.2-7,30.8c-0.6,12.4-3.3,41-3.3,41s1.3,0.5,3.3,1.1c-0.5,1.3-0.9,2.5-1.1,3.3
				c-0.5,2.3,0.3,7.3,1.7,7.5l-0.4-0.1l-0.3,2.2l11.3,1.4l0.2-1.7c1,0.2,2,0.4,2.9,0.7c4.3,1.1,5.7,4,16.9,5.3
				c3.3,0.4,9.2,0.9,9.3-0.5c0.3-5.2-5.5-5.5-9.8-6.9h5.5V582c1,0.1,2,0.2,2.9,0.3c4.4,0.6,6.1,3.1,17.4,3.1c2.3,0,5.8-0.1,7.7-0.6
				h40.9v-28.3c29,1,71.6,0.8,114.7,0.1c43.1,0.7,85.8,1,114.7-0.1v28.3H595c-0.6,0.7-1,1.5-1.1,2.7c-0.1,1.4,5.8,1.6,9.2,1.6
				c11.3,0,13-2.6,17.4-3.3c0.9-0.1,1.9-0.2,2.9-0.3v1.7h11.4V585h-0.4l0,0c0.6,0,1.2-0.9,1.7-2.1c1.9,0.1,5.6-0.8,7.9-1.5
				c10.9-3,11.8-6,15.9-7.7c0.9-0.4,1.8-0.7,2.7-1.1l0.5,1.6l10.9-3.1l-0.6-2L673.1,569.2z M575.1,394.6c-0.7,1.4-2,2.2-3.1,2.7
				c-4.3-9.3-8.8-22.6-14-35.2c1,0.2,2,0.4,3,0.6c4.9,5.3,13.1,14.1,17,17.6c1,0.9,2.2,1.9,3.4,2.9c-2.4,1-4,2.1-4.5,2.9
				C575.6,388,576.5,391.9,575.1,394.6z M312.3,385.6h1.8c-0.3,0.8-0.6,1.5-0.9,2.3l0,0c-0.3,0-1.8,1.5-2.9,2.5
				c0.2-0.9,0.3-1.6,0.5-1.9C311.1,387.4,311.7,386.5,312.3,385.6z M308.9,397.2c0.4-0.3,0.7-0.8,1-1.2c-0.3,0.6-0.5,1.2-0.8,1.8
				c-0.2,0-0.4-0.1-0.6-0.2C308.6,397.4,308.7,397.3,308.9,397.2z M586.8,362.9c0.1,0.4,0.3,0.8,0.4,1.3c0.1,0.2,0.1,0.4,0.1,0.4
				s0.2,0.8,0.6,1.6c0.2,0.5,0.3,0.9,0.5,1.4c-2-1.4-3.9-2.7-5.8-3.9C583.8,363.5,585.2,363.2,586.8,362.9z M550.6,346
				c-0.5-0.8-0.9-1.7-1.4-2.5C549.8,344.2,550.3,345.1,550.6,346z M315.2,366.5l-6.6,13.8c-0.5,1.1-0.4,2.2,0,3.2
				c-0.9,1.1-3,3.1-5,4.9c-0.1-0.9-0.3-1.7-0.7-2.3c-1.2-1.8-9.3-6.4-19.2-3.2c-0.8-0.3-1.5-0.5-2.3-0.8c0.5-1.4,1.1-2.8,1.6-4.1
				c0.1-0.3,0.3-0.5,0.4-0.8c0.9-2.1,1.8-4.3,2.6-6.4c2.7,1.3,4.6,2.1,5.1,2.2c0.3,0,0.4,0,0.7,0c1.9,0.3,4.2,0.1,6.8-0.6
				C304.4,370.6,310.1,368.6,315.2,366.5z M240.3,573.9L240.3,573.9c0,0,1.2-8.9,2.9-20.4c0.6,7.8,1.1,14.9,1.2,16.4
				c-0.6,1.8-1,3.6-1.1,4.7c-0.1,0.6,0,1.5,0.2,2.4C242.4,575.9,241.3,574.8,240.3,573.9z M272.1,577c-4.4-4.1-8.1-6.6-10.6-8.1
				c0.5-0.5,0.8-0.8,0.8-0.8s4.4-61.8,5.1-68.3c0.4-4.2,3.9-33.3,5-57.1c0.3-6.6-0.3-20.6-0.5-26.4l0.7-6.3c1.4-0.8,1.4-3.8,1.9-7.4
				c2.7,2.2,7.4,4.2,15.6,4.9c6.3,0.6,11.1-0.1,13.8-0.7c-7.3,10.7-19.4,24.9-21.4,35.5c-0.5,1.1-0.9,2.4-1.1,4.2
				c0,0.5,0.2,1,0.5,1.4c0,0.4,0,0.7-0.1,1.1l0,0v0.1c-0.7,12.7-0.6,30.4,0.1,47.7h-0.6v82.7C277.9,578.9,273.9,578.7,272.1,577z
				 M600.1,582.5v-85.7h-0.6c0.7-17.2,0.8-34.8,0.1-47.5c0-0.2,0-0.3,0-0.3l0,0c0-0.4,0-0.7-0.1-1.1c0.4-0.4,0.6-0.9,0.5-1.4
				c-0.2-1.8-0.6-3.2-1.1-4.3c-2.1-10.5-13.9-24.5-21.2-35.1c2.8,0.4,7,0.8,12.1,0.4c4.9-0.4,8.6-1.3,11.3-2.4
				c0.2,2.1,0.5,3.6,1.5,4.2l0.7,6.3c0,0,0.1,0,0.2,0c0.9,3.1,3.9,16.5,6.3,24.4c1.4,21,0.2,51.3,3.5,61.2
				c2.1,6.2,3.3,72.2,3.3,72.2l0,0c-2.3,1.6-5.1,3.8-8.3,6.9C606.6,582,603.2,582,600.1,582.5z M637,577.8c-0.1-0.8-0.3-2-0.7-3.3
				c2-0.4,3.4-0.7,3.4-0.7s0.7-28.7,1.5-41.1c0.1-1.4,0.1-2.9,0.1-4.5c5.3,16.6,10.5,33.3,10.5,33.3s0.8,0.3,2,0.6
				c-1.9,2.1-4.4,5.2-7.1,9.6C645.1,574.4,640.1,575.7,637,577.8z"/>
		</g>
		<ellipse class="st2" cx="961.5" cy="770.7" rx="958.5" ry="77.7"/>
		<g>
			<g>
				<path class="st3" d="M1714.5,476.8c3.1-9.5-17-14.3-26.9-16.1s-39.3-4.3-39.3-4.3l-2.6,10.6c0,0,24.1,12.1,51.2,18.7
					C1699.7,486.3,1711.3,486.4,1714.5,476.8z"/>
				<path class="st4" d="M1649.6,456.4l-14.6-0.7c0,0-5.3,6.3-5.8,8s0.3,9.3,0.4,10.4s0.8,2.5,1.4,2.3c0.5-0.1,1.1-4.3,5.8-5.8
					c4.7-1.4,8.6-2,11.1-3.7C1653.4,463.2,1649.6,456.4,1649.6,456.4z"/>
				<g>
					<path class="st5" d="M1633.9,459.7l0.2,20.5h2.9v-1c0,0-0.4-0.2-0.7-1c-0.3-0.8,0.7-2.3,0.7-3s-0.1-13.1-0.2-13.8
						C1636.8,460.6,1635.9,459.7,1633.9,459.7z"/>
					<path class="st5" d="M1630.9,461.4c0,0.8,0.1,13.1,0.2,13.8c0,0.7,1,2.1,0.7,2.9s-0.7,1-0.7,1v1h2.9l-0.2-20.5
						C1631.9,459.7,1630.9,460.7,1630.9,461.4z"/>
					<polygon class="st6" points="1634.3,498.7 1635,498.7 1634.8,480.2 1634.1,480.2 					"/>
					
						<rect x="1633.3" y="480.2" transform="matrix(0.9999 -1.106562e-02 1.106562e-02 0.9999 -5.3158 18.1072)" class="st7" width="0.6" height="18.5"/>
					<polygon class="st6" points="1634.3,500.2 1635.1,500.2 1635.6,496.4 1634.3,494.9 					"/>
					<polygon class="st7" points="1633.6,500.2 1634.3,500.2 1634.3,494.9 1633,496.5 					"/>
					<path class="st8" d="M1635.8,461.1c-0.3,0-0.5,0.2-0.5,0.5l0.1,12.7c0,0.3,0.2,0.5,0.5,0.5s0.5-0.2,0.5-0.5l-0.1-12.7
						C1636.3,461.4,1636,461.1,1635.8,461.1z"/>
					<path class="st8" d="M1633.9,461.2c-0.3,0-0.5,0.2-0.5,0.5l0.1,12.7c0,0.3,0.2,0.5,0.5,0.5s0.5-0.2,0.5-0.5l-0.1-12.7
						C1634.4,461.4,1634.2,461.2,1633.9,461.2z"/>
					<path class="st8" d="M1632,461.2c-0.3,0-0.5,0.2-0.5,0.5l0.1,12.7c0,0.3,0.2,0.5,0.5,0.5s0.5-0.2,0.5-0.5l-0.1-12.7
						C1632.5,461.4,1632.3,461.2,1632,461.2z"/>
				</g>
				<path class="st4" d="M1642.8,459.6c0,0-6.8,2.6-6.9,4s-2,8.9-2.3,9.7c-0.2,0.8-0.6,2,2,0.6c2.5-1.3,3.1-4.9,4.1-5
					s5.2,1.3,8.4-0.7c3.2-2,3.2-4.9,3.1-6.1C1650.9,461,1644.8,457.5,1642.8,459.6z"/>
				<polygon class="st4" points="1648.1,468.3 1663.6,474.9 1668.1,458.2 1648.9,456.4 				"/>
			</g>
			<g>
				<rect x="1574.8" y="603.4" class="st9" width="20.9" height="18.8"/>
				<rect x="1654.8" y="603.4" class="st9" width="20.9" height="18.8"/>
				<rect x="1561.8" y="622.3" class="st10" width="117.7" height="8.7"/>
				<polygon class="st11" points="1566,631 1566,695.9 1603.5,695.9 1672.6,631 				"/>
				<rect x="1566" y="714.4" class="st9" width="53.3" height="56.5"/>
				<rect x="1566" y="695.9" class="st10" width="32" height="18.6"/>
				<polygon class="st12" points="1574.8,603.4 1595.7,603.4 1595.7,610.6 1582,622.3 1574.8,622.3 				"/>
				<polygon class="st12" points="1654.8,603.4 1675.7,603.4 1675.7,610.6 1661.9,622.3 1654.8,622.3 				"/>
				<polygon class="st13" points="1672.6,631 1566,631 1566,641.2 1661.7,641.2 				"/>
				<polygon class="st14" points="1598,695.9 1566,695.9 1566,714.4 1573,714.4 				"/>
				<rect x="1553.2" y="770.9" class="st15" width="98" height="4.3"/>
				<rect x="1561.1" y="598.8" class="st15" width="126.9" height="4.6"/>
			</g>
			<g>
				<path class="st11" d="M1678.4,598.8h-105.7c-3.7,0-6.8-3-6.8-6.8l0,0h119.3l0,0C1685.2,595.8,1682.2,598.8,1678.4,598.8z"/>
				<path class="st16" d="M1688.2,592h-129.6v-72.9c0-4.2,3.4-7.5,7.5-7.5h114.5c4.2,0,7.5,3.4,7.5,7.5L1688.2,592L1688.2,592z"/>
				<path class="st11" d="M1560.8,592h127.4v-49.1h-133.8v42.7C1554.3,589.2,1557.2,592,1560.8,592z"/>
				<rect x="1628.2" y="495.7" class="st4" width="43.7" height="15.8"/>
				<path class="st9" d="M1659.7,523.9h15c1,0,1.9-0.9,1.9-1.9l0,0c0-1-0.9-1.9-1.9-1.9h-15c-1,0-1.9,0.9-1.9,1.9l0,0
					C1657.8,523.1,1658.6,523.9,1659.7,523.9z"/>
				<path class="st9" d="M1633.7,523.9h15c1,0,1.9-0.9,1.9-1.9l0,0c0-1-0.9-1.9-1.9-1.9h-15c-1,0-1.9,0.9-1.9,1.9l0,0
					C1631.8,523.1,1632.6,523.9,1633.7,523.9z"/>
				<path class="st9" d="M1607.7,523.9h15c1,0,1.9-0.9,1.9-1.9l0,0c0-1-0.9-1.9-1.9-1.9h-15c-1,0-1.9,0.9-1.9,1.9l0,0
					C1605.8,523.1,1606.6,523.9,1607.7,523.9z"/>
				<path class="st9" d="M1581.7,523.9h15c1,0,1.9-0.9,1.9-1.9l0,0c0-1-0.9-1.9-1.9-1.9h-15c-1,0-1.9,0.9-1.9,1.9l0,0
					C1579.8,523.1,1580.6,523.9,1581.7,523.9z"/>
				<rect x="1558.6" y="533.1" class="st10" width="129.6" height="9.9"/>
				<path class="st15" d="M1688.2,576.3h-133.8v9.1c0,3.6,3,6.6,6.6,6.6h127.2L1688.2,576.3L1688.2,576.3z"/>
				<rect x="1554.3" y="544.7" class="st9" width="133.8" height="7.1"/>
				<path class="st10" d="M1651.4,543.8c0,5.2-4.2,9.4-9.4,9.4c-5.2,0-9.4-4.2-9.4-9.4s4.2-9.4,9.4-9.4
					C1647.2,534.4,1651.4,538.6,1651.4,543.8z"/>
				<path class="st10" d="M1676.3,543.8c0,5.2-4.2,9.4-9.4,9.4c-5.2,0-9.4-4.2-9.4-9.4s4.2-9.4,9.4-9.4
					C1672.1,534.4,1676.3,538.6,1676.3,543.8z"/>
				<path class="st16" d="M1666.9,604.8L1666.9,604.8c4.2,0,7.7-3.5,7.7-7.7v-53.6c0-4.2-3.5-7.7-7.7-7.7l0,0
					c-4.2,0-7.7,3.5-7.7,7.7v53.6C1659.3,601.4,1662.7,604.8,1666.9,604.8z"/>
				<path class="st16" d="M1642,604.8L1642,604.8c4.2,0,7.7-3.5,7.7-7.7v-53.6c0-4.2-3.5-7.7-7.7-7.7l0,0c-4.2,0-7.7,3.5-7.7,7.7
					v53.6C1634.4,601.4,1637.8,604.8,1642,604.8z"/>
				<path class="st10" d="M1601.6,543.8c0,5.2-4.2,9.4-9.4,9.4c-5.2,0-9.4-4.2-9.4-9.4s4.2-9.4,9.4-9.4
					C1597.4,534.4,1601.6,538.6,1601.6,543.8z"/>
				<path class="st10" d="M1626.5,543.8c0,5.2-4.2,9.4-9.4,9.4c-5.2,0-9.4-4.2-9.4-9.4s4.2-9.4,9.4-9.4
					C1622.3,534.4,1626.5,538.6,1626.5,543.8z"/>
				<path class="st16" d="M1617.1,604.8L1617.1,604.8c4.2,0,7.7-3.5,7.7-7.7v-53.6c0-4.2-3.5-7.7-7.7-7.7l0,0
					c-4.2,0-7.7,3.5-7.7,7.7v53.6C1609.5,601.4,1612.9,604.8,1617.1,604.8z"/>
				<path class="st16" d="M1592.2,604.8L1592.2,604.8c4.2,0,7.7-3.5,7.7-7.7v-53.6c0-4.2-3.5-7.7-7.7-7.7l0,0
					c-4.2,0-7.7,3.5-7.7,7.7v53.6C1584.5,601.4,1588,604.8,1592.2,604.8z"/>
				<rect x="1561.8" y="516.2" class="st10" width="123.4" height="1.4"/>
				<path class="st9" d="M1671.3,500.2h-42c-3.9,0-7-3.1-7-7v-1.8h56v1.8C1678.3,497.1,1675.2,500.2,1671.3,500.2z"/>
				<path class="st17" d="M1643.3,600.5h0.6c1.9,0,3.4-1.5,3.4-3.4v-51.2c0-1.9-1.5-3.4-3.4-3.4h-0.6c-1.9,0-3.4,1.5-3.4,3.4v51.2
					C1640,598.9,1641.5,600.5,1643.3,600.5z"/>
				<path class="st17" d="M1668.6,600.5h0.6c1.9,0,3.4-1.5,3.4-3.4v-51.2c0-1.9-1.5-3.4-3.4-3.4h-0.6c-1.9,0-3.4,1.5-3.4,3.4v51.2
					C1665.2,598.9,1666.8,600.5,1668.6,600.5z"/>
				<path class="st17" d="M1619.4,600.5h0.6c1.9,0,3.4-1.5,3.4-3.4v-51.2c0-1.9-1.5-3.4-3.4-3.4h-0.6c-1.9,0-3.4,1.5-3.4,3.4v51.2
					C1616,598.9,1617.5,600.5,1619.4,600.5z"/>
				<path class="st17" d="M1594,600.5h0.6c1.9,0,3.4-1.5,3.4-3.4v-51.2c0-1.9-1.5-3.4-3.4-3.4h-0.6c-1.9,0-3.4,1.5-3.4,3.4v51.2
					C1590.6,598.9,1592.1,600.5,1594,600.5z"/>
				<rect x="1542.6" y="549.1" class="st15" width="9.5" height="41"/>
				<rect x="1552.1" y="554.4" class="st15" width="2.2" height="31.2"/>
			</g>
			<g>
				<path class="st3" d="M1759.2,438.2c6.9,6.2,3.8,13.7-2.7,20.1s-46.5,32-49.4,31.6c-2.9-0.3-11.6-10.5-9.9-14.3
					c1.7-3.9,32.3-30.8,38.6-35.1C1742.1,436.1,1751.2,430.9,1759.2,438.2z"/>
				<path class="st4" d="M1751.3,437.4c-3.5-0.5-17.9,2.4-22.7,7.1c-6.8,6.6-20.7,18.3-20.7,18.3s1.7,7,7.5,13.1
					c6.7,7.1,13.4,8.6,13.4,8.6s28.8-24.6,31.5-31.9C1761.1,450.5,1761,438.8,1751.3,437.4z"/>
				<path class="st18" d="M1770,402.4c0,0,1.2,26.6,2.7,27.9c4.8,4,22.3,7.4,25.6,14.4c4,8.5-17.8,46.5-20.6,59
					c-2.8,12.6,3,32,4.9,44.4c1.9,12.3-36.9,27.2-38.3,27.2s-13.9-11.7-16.3-15.7s0-35.6,0-43.7c0-8.1-1.9-36.3-2.2-38.2
					c-2.4-12.3,0.8-22.1,1.2-24.7c0.5-2.6,0.3-7,1.6-8.6c2.6-3.3,17.1-7.7,17.3-9.4c0.2-1.7,2.2-24.8,2.2-24.8L1770,402.4z"/>
				<path class="st16" d="M1772.7,430.3l-23.4,13.9l-3.3-9.1c0,0-15.4,6-17.3,9.4c-2,3.3-2.9,10.5-3.6,13.2s-1,15,0,25.7
					c0.6,6.3,0.5,14.5,1.4,25.2c0.8,9.1-0.2,31.8-0.2,31.8s8.7,0.4,22.2-0.3c15.6-0.8,31.4-3.1,32.1-3.7c3-2.5-1.1-26.7-0.6-29.4
					c0.5-2.7,19.8-49.1,20.1-55.1c0.3-6.1-2.8-10.1-7.4-12.4C1788,437.3,1772.7,430.3,1772.7,430.3z"/>
				<path class="st10" d="M1790.3,438.5c0,0,15.2,8.4,0.1,20.1c-6.5,5-37.7,12.8-43.6,14.6c-21,6.4,11.3,52.9,13.8,56.4
					s2.4,8.3,2.4,8.3l16-1.1c6.3,1.2,1-30,3.3-36.5c2.4-6.5,17.6-43.5,17.6-48.4C1800,441.1,1790.3,438.5,1790.3,438.5z"/>
				<polygon class="st3" points="1747.3,420.4 1770.9,411.9 1771.5,425.9 1764.2,430.3 				"/>
				<path class="st18" d="M1738.5,379.1c5.1-6.2,21.8-13.5,31.9-3.3s7.9,22,4.3,29.6c-2.8,5.9-5.9,9.4-12.4,13.5
					c-1.3,0.8-13.8,4.8-16.4,4.3c-1.8-0.4-4.9-12.9-5.4-12.7c-0.5,0.1-2-0.4-2.2-1.5c-0.3-1.5,0.1-10.8-0.4-11.7
					C1737.2,396.2,1732.6,386.2,1738.5,379.1z"/>
				<path class="st19" d="M1735.7,385.2c0,0,9-6.8,22.6,2.5c2.9,2-0.6,12.8,0.2,13.6c0.8,0.9,8.6-8.7,8.4-7.5
					c-1.9,12.2,2.8,18.1,3.9,18c3.3-0.2,11-18.1,4.2-30.7s-21.2-12-24.5-10.8C1747.1,371.5,1736.9,373.7,1735.7,385.2z"/>
				<path class="st18" d="M1761.5,397.2c-0.6,3.9-0.5,9,1.6,9.3s4.3-2.6,4.9-6.4c0.6-3.9-0.6-7.3-2.7-7.6
					C1763.3,392.2,1762.2,393.4,1761.5,397.2z"/>
				<g>
					<rect x="1745.9" y="762.9" class="st15" width="15.1" height="2.8"/>
					<path class="st15" d="M1760.5,743c2,2.8,3.3,8.1,3.5,10.6c0.2,3-1.5,9.3-3.5,9.3c-5.7,0-12.5,0.2-18.4,1s-8.1,4.2-23.2,4.1
						c-4.4,0-12.2-0.3-12.2-2.1c0-7.8,14.5-5,19.1-9.3c11.6-10.7,19.3-13.3,19.3-13.3S1760.1,742.4,1760.5,743z"/>
				</g>
				<g>
					<polygon class="st15" points="1766.2,770.9 1781.3,770 1781.1,767 1766.1,768 					"/>
					<path class="st15" d="M1779.2,746.6c2.2,2.7,3.9,8.2,4.2,10.7c0.4,3.1-0.9,9.6-2.9,9.8c-5.7,0.4-12.5,1-18.3,2.2
						s-7.8,4.8-22.9,5.7c-4.4,0.3-12.3,0.5-12.3-1.4c0-9.4,14.1-6.1,18.4-10.7c10.9-11.8,18.4-14.9,18.4-14.9
						S1778.8,746,1779.2,746.6z"/>
				</g>
				<path class="st20" d="M1753.6,538.6c0,0,19.9,18.5,20.8,27.3s-7.6,36.9-10.6,58.9c-3,22.1-4.9,26.6-4.1,31.8
					c0.7,5.2,7.3,26.4,6.5,40.4c-0.8,14.1-3.7,50.8-3.7,50.8s-4.2,1.9-11.4,2.6s-12.3-5.5-12.3-5.5s-5.8-82.1-6.7-90.8
					c-0.6-5.6-5.2-44.3-6.6-75.8c-0.5-10.2,0.7-33.6,0.7-37.8L1753.6,538.6z"/>
				<path class="st0" d="M1781.8,536.7c0,0,5,13.1,4.9,24c-0.1,8.8-2.7,25-5.7,47.1s-3.3,42.6-2.5,47.8c0.7,5.2,7,27.3,6.9,41.4
					c-0.1,16.5,1.3,54.6,1.3,54.6s-6.6,2.2-13.8,2.8c-7.2,0.7-16.9-1.4-16.9-1.4s-6.9-87.4-10.1-95.5c-5.2-12.9-6-53.6-9.6-81.4
					c-1.5-11.2-4.2-36.2-4.2-36.2L1781.8,536.7z"/>
				<path class="st20" d="M1772.9,534.4l10.2-35.9c0,0,3.5,31.9-0.9,35.2C1777.9,537,1772.9,534.4,1772.9,534.4z"/>
				<polygon class="st10" points="1750.3,438.8 1749.3,444.3 1761.6,437 				"/>
				<polygon class="st17" points="1775.9,431.8 1771.5,425.9 1750.3,438.8 1753.7,446.3 				"/>
				<polygon class="st10" points="1749.3,444.3 1747.4,437.4 1744.4,439.7 				"/>
				<polygon class="st21" points="1747.4,437.4 1742.3,443.2 1741.5,437 1745.8,433 				"/>
				<path class="st20" d="M1726.4,536.7c-7.5-7.8-2-70.2-2-70.2l32.2,2.5l6.8,65.8C1763.4,534.8,1734,544.6,1726.4,536.7z"/>
				<path class="st22" d="M1725.2,534.8l1,8.4c0,0,19.9,1.4,38.6,0c18.8-1.4,18.4-2.7,18.4-2.7l-0.9-6.8c0,0-5.7,0.6-18.9,1.1
					C1750.7,535.3,1725.2,534.8,1725.2,534.8z"/>
				<polygon class="st20" points="1763.4,534.8 1767.9,562.7 1772.9,534.4 				"/>
				<path class="st20" d="M1756.6,469c0.8-6.1,10.3-32,27.9-31.6c1.8,0,5.8,1,5.8,1l-10.1-4.7c0,0-4-1.6-11.9,4.3
					c-8,5.9-17.5,19.6-18.6,30.4C1748.4,479.2,1755.6,476.3,1756.6,469z"/>
				<path class="st20" d="M1724.4,466.5c0,0,1.5-22.2,9.2-25.7c3.3-1.5,4.8-2.4,4.8-2.4s-5.7,10.7-7,19.6s-1.7,15.2-4.6,15.1
					C1723.8,473.1,1724.4,466.5,1724.4,466.5z"/>
				<path class="st18" d="M1793.1,446.9c6.4,6.6,3.1,13.8-3.6,19.6c-6.7,5.8-53,32.2-55.8,31.6s-10.9-11.2-9-14.9
					c1.8-3.7,39-32.1,45.4-35.9C1776.4,443.6,1785.5,439.2,1793.1,446.9z"/>
				<path class="st21" d="M1792.7,442.3c-3.3-1.1-15.6-0.3-21.2,3.4c-7.8,5.3-29.4,17.8-29.4,17.8s0.5,7.2,5.1,14.2
					c5.3,8.1,11.7,10.9,11.7,10.9s32.7-19.1,36.6-25.8C1796.6,460.8,1801.9,445.4,1792.7,442.3z"/>
				<path class="st18" d="M1739.8,490.4c1.6,9.9-19.2,11.4-29.4,11.6c-10.2,0.2-39.9-2.2-39.9-2.2l-0.9-11c0,0,26-8.1,54-10.1
					C1726.5,478.5,1738.2,480.3,1739.8,490.4z"/>
				<g>
					<path class="st16" d="M1651.3,503.5L1651.3,503.5c-0.3-1,0.3-2.1,1.4-2.4l8.1-2.2c1-0.3,2.1,0.3,2.4,1.4l0,0
						c0.3,1-0.4,2.1-1.4,2.4l-8.1,2.2C1652.6,505.2,1651.5,504.5,1651.3,503.5z"/>
					<path class="st16" d="M1650,500.1L1650,500.1c-0.3-1,0.3-2.1,1.4-2.4l8.1-2.2c1-0.3,2.1,0.3,2.4,1.4l0,0c0.3,1-0.4,2.1-1.4,2.4
						l-8.1,2.2C1651.3,501.7,1650.3,501.1,1650,500.1z"/>
					<path class="st16" d="M1648.9,496.6L1648.9,496.6c-0.3-1,0.3-2.1,1.4-2.4l8.1-2.2c1-0.3,2.1,0.3,2.4,1.4l0,0
						c0.3,1-0.4,2.1-1.4,2.4l-8.1,2.2C1650.3,498.3,1649.2,497.7,1648.9,496.6z"/>
					<path class="st16" d="M1648.2,493.2L1648.2,493.2c-0.3-1,0.3-2.1,1.4-2.4l8.1-2.2c1-0.3,2.1,0.3,2.4,1.4l0,0
						c0.3,1-0.4,2.1-1.4,2.4l-8.1,2.2C1649.6,494.9,1648.5,494.3,1648.2,493.2z"/>
					<path class="st16" d="M1677.3,488.1c0,0-13.6-2.2-16.3-1.8c-2.7,0.4-12.1,5-12.1,5s4,2.6,4.3,5s0.5,8.6,0.5,8.6s9.1,0,13.2-1.4
						c4-1.3,7.7-3.6,7.7-3.6L1677.3,488.1z"/>
				</g>
				<polygon class="st16" points="1671.7,487.3 1687.5,484.3 1688.2,501.1 1673.1,500.2 				"/>
				<path class="st20" d="M1776.4,383.6c0,0-4.3-17.9-23.2-15.5c-18.9,2.4-18.6,22-18.6,22s10.4,0.8,24.4-1
					C1773.1,387.4,1776.4,383.6,1776.4,383.6z"/>
				<path class="st0" d="M1765.2,388.2c0,0-36.4,10.2-36.9,9.9c-0.5-0.3-3-1.9-4.1-2.3s-2.6,0.9-3,0.3s13.5-7.7,13.5-7.7
					s7.9,0.8,11.8,1.1C1750.4,389.9,1765,386.9,1765.2,388.2z"/>
			</g>
		</g>
		<g>
			<g>
				<path class="st3" d="M413.9,432.3c8,5.9,5.5,14.2-0.8,21.7c-6.3,7.4-46.3,38.9-49.4,38.8s-13.4-10-12-14.3s31.3-36.2,37.6-41.4
					C395.4,431.8,404.6,425.4,413.9,432.3z"/>
				<path class="st4" d="M407.8,429.3c-3.8-0.2-18.9,4.4-23.5,9.9c-6.5,7.8-20.2,21.6-20.2,21.6s2.6,7.3,9.3,13.1
					c7.9,6.8,15.2,7.8,15.2,7.8s28.1-29.2,30.3-37.2C419.6,442.2,418.3,429.8,407.8,429.3z"/>
				<path class="st18" d="M430.2,393.3c0,0,1.2,28.5,2.9,29.9c5.2,4.3,23.9,7.9,27.4,15.4c4.2,9.1-19.1,49.8-22.1,63.2
					c-3,13.5,3.3,34.3,5.3,47.5s-39.5,29.2-41,29.2s-14.9-12.5-17.4-16.8s0-38.2,0-46.8c0-8.6-2-38.9-2.4-40.9
					c-2.6-13.2,0.8-23.6,1.3-26.4s0.4-7.5,1.8-9.3c2.8-3.6,18.3-8.2,18.6-10c0.3-1.8,2.4-26.5,2.4-26.5L430.2,393.3z"/>
				<path class="st16" d="M433.1,423.2l-25,14.9l-3.6-9.8c0,0-16.4,6.5-18.6,10c-2.1,3.6-3.1,11.3-3.9,14.1
					c-0.7,2.9-1.1,16.1,0,27.5c0.7,6.7,0.5,15.6,1.5,27c0.9,9.8-0.2,34.1-0.2,34.1s9.3,0.4,23.8-0.3c16.7-0.8,33.6-3.4,34.4-4
					c3.2-2.6-1.2-28.6-0.6-31.5s21.2-52.5,21.5-59s-3-10.8-7.9-13.3C449.6,430.6,433.1,423.2,433.1,423.2z"/>
				<path class="st10" d="M452,431.8c0,0,16.3,9,0.1,21.5c-7,5.4-40.4,13.8-46.7,15.7c-22.5,6.8,12.1,56.7,14.8,60.5
					c2.7,3.8,2.6,8.9,2.6,8.9l17.1-1.1c6.7,1.3,1-32.2,3.6-39.1c2.6-7,18.9-46.6,18.9-51.9C462.4,434.7,452,431.8,452,431.8z"/>
				<polygon class="st3" points="406,412.5 431.3,403.4 431.9,418.4 424.1,423.2 				"/>
				<path class="st18" d="M407.2,364c7.1-4.9,26.4-7.6,33.8,5.9s1.7,25-4.3,31.7c-4.7,5.3-8.8,8-16.7,10.2
					c-1.6,0.5-15.6,0.9-18.2-0.4c-1.8-0.9-1.3-14.7-1.8-14.7c-0.6,0-2-1-1.9-2.2c0.1-1.6,3.2-11.1,3-12.2
					C400.8,381.3,399.1,369.6,407.2,364z"/>
				<path class="st19" d="M402.6,369.5c0,0,11.2-4.4,22.5,9.2c2.4,2.9-4.4,13-3.8,14c0.6,1.1,11.4-6.4,10.8-5.3
					c-5.5,12-2.4,19.4-1.3,19.7c3.4,0.7,16.6-15.4,13.3-30.4c-3.3-15-18.3-18.6-22.1-18.4C418.3,358.7,407.1,357.9,402.6,369.5z"/>
				<path class="st18" d="M425.6,389.5c-1.8,3.8-3.1,9.1-1,10s5.2-1.4,7-5.2c1.8-3.8,1.6-7.7-0.5-8.6S427.4,385.7,425.6,389.5z"/>
				<g>
					<rect x="404.6" y="779.3" class="st15" width="16.2" height="3"/>
					<path class="st15" d="M420.1,758c2.1,3,3.6,8.7,3.8,11.4c0.3,3.2-1.6,9.9-3.7,9.9c-6.1,0-13.4,0.2-19.8,1.1
						c-6.3,0.9-8.7,4.5-24.8,4.4c-4.7,0-13-0.3-13-2.2c0-8.4,15.5-5.4,20.4-9.9c12.4-11.5,20.7-14.2,20.7-14.2
						S419.7,757.4,420.1,758z"/>
				</g>
				<g>
					<polygon class="st15" points="426.3,787.9 442.4,786.9 442.2,783.8 426.1,784.8 					"/>
					<path class="st15" d="M440.2,761.9c2.3,2.9,4.1,8.8,4.5,11.5c0.5,3.3-1,10.3-3.1,10.5c-6.1,0.4-13.4,1.1-19.6,2.4
						c-6.2,1.3-8.4,5.2-24.5,6.1c-4.7,0.3-13.1,0.5-13.1-1.5c0-10,15.1-6.5,19.7-11.5c11.6-12.6,19.7-16,19.7-16
						S439.7,761.3,440.2,761.9z"/>
				</g>
				<path class="st20" d="M412.7,539.1c0,0,21.3,19.9,22.3,29.3c1,9.4-8.1,39.5-11.3,63.1c-3.2,23.7-5.2,28.4-4.4,34
					c0.8,5.6,7.8,28.2,6.9,43.3s-3.9,54.4-3.9,54.4s-4.4,2-12.2,2.8c-7.8,0.7-13.1-5.9-13.1-5.9s-6.2-88-7.2-97.3
					c-0.6-6-5.6-47.5-7.1-81.2c-0.5-10.9,0.8-36,0.7-40.5L412.7,539.1z"/>
				<path class="st0" d="M443,537.1c0,0,5.4,14.1,5.2,25.7c-0.1,9.4-2.8,26.8-6.1,50.4c-3.2,23.7-3.5,45.7-2.7,51.2
					c0.8,5.6,7.5,29.2,7.4,44.3c-0.1,17.7,1.4,58.5,1.4,58.5s-7,2.3-14.8,3.1c-7.8,0.7-18.1-1.5-18.1-1.5s-7.4-93.6-10.9-102.3
					c-5.6-13.8-6.4-57.4-10.3-87.2c-1.6-12-4.4-38.8-4.4-38.8L443,537.1z"/>
				<path class="st20" d="M433.4,534.6l11-38.4c0,0,3.8,34.2-0.9,37.7C438.7,537.4,433.4,534.6,433.4,534.6z"/>
				<polygon class="st10" points="409.2,432.2 408.1,438.1 421.3,430.3 				"/>
				<polygon class="st17" points="436.6,424.7 431.9,418.4 409.2,432.2 412.8,440.2 				"/>
				<polygon class="st10" points="408.1,438.1 406,430.7 402.8,433.2 				"/>
				<polygon class="st21" points="406,430.7 400.6,436.9 399.8,430.3 404.3,426 				"/>
				<path class="st20" d="M383.5,537.1c-8-8.3-2.1-75.2-2.1-75.2l34.5,2.6l7.3,70.5C423.2,535,391.7,545.5,383.5,537.1z"/>
				<path class="st22" d="M382.3,535l1.1,9c0,0,21.3,1.5,41.4,0s19.7-2.9,19.7-2.9l-0.9-7.3c0,0-6.1,0.6-20.2,1.1
					C409.6,535.6,382.3,535,382.3,535z"/>
				<polygon class="st20" points="423.2,535 428,564.9 433.4,534.6 				"/>
				<path class="st20" d="M415.9,464.5c0.8-6.5,11-34.2,29.9-33.8c2,0,6.3,1.1,6.3,1.1l-10.8-5c0,0-4.3-1.7-12.8,4.6
					c-8.5,6.3-18.7,21-20,32.5C407.2,475.5,414.9,472.4,415.9,464.5z"/>
				<path class="st20" d="M381.4,461.9c0,0,1.7-23.8,9.9-27.5c3.5-1.6,5.1-2.6,5.1-2.6s-6.1,11.5-7.5,21s-1.8,16.3-4.9,16.2
					C380.8,469,381.4,461.9,381.4,461.9z"/>
				<path class="st18" d="M446.6,437.3c9.2-3.6,14.9,2.6,17.9,11.6s9.9,65.6,8.2,68.2c-1.7,2.6-15.6,6.1-18.4,2.8
					c-2.9-3.3-15.6-51.8-16.7-59.7C436.4,452.4,435.8,441.6,446.6,437.3z"/>
				<path class="st21" d="M441.8,435.8c-2.5,2.8-6.8,15.3-5.3,22.3c2,10,5.5,36.5,5.5,36.5s7.3,2.5,16.1,0.9c10.2-1.9,15.5-7,15.5-7
					s-5.4-40.2-10.3-46.9C461.8,439.6,448.7,427.9,441.8,435.8z"/>
				<path class="st18" d="M467.5,507.9c10.5,2.6,3.3,23.7-0.7,33.8c-4,10.1-18.6,38.5-18.6,38.5l-11.2-3.7c0,0,2.8-29,12.3-57.6
					C450.3,516.1,456.9,505.3,467.5,507.9z"/>
				<g>
					<path class="st18" d="M443.8,600.8L443.8,600.8c-1.1-0.2-1.9-1.2-1.8-2.4l1.2-8.8c0.2-1.1,1.2-1.9,2.4-1.8l0,0
						c1.1,0.2,1.9,1.2,1.8,2.3l-1.2,8.9C446,600.2,445,601,443.8,600.8z"/>
					<path class="st18" d="M439.9,600.7L439.9,600.7c-1.1-0.2-1.9-1.2-1.8-2.4l1.2-8.9c0.2-1.1,1.2-1.9,2.4-1.8l0,0
						c1.1,0.2,1.9,1.2,1.8,2.3l-1.2,8.8C442.1,600,441,600.8,439.9,600.7z"/>
					<path class="st18" d="M436.1,600.3L436.1,600.3c-1.1-0.2-1.9-1.2-1.8-2.4l1.2-8.8c0.2-1.1,1.2-1.9,2.4-1.8l0,0
						c1.1,0.2,1.9,1.2,1.8,2.3l-1.2,8.9C438.3,599.6,437.2,600.5,436.1,600.3z"/>
					<path class="st18" d="M432.5,599.6L432.5,599.6c-1.1-0.2-1.9-1.2-1.8-2.4l1.2-8.8c0.2-1.1,1.2-1.9,2.4-1.8l0,0
						c1.1,0.2,1.9,1.2,1.8,2.3l-1.2,8.9C434.7,598.9,433.6,599.7,432.5,599.6z"/>
					<path class="st18" d="M439.4,568.7c0,0-7.8,12.6-8.5,15.4c-0.7,2.8-0.1,14-0.1,14s4.2-2.9,6.7-2.2s8.7,3.1,8.7,3.1
						s3.8-9,4.1-13.6c0.3-4.5-0.4-9.1-0.4-9.1L439.4,568.7z"/>
				</g>
				<path class="st3" d="M365.7,485.2c5.5,9.2-14.5,19-24.6,23.3c-10,4.3-40.5,13.8-40.5,13.8l-5.3-10.6c0,0,22.6-18.4,49.6-31.6
					C347.7,478.7,360,475.8,365.7,485.2z"/>
				<g>
					<path class="st3" d="M282.9,533.5L282.9,533.5c-0.7-0.9-0.5-2.2,0.4-2.9l7.1-5.4c0.9-0.7,2.2-0.5,2.9,0.4l0,0
						c0.7,0.9,0.5,2.2-0.4,2.9l-7.1,5.4C284.9,534.6,283.6,534.5,282.9,533.5z"/>
					<path class="st3" d="M280.2,530.6L280.2,530.6c-0.7-0.9-0.5-2.2,0.4-2.9l7.1-5.4c0.9-0.7,2.2-0.5,2.9,0.4l0,0
						c0.7,0.9,0.5,2.2-0.4,2.9l-7.1,5.4C282.2,531.7,280.9,531.5,280.2,530.6z"/>
					<path class="st3" d="M277.8,527.6L277.8,527.6c-0.7-0.9-0.5-2.2,0.4-2.9l7.1-5.4c0.9-0.7,2.2-0.5,2.9,0.4l0,0
						c0.7,0.9,0.5,2.2-0.4,2.9l-7.1,5.4C279.9,528.8,278.5,528.6,277.8,527.6z"/>
					<path class="st3" d="M275.8,524.5L275.8,524.5c-0.7-0.9-0.5-2.2,0.4-2.9l7.1-5.4c0.9-0.7,2.2-0.5,2.9,0.4l0,0
						c0.7,0.9,0.5,2.2-0.4,2.9l-7.1,5.4C277.8,525.7,276.5,525.5,275.8,524.5z"/>
					<path class="st3" d="M302.6,507.8c0,0-14.4,3.3-16.9,4.7s-10.1,9.8-10.1,9.8s5,1,6.2,3.2c1.2,2.3,3.9,8.4,3.9,8.4
						s9.1-3.7,12.6-6.6c3.5-3,6.2-6.7,6.2-6.7L302.6,507.8z"/>
				</g>
				<path class="st20" d="M444.7,381.9c0,0,2.3-19.6-17.5-24.2c-19.9-4.6-26.9,15.2-26.9,15.2s10.1,4.7,24.9,8.1
					C440,384.5,444.7,381.9,444.7,381.9z"/>
				<path class="st0" d="M431.8,382.3c0,0-40.4-3.3-40.8-3.8s-2.3-3-3.3-3.8s-2.9,0-3.1-0.8s16.4-2.7,16.4-2.7s7.6,3.8,11.4,5.5
					C416.2,378.5,432,381,431.8,382.3z"/>
			</g>
			<g>
				<path class="st23" d="M233.6,510.2c-8.1-6.4,6.3-22.1,13.8-29.4c7.4-7.3,31.3-26.4,31.3-26.4l8.3,7.6c0,0-13.8,24.3-33.2,45.6
					C251.8,509.9,241.9,516.7,233.6,510.2z"/>
				<polygon class="st24" points="288.8,464.3 281.7,471.5 270.4,461.2 277,453.2 				"/>
				<path class="st23" d="M217.9,435.9c-9.5,1.4-11.1,9.6-9.2,18.8c1.9,9.2,21.7,54.2,24.4,55.6s16-2.4,16.8-6.7
					c0.8-4.3-10.2-45.1-13.1-52.4C233.9,443.9,229,434.3,217.9,435.9z"/>
				<path class="st18" d="M184.7,393.9c0,0-1.4,28.3-3.1,29.7c-5.2,4.2-23.8,7.7-27.3,15.2c-4.3,9,18.6,49.6,21.6,63
					c2.9,13.4-3.5,34.1-5.6,47.2s39.1,29.2,40.6,29.3c1.5,0,14.9-12.3,17.4-16.6c2.6-4.3,0.3-37.9,0.3-46.5
					c0.1-8.6,2.2-38.6,2.6-40.6c2.7-13.1-0.7-23.5-1.1-26.3c-0.5-2.8-0.3-7.4-1.7-9.2c-2.8-3.6-18.2-8.3-18.4-10.1
					c-0.2-1.8-2.2-26.4-2.2-26.4L184.7,393.9z"/>
				<path class="st25" d="M181.6,423.6l24.8,15l3.6-9.7c0,0,16.3,6.5,18.4,10.1c2.1,3.5,3.1,11.2,3.7,14.1c0.7,2.9,1,16-0.2,27.4
					c-0.7,6.7-0.6,15.5-1.7,26.8c-0.9,9.7,0,33.9,0,33.9s-9.3,0.3-23.6-0.5c-16.6-0.9-35.3-1-36-1.6c-3.2-2.6,3.2-31,2.7-33.8
					c-0.6-2.8-20.7-52.4-21-58.8c-0.3-6.5,3.1-10.7,8-13.1C165.3,430.9,181.6,423.6,181.6,423.6z"/>
				<path class="st23" d="M162.5,434.8c0,0,9.9-4.5,19.2,3.8c22.4,20.3,36.9,34.1,45.8,38.9c11.9,6.5-9.8,35.6-31.3,36.1
					c-20.7,0.5-4.8,26.3-4.8,26.3l-19.4-0.2c-6.7,1.3,1.2-34.7-1.3-41.7c-2.5-6.9-15.9-42.6-16-47.8
					C154.7,445.1,162.5,434.8,162.5,434.8z"/>
				<polygon class="st3" points="208.7,413.3 183.6,404.1 182.9,418.9 190.7,423.7 				"/>
				<path class="st18" d="M208.8,364.8c-7-5-26.2-7.9-33.7,5.4s-2,24.8,3.8,31.6c4.6,5.3,8.7,8,16.5,10.4c1.6,0.5,15.5,1.1,18.1-0.2
					c1.8-0.9,1.5-14.6,2-14.6s2-1,1.9-2.1c-0.1-1.6-3.1-11.1-2.8-12.2C214.8,382.1,216.8,370.5,208.8,364.8z"/>
				<path class="st19" d="M213.3,370.4c0,0-11.1-4.5-22.5,8.9c-2.5,2.9,4.2,13,3.6,14c-0.6,1.1-11.2-6.6-10.7-5.4
					c5.3,12,2.1,19.3,1,19.6c-3.4,0.7-16.3-15.5-12.8-30.4s18.5-18.2,22.2-17.9C197.8,359.4,208.9,358.8,213.3,370.4z"/>
				<path class="st18" d="M190.1,389.9c1.7,3.8,3,9.1,0.9,10s-5.1-1.4-6.8-5.2c-1.7-3.8-1.4-7.6,0.6-8.5
					C186.8,385.2,188.4,386.1,190.1,389.9z"/>
				<g>
					<rect x="192.2" y="779.4" class="st15" width="16.1" height="3"/>
					<path class="st26" d="M192.9,758.2c-2.1,3-3.5,8.7-3.7,11.3c-0.3,3.2,1.6,9.9,3.7,9.9c6.1,0,13.4,0.2,19.6,1.1
						c6.3,0.8,8.6,4.5,24.7,4.4c4.7,0,13.2-0.3,12.9-2.2s-15.4-5.4-20.3-9.9c-12.4-11.4-20.6-14.1-20.6-14.1
						S193.3,757.6,192.9,758.2z"/>
				</g>
				<path class="st20" d="M180.1,553.8c0,0-1.1,6.5-2,15.9c-1,9.3,8,39.2,11.2,62.8c3.2,23.5,5.2,28.3,4.4,33.8
					c-0.8,5.6-7.8,28.1-6.9,43c0.9,15,3.9,54.1,3.9,54.1s4.4,2,12.1,2.7c7.7,0.7,13.1-5.9,13.1-5.9s6.2-87.4,7.2-96.7
					c0.6-6,5.5-47.2,7-80.8c0.5-10.8-0.7-35.8-0.7-40.3C229.4,539.5,180.1,553.8,180.1,553.8z"/>
				<g>
					<polygon class="st15" points="186.7,787.9 170.7,786.9 170.9,783.8 186.9,784.8 					"/>
					<path class="st15" d="M172.9,762.1c-2.3,2.9-4.1,8.7-4.5,11.4c-0.5,3.3,1,10.3,3.1,10.4c6.1,0.4,13.3,1.1,19.5,2.4
						c6.2,1.3,8.3,5.1,24.3,6.1c4.7,0.3,13.2,0.5,13.1-1.5c-0.1-2-15-6.5-19.6-11.4c-11.6-12.5-19.6-15.9-19.6-15.9
						S173.4,761.5,172.9,762.1z"/>
				</g>
				<path class="st0" d="M170.1,538.6c0,0-5.3,14-5.2,25.6c0.1,9.4,2.8,26.6,6,50.1s3.5,45.4,2.7,50.9c-0.8,5.6-8.2,29.1-7.3,44.1
					s4.9,51.9,4.9,51.9s4.7,4.1,12.4,4.9c7.7,0.7,12.3-2.5,12.3-2.5s9-87.6,12.5-96.2c5.6-13.8,6.4-57.1,10.2-86.6
					c1.6-11.9,8.8-38.1,8.8-38.1L170.1,538.6z"/>
				<polygon class="st23" points="205.4,432.8 206.4,438.6 193.4,430.8 				"/>
				<polygon class="st23" points="206.4,438.6 208.5,431.3 211.7,433.8 				"/>
				<polygon class="st24" points="178.2,425.1 182.9,418.9 205.4,432.8 201.8,440.8 				"/>
				<polygon class="st24" points="208.5,431.3 213.9,437.5 214.7,431 210.3,426.6 				"/>
				<path class="st25" d="M157.1,437.6c-7.7,6.1-5,14.3,1.5,21.5s47.2,37.2,50.3,37s13-10.3,11.5-14.5s-32.2-35-38.6-40
					C175.4,436.6,166.1,430.5,157.1,437.6z"/>
				<path class="st27" d="M169.9,538.3c0,0,16.6,1.1,33.1,1.8c16.5,0.6,26.4,1.1,26.4,1.1l0.1,6.5c0,0-16.9,0.4-34.3-0.7
					c-17.2-1-27-2.6-27-2.6L169.9,538.3z"/>
				<path class="st28" d="M223.7,548.5h3.6c1.1,0,2-0.9,2-2V543c0-1.1-0.9-2-2-2h-3.6c-1.1,0-2,0.9-2,2v3.5
					C221.7,547.6,222.6,548.5,223.7,548.5z"/>
				<path class="st25" d="M204.5,484.7c-5.1,9.4,15.1,18.3,25.3,22.2c10.1,3.9,40.8,12.2,40.8,12.2l4.8-10.7
					c0,0-23.2-17.4-50.5-29.6C222,477.6,209.7,475.2,204.5,484.7z"/>
				<g>
					<path class="st3" d="M288.5,529.6L288.5,529.6c0.6-0.9,0.4-2.2-0.5-2.9l-7.3-5.1c-0.9-0.7-2.2-0.4-2.9,0.5l0,0
						c-0.6,0.9-0.4,2.2,0.5,2.9l7.3,5.1C286.6,530.8,287.9,530.6,288.5,529.6z"/>
					<path class="st3" d="M291,526.6L291,526.6c0.6-0.9,0.4-2.2-0.5-2.9l-7.3-5.1c-0.9-0.7-2.2-0.4-2.9,0.5l0,0
						c-0.6,0.9-0.4,2.2,0.5,2.9l7.3,5.1C289.1,527.8,290.4,527.6,291,526.6z"/>
					<path class="st3" d="M293.3,523.6L293.3,523.6c0.6-0.9,0.4-2.2-0.5-2.9l-7.3-5.1c-0.9-0.7-2.2-0.4-2.9,0.5l0,0
						c-0.6,0.9-0.4,2.2,0.5,2.9l7.3,5.1C291.3,524.8,292.6,524.5,293.3,523.6z"/>
					<path class="st3" d="M295.2,520.4L295.2,520.4c0.6-0.9,0.4-2.2-0.5-2.9l-7.3-5.1c-0.9-0.7-2.2-0.4-2.9,0.5l0,0
						c-0.6,0.9-0.4,2.2,0.5,2.9l7.3,5.1C293.3,521.6,294.6,521.4,295.2,520.4z"/>
					<path class="st3" d="M267.9,504.8c0,0,14.4,2.7,17,4.1c2.5,1.3,10.4,9.3,10.4,9.3s-4.9,1.1-6.1,3.4c-1.2,2.3-3.6,8.5-3.6,8.5
						s-9.2-3.3-12.7-6.1c-3.6-2.8-6.4-6.4-6.4-6.4L267.9,504.8z"/>
				</g>
				
					<rect x="259.2" y="505.9" transform="matrix(0.4272 -0.9041 0.9041 0.4272 -309.1219 534.6151)" class="st24" width="16.4" height="10.8"/>
				<polygon class="st3" points="278.7,454.5 287.8,444.6 293.5,441.1 303.6,450.1 291.5,458.2 287,462.6 				"/>
				<g>
					<path class="st29" d="M303,437.4c-2.2-0.7-4.6,0.6-5.3,2.8c-0.7,2.2,0.6,4.6,2.8,5.3c2.2,0.7,4.6-0.6,5.3-2.8
						S305.2,438.1,303,437.4z M300.8,444.5c-1.7-0.5-2.7-2.3-2.1-4c0.5-1.7,2.3-2.6,4-2.1s2.7,2.3,2.1,4S302.5,445,300.8,444.5z"/>
					<g>
						<path class="st30" d="M305.8,439.3c-0.2,0-0.5,0-0.7,0c-2-0.1-3.9,1.2-4.4,3.2c-0.5,2.3,0.8,4.5,3.1,5.1l0,0l7.7,2.2
							c1.1,0.3,2.3-0.3,2.5-1.5l1.2-5.1c0.3-1.1-0.4-2.2-1.6-2.4L305.8,439.3z M308.4,444.3c-0.5,1.9-2.4,3.1-4.3,2.6
							s-3.1-2.4-2.6-4.3s2.4-3.1,4.3-2.6C307.7,440.5,308.8,442.4,308.4,444.3z"/>
						<path class="st31" d="M301.2,442.6c-0.5,2,0.8,4.1,2.8,4.5c2,0.5,4.1-0.8,4.5-2.8c0.5-2-0.8-4.1-2.8-4.5
							C303.8,439.3,301.7,440.6,301.2,442.6z M308.4,444.3c-0.5,1.9-2.4,3.1-4.3,2.6s-3.1-2.4-2.6-4.3s2.4-3.1,4.3-2.6
							C307.7,440.5,308.8,442.4,308.4,444.3z"/>
						<path class="st32" d="M304.1,446.9c-1.9-0.5-3.1-2.4-2.6-4.3l-0.7-0.2c-0.5,2.3,0.8,4.5,3.1,5.1l0,0l7.7,2.2
							c1.1,0.3,2.3-0.3,2.5-1.5l0.6-2.5l-6.3-1.5C307.9,446.2,306,447.4,304.1,446.9z"/>
					</g>
					<g>
						<g>
							<path class="st31" d="M285.5,457.7c0,0,0.4,0.8,0.6,1s1.1,0.3,1.1,0.3l7.7-10.3l-1.7-1.3L285.5,457.7z"/>
							
								<rect x="291" y="448.4" transform="matrix(0.5984 -0.8012 0.8012 0.5984 -242.7178 415.2526)" class="st31" width="3.7" height="2.6"/>
							<g>
								<path class="st32" d="M293.4,448.2c-0.1-0.1-0.2,0-0.3,0l-6.8,9.2c-0.1,0.1,0,0.2,0,0.3c0.1,0.1,0.2,0,0.3,0l6.8-9.2
									C293.5,448.4,293.5,448.3,293.4,448.2z"/>
								<path class="st32" d="M294,448.6c-0.1-0.1-0.2,0-0.3,0l-6.8,9.2c-0.1,0.1,0,0.2,0,0.3c0.1,0.1,0.2,0,0.3,0l6.8-9.2
									C294.1,448.8,294,448.7,294,448.6z"/>
							</g>
						</g>
						<path class="st30" d="M300.6,441.6l-2.1-1.6c-1.1-0.8-2.6-0.6-3.4,0.5l-2.6,4c-0.8,1.1-0.6,2.6,0.5,3.4l1.7,1.3
							c1.1,0.8,2.6,0.6,3.4-0.5l3.1-3.6C301.9,443.9,301.7,442.4,300.6,441.6z M297.6,443.4c-0.9-0.7-1.4-1.6-1.1-2s1.3-0.2,2.2,0.5
							c0.9,0.7,1.4,1.6,1.1,2C299.5,444.3,298.5,444.1,297.6,443.4z"/>
						<path class="st32" d="M300.6,441.6l-1.1-0.8l-0.9,1.1l0,0c0.9,0.7,1.4,1.6,1.1,2s-1.3,0.2-2.2-0.5l0,0l-11.4,15.2
							c0.2,0.2,1.1,0.3,1.1,0.3l5.4-7.2l0.2,0.1l2-2.7c1.1,0.7,2.5,0.4,3.3-0.6l3.1-3.6C301.9,443.9,301.7,442.4,300.6,441.6z"/>
					</g>
				</g>
				<path class="st18" d="M294,456.6c0,0,3.1-1.1,6.7-3.4c0.4-0.2,1.1-0.4,1.5-0.6c0.3-0.2,0.7-0.8,1-1s0.6-0.2,0.9-0.4
					c0.4-0.2,0.6-0.9,0.9-1.1s0.9-0.4,1.2-0.6c1.1-0.6,0.7-1.4,1-1.6c1-0.7,1.3-0.9,1.4-1.1c0.7-0.9,1.1-5.8,0.9-6.6
					c-0.2-0.8-0.1-5.4-0.6-5.6c-0.5-0.1-2.1,0.7-2.4,3.3s-0.9,5.6-1,5s-1.4-3.5-2.1-4.6c-0.5-0.7-1.3-0.3-1.8,0.2
					c-0.3,0.3-0.3,2.7-0.3,2.7s-1.6-0.7-1.8-0.4c-0.9,0.8-0.4,2.6-0.4,3.2c0,0.5-1.4-0.8-1.8-0.4c-1.4,1.5,1.3,5.7-0.6,6.5
					C295.9,450.5,292.9,453.8,294,456.6z"/>
				<path class="st3" d="M297,441.6c0.4,1.3-0.9,1.1-2.4,1.5s-5,1.5-5.4,1.7c-0.3,0.2-2.7,1.7-2.7,1.7s1.5-3.7,3.8-5.3
					C292.7,439.5,296.5,440,297,441.6z"/>
			</g>
		</g>
		<g>
			<g>
				<rect x="1032.1" y="-0.4" class="st0" width="59.6" height="715.4"/>
				<polygon class="st20" points="1091.7,662.4 1032.1,662.4 1032.1,0.3 1047.1,0.3 1047.1,307.3 1091.7,375.6 1047.1,544.9 
					1047.1,643.8 				"/>
				<path class="st15" d="M1162.6,375.6H948.5v-20.7h234.8l0,0C1183.3,366.3,1174.1,375.6,1162.6,375.6z"/>
				<path class="st33" d="M1139.8,662.1H984c-12.9,0-23.4,10.5-23.4,23.4v34.2h202.7v-34.2C1163.3,672.6,1152.8,662.1,1139.8,662.1z
					"/>
			</g>
			<g>
				<path class="st20" d="M1378.3,385.5c0,14-7.7,25-19.7,25s-20.5-11.3-20.5-25.3s4.8-25.3,20.5-25.3
					C1374.5,359.8,1378.3,371.5,1378.3,385.5z"/>
				<path class="st18" d="M1390.5,499.1c5.7-17.5,20.5-47.4,11.9-52.6c-11.2-6.8-43.5-11-43.5-11v0.6c0,0-32.6,2.7-43.8,9.5
					c-8.6,5.2,6.3,36.6,12,54.1c1.4,4.2,1.2,23,0.6,39.7c-0.1,4.1-3.5,23-2.9,30.8c0.2,2.3,26.5,16.8,33.9,17.2v-0.6
					c7.4-0.4,33.8-14.8,34-17.1c0.6-7.8-2.7-26.7-2.9-30.8C1389.3,522.1,1389.1,503.3,1390.5,499.1z"/>
				<path class="st18" d="M1392.3,473c-6.2-2.3-8.7-15.6-3-26.5s9.4-13.6,10.9-16.4c1.6-2.9,10.6-22.7,13.5-27s11.3-7.9,16-5.5
					c3.9,2,8.2,3.8,5.7,12.3C1432.8,418.5,1403.8,477.2,1392.3,473z"/>
				<path class="st18" d="M1372.4,430.3c-0.7-3.3-2.6-19.8-2.6-19.8h-10.9v0.6H1348c0,0-1.9,16.5-2.6,19.8s-9.7,8.3-9.7,8.3h23.2
					v-0.6h23.2C1382.1,438.7,1373.1,433.7,1372.4,430.3z"/>
				<path class="st3" d="M1371.6,425.7c-0.7-5-1.5-12.2-1.8-14.5l-0.7-0.7h-10.3v0.6h-10.9c0,0-1.9,16.5-2.6,19.8s-9.7,8.3-9.7,8.3
					h1.1c10.4-2.7,20.7-5.5,22.1-5.9C1361.7,432.5,1371.6,425.7,1371.6,425.7L1371.6,425.7z"/>
				<path class="st18" d="M1341.3,551.8c-13.3-0.1-18.5,9.2-18.2,37.7s4.5,59.4,6.4,63.8c1.8,4.4,20.7,4.6,22.6,2s6.6-61.7,6.6-70.9
					C1358.6,575.1,1355.8,551.8,1341.3,551.8z"/>
				<path class="st18" d="M1342.1,676.1l-3.5-0.1c-5.3-0.1-9.5-4.6-9.4-9.9l0.3-11.8c0.1-5.3,4.6-9.5,9.9-9.4l3.5,0.1
					c5.3,0.1,9.5,4.6,9.4,9.9l-0.3,11.8C1351.8,672,1347.4,676.2,1342.1,676.1z"/>
				<path class="st18" d="M1340.2,658.7c-4.1,0-14.1,1.3-13.5,27.9c0.5,26.6,11.7,62.9,11.7,62.9h9.6c0,0,4.8-49.1,4.8-58.6
					C1352.9,669.4,1353.1,658.7,1340.2,658.7z"/>
				<path class="st18" d="M1376.4,552c13.2-1.4,19.4,7.3,22,35.6c2.6,28.4,1.6,59.5,0.2,64.1s-20.1,6.7-22.2,4.3
					s-12.9-60.7-13.8-69.9C1361.6,577,1362,553.6,1376.4,552z"/>
				<path class="st18" d="M1388.4,675.7l3.5-0.5c5.2-0.7,9-5.5,8.3-10.8l-1.5-11.7c-0.7-5.3-5.5-9-10.7-8.3l-3.5,0.5
					c-5.2,0.7-9,5.5-8.3,10.8l1.5,11.7C1378.3,672.7,1383.1,676.4,1388.4,675.7z"/>
				<path class="st18" d="M1388.5,658.2c4-0.4,14.1-0.1,16.3,26.3c2.2,26.5-5.2,63.8-5.2,63.8l-9.6,1c0,0-9.8-48.4-10.8-57.8
					C1377,670.3,1375.7,659.5,1388.5,658.2z"/>
				<path class="st18" d="M1325,470.1c5.2-4.1,5.2-14.4-1.9-24.5s-13-16.2-14.9-18.8c-2-2.7-12.2-18.9-15.6-22.8s-10.3-6.9-14.6-3.9
					c-3.6,2.5-7.7,4.8-4,13C1277.7,421.4,1312.4,480.1,1325,470.1z"/>
				<path class="st20" d="M1326.9,546.1c0,0-4.8,23.5-5.6,36.2c-0.8,12.8,5.4,68.5,5.4,74.7s-0.4,25-0.1,43.5
					c0.4,18.5,5.1,54.9,5.1,54.9l23.7-0.6c0,0,0.2-78.2,0.2-90.5s3.1-77,3.1-77l0.1-40.2L1326.9,546.1z"/>
				<path class="st16" d="M1408.2,436.8c-1.5-2.4-10.5-4.2-18.1,0.5c-5.7,3.5-12.9-1.8-12.9-1.8l-4,2.1c-8.9,5.1-19.7,5-28.6,0
					l-3.4-2c0,0-6.7,2.5-12.8-0.1c-7.5-3.2-19-2.8-20.3-0.2c-1.3,2.6,16,63.8,17.5,68.1c1.5,4.2-2.3,33.8,1.4,42.7l31.8,1l0,0h0.1
					l0,0l0,0l31.8-0.9c2.9-10.2,0-39,1.4-43.3C1393.4,498.7,1410.6,440.9,1408.2,436.8z"/>
				<path class="st20" d="M1390.2,545.4c0,0,7.2,22.8,9.3,35.4c2.1,12.6,1.7,68.7,2.3,74.8c0.6,6.1,3,24.8,4.5,43.3
					c1.5,18.4,0.5,55.1,0.5,55.1l-23.6,1.9c0,0-8.1-77.8-9.4-90s-15.3-76.7-15.3-76.7l0.2-42.2L1390.2,545.4z"/>
				<path class="st15" d="M1334.2,755.3c0,0-8.1,9.4-7.7,11.9c0.2,1.4,3.7,6.6,9.9,6.9c4.7,0.3,12.4-4,13.6-4.1
					c2.8-0.3,2.8-15.2,2.8-15.2L1334.2,755.3z"/>
				<path class="st15" d="M1403.5,754.4c0,0,9,8.6,8.9,11.1c-0.1,1.4-3,6.9-9.1,7.9c-4.7,0.8-12.7-2.7-14-2.7
					c-2.8,0-4.3-14.8-4.3-14.8L1403.5,754.4z"/>
				<path class="st0" d="M1387.4,593.2c1.3,8.4,2.8,64.5,3.1,67.7c0.2,3.1,8.2,89.8,8.6,93.8l7.8-0.6c0,0,1-36.7-0.5-55.1
					c-1.5-18.4-3.9-37.1-4.5-43.3c-0.6-6.1-0.2-62.2-2.3-74.8c-2.1-12.6-9.3-35.4-9.3-35.4l-18.8,1.3
					C1371.4,546.7,1386.1,584.9,1387.4,593.2z"/>
				<path class="st0" d="M1354.9,571.8c-4.4-7.7-16.1-5.1-16.9,3.7c-0.8,9.1-1,15.4-0.2,19.6c2,10.6,4.9,62.2,4.5,63.5
					c-0.4,1.4-0.1,96.2-0.1,96.2l0.4,0.3l12.8-0.3c0,0,0.2-78.2,0.2-90.5s3.1-77,3.1-77v-3.5l0.2-5.1L1354.9,571.8z"/>
				<path class="st18" d="M1431.3,412.6c4.6-2.8,6.9-7.5-0.1-20.8c-7.1-13.3-27.5-42-27.5-42l-7.5,4.5c0,0,7.9,29.6,11.4,37
					C1411.2,398.8,1419.2,419.9,1431.3,412.6z"/>
				<path class="st18" d="M1378.4,399.4c0,11.2-10.4,20.7-19.2,20.7c-8.4,0-19.2-9.5-19.2-20.7s3.9-20.8,18.9-20.8
					C1375.4,378.6,1378.4,388.3,1378.4,399.4z"/>
				<path class="st19" d="M1340,400.5c-0.9-0.9-5-10-4.3-11.7c0.6-1.7,4.1-5.4,5.3-6.5s11.4-4.1,13-4.1c1.5-0.1,5.6-0.3,8.8,0
					c3.2,0.3,8.8,1.6,10.1,3.1c1.3,1.5,4.5,3.2,5.5,4.4c1,1.2,2.8,4.2,2.6,4.7c-0.3,0.4-1.7,4.2-1.8,4.4c-0.1,0.3-0.8,4.8-0.8,4.8
					s-2-10.9-2.2-11.6c-2.3-9.3-23.1-14.4-33.2-1.7C1341.8,387.5,1340,400.5,1340,400.5z"/>
				<g>
					<polygon class="st5" points="1346.9,606.7 1321.2,606.7 1320.5,605.5 1318.6,604.6 1321.2,568 1344.9,567.4 					"/>
					<polygon class="st20" points="1344.3,604.6 1318.6,604.6 1320,567.3 1344.3,567.3 					"/>
					<polygon class="st0" points="1321.2,606.7 1320.5,605.5 1345.1,605.5 1344.9,567.4 1346.9,606.7 					"/>
				</g>
				<g>
					<polygon class="st5" points="1376.3,606.9 1401.8,604.4 1402.4,603.1 1404.2,602.1 1398.1,565.8 1374.4,567.6 					"/>
					<polygon class="st20" points="1378.7,604.6 1404.2,602.1 1399.2,565.1 1375,567.4 					"/>
					<polygon class="st0" points="1401.8,604.4 1402.4,603.1 1377.9,605.5 1374.4,567.6 1376.3,606.9 					"/>
				</g>
				<path class="st18" d="M1274.2,412.9c-3-4.4-3.2-9.7,8.7-18.8c12-9.2,42.4-26.8,42.4-26.8l4.9,7.2c0,0-19.4,23.7-25.7,29
					C1298.3,408.7,1282.2,424.5,1274.2,412.9z"/>
				<polygon class="st0" points="1358.7,547.1 1390.3,546.1 1389.5,539.3 1383.9,470.3 1333.5,470.3 1327.6,539.3 1326.9,546.1 
					1358.5,547.1 1358.5,547.1 1358.6,547.1 				"/>
				<path class="st20" d="M1342.4,470.3c0,0,4.7,54.3,10.3,64.6c5.7,10.3,37.2,8.6,37.2,8.6l0.3,3.6c0,0-15.4,3.7-29.9,3.7
					s-33.7-3.7-33.7-3.7l6.8-76.8L1342.4,470.3L1342.4,470.3z"/>
				<polygon class="st0" points="1382.3,474.2 1388.5,438 1379.9,436.8 1374.5,474.2 1378,480 				"/>
				<polygon class="st0" points="1335.2,474.2 1330.5,436.2 1339.3,436.2 1343,474.2 1339.6,480 				"/>
				<path class="st22" d="M1326.2,549.3l-0.1-6c0,0,17,2.7,32.6,2.7c15.7,0,32.3-2.7,32.3-2.7l0.4,6c0,0-20.2,3.6-32.9,3.6
					C1345.8,553,1326.2,549.3,1326.2,549.3z"/>
				<path class="st11" d="M1340.6,473.6c0,1.1-0.9,1.9-1.9,1.9c-1.1,0-1.9-0.9-1.9-1.9c0-1.1,0.9-1.9,1.9-1.9
					C1339.7,471.6,1340.6,472.5,1340.6,473.6z"/>
				<circle class="st11" cx="1378.9" cy="473.6" r="1.9"/>
				<path class="st16" d="M1317.1,473.8c0,0-5.8-3.7-16.4-16.2c-10.6-12.6-25.1-38.7-25.1-38.7s3.2-4.7,10.6-9.1
					c7.3-4.5,11-4.7,11-4.7l18.2,27.8C1315.4,432.9,1326.8,470.2,1317.1,473.8z"/>
				<path class="st16" d="M1397.9,474.2c0,0,5.3-3.5,13.8-17.6c8.4-14.1,23.2-41.4,23.2-41.4s-3.9-4.1-11.9-7.3
					c-8-3.2-11.8-3.1-11.8-3.1l-16,30.2C1395.2,435,1387.8,472.2,1397.9,474.2z"/>
				<g>
					<path class="st18" d="M1397.7,357.6c0,0-4-0.9-4.6-1.2c-0.6-0.3-5.2-3.4-6.9-3.5c-1.7-0.2-2.8,0.2-3.1,0
						c-0.3-0.2-1.5-3.3,1.4-3.6c3-0.3,6,0.8,6.8,0.3s-1.5-6.5-2.5-7.4c-1-1-8.2-6.6-8.5-6.9s-1.1-1.3-0.9-1.8c0.2-0.4,2.5-1,3-0.9
						s0.4-1.1,0.9-1.2c0.5-0.2,2.4-0.4,2.4-0.4s2-0.8,2.9-0.7c0.9,0.1,4.8,1.1,5.1,1.4c0.4,0.3,7.1,5,8,6.7c1,1.7,3.9,14.1,3.9,14.1
						L1397.7,357.6z"/>
				</g>
				<g>
					<path class="st18" d="M1328.3,376.4c0,0,4-0.9,4.6-1.2c0.6-0.3,5.2-3.4,6.9-3.5c1.7-0.2,2.8,0.2,3.1,0c0.3-0.2,1.5-3.3-1.4-3.6
						c-3-0.3-6,0.8-6.8,0.3s1.5-6.5,2.5-7.4c1-1,8.2-6.6,8.5-6.9s1.1-1.3,0.9-1.8c-0.2-0.4-2.5-1-3-0.9s-0.4-1.1-0.9-1.2
						c-0.5-0.2-2.4-0.4-2.4-0.4s-2-0.8-2.9-0.7c-0.9,0.1-4.8,1.1-5.1,1.4c-0.4,0.3-7.1,5-8,6.7c-1,1.7-3.9,14.1-3.9,14.1
						L1328.3,376.4z"/>
				</g>
			</g>
			<g>
				<g>
					<path class="st34" d="M673.2,91.3c0,0-59.8-0.4-58.6,2.5c1.2,3,19,16.7,25.9,17.9c6.9,1.2,14,0,14,0L673.2,91.3z"/>
					
						<linearGradient id="SVGID_1_" gradientUnits="userSpaceOnUse" x1="1892.8481" y1="537.5387" x2="1913.8273" y2="537.5387" gradientTransform="matrix(0 -1 -1 0 1181.4298 2005.0814)">
						<stop  offset="0" style="stop-color:#EAEFF4"/>
						<stop  offset="0.5057" style="stop-color:#F7F9FB"/>
						<stop  offset="1" style="stop-color:#FFFFFF"/>
					</linearGradient>
					<path class="st35" d="M673.2,91.3c0,0-59.8-0.4-58.6,2.5c1.2,3,19,16.7,25.9,17.9c6.9,1.2,14,0,14,0L673.2,91.3z"/>
				</g>
				<path class="st36" d="M1384.3,218.3c-7.5-2.6-93.8-24.2-100-25.5c-21.9-4.8-32.4-21.1-32.4-21.1s-22.2-5.3-27.1-7.6
					c-41.8-19.2-138.1-77.3-201.6-93.5C939,49.2,656.3,90.8,656.3,90.8l-65.4,71.6l-45.1,92.4L534.2,277c0,0-6,31,18.7,55.7
					c6.1,6.1,21.6,10.6,41.5,13.9c13.4,0,141.8,9.2,159.1,9.2c1.9,0,3,0,3,0h422.1c0,0,2.2,0,6.3,0.1c13.7,0,151.4-0.8,163.5-0.8
					c46.1-1.4,84.7-4.2,88.6-9.6c0,0,0-58.8,0-66C1436.9,272.3,1407.2,226.3,1384.3,218.3z"/>
				<path class="st34" d="M1384.3,218.3c-7.5-2.6-93.8-24.2-100-25.5c-21.9-4.8-32.4-21.1-32.4-21.1s-22.2-5.3-27.1-7.6
					c-41.8-19.2-138.1-77.3-201.6-93.5C939,49.2,656.3,90.8,656.3,90.8l-65.4,71.6l-45.1,92.4L534.2,277c0,0-6,31,18.7,55.7
					c6.1,6.1,21.6,10.6,41.5,13.9c-1.1-5.3-1.7-10.8-1.7-16.5c0-44.1,35.8-79.9,79.9-79.9c44.1,0,79.9,35.8,79.9,79.9
					c0,5.1,0.9,16.3,1,25.7c1.9,0,3,0,3,0h422.1c0,0,2.2,0,6.3,0.1c-0.3-10.7-0.3-21.3-0.3-25.7c0-44.1,38.8-82.8,82.9-82.8
					s79.9,35.8,79.9,79.9c0,5.5,1,18,1,27.8c46.1-1.4,84.7-4.2,88.6-9.6c0,0,0-58.8,0-66C1436.9,272.3,1407.2,226.3,1384.3,218.3z"
					/>
				
					<linearGradient id="SVGID_2_" gradientUnits="userSpaceOnUse" x1="985.2794" y1="857.9106" x2="985.2794" y2="1140.734" gradientTransform="matrix(1 0 0 -1 0 1210)">
					<stop  offset="0" style="stop-color:#B5BFBF"/>
					<stop  offset="0.1315" style="stop-color:#CBD2D2"/>
					<stop  offset="0.3102" style="stop-color:#E2E6E6"/>
					<stop  offset="0.503" style="stop-color:#F2F4F4"/>
					<stop  offset="0.7179" style="stop-color:#FCFCFC"/>
					<stop  offset="1" style="stop-color:#FFFFFF"/>
				</linearGradient>
				<path class="st37" d="M1384.3,218.3c-7.5-2.6-93.8-24.2-100-25.5c-21.9-4.8-32.4-21.1-32.4-21.1s-22.2-5.3-27.1-7.6
					c-41.8-19.2-138.1-77.3-201.6-93.5C939,49.2,656.3,90.8,656.3,90.8l-65.4,71.6l-45.1,92.4L534.2,277c0,0-6,31,18.7,55.7
					c6.1,6.1,21.6,10.6,41.5,13.9c-1.1-5.3-1.7-10.8-1.7-16.5c0-44.1,35.8-79.9,79.9-79.9c44.1,0,79.9,35.8,79.9,79.9
					c0,5.1,0.9,16.3,1,25.7c1.9,0,3,0,3,0h422.1c0,0,2.2,0,6.3,0.1c-0.3-10.7-0.3-21.3-0.3-25.7c0-44.1,38.8-82.8,82.9-82.8
					s79.9,35.8,79.9,79.9c0,5.5,1,18,1,27.8c46.1-1.4,84.7-4.2,88.6-9.6c0,0,0-58.8,0-66C1436.9,272.3,1407.2,226.3,1384.3,218.3z"
					/>
				
					<linearGradient id="SVGID_3_" gradientUnits="userSpaceOnUse" x1="1396.496" y1="889.9286" x2="1436.9482" y2="889.9286" gradientTransform="matrix(1 0 0 -1 0 1210)">
					<stop  offset="0" style="stop-color:#B2B2B2"/>
					<stop  offset="0.3086" style="stop-color:#B5B5B5"/>
					<stop  offset="0.5136" style="stop-color:#BEBEBE"/>
					<stop  offset="0.6884" style="stop-color:#CDCDCD"/>
					<stop  offset="0.8454" style="stop-color:#E2E2E2"/>
					<stop  offset="0.9907" style="stop-color:#FDFDFD"/>
					<stop  offset="1" style="stop-color:#FFFFFF"/>
				</linearGradient>
				<path class="st38" d="M1436.9,307.7h-24.3c0,0-16.4,19.7-16.1,23s40.4,0.9,40.4,0.9V307.7z"/>
				<path class="st34" d="M1250.8,171.6c0,0,145.8,39.2,157.4,47.8s14.4,19.3,13.2,19.3s-135.8-38.6-150.4-46.5
					C1253.1,182.7,1250.8,171.6,1250.8,171.6z"/>
				<g>
					<path class="st39" d="M1220.8,185.6c0,0-98.8-67.6-172.3-96.5C1004.4,71.7,931,74.2,931,74.2l11.3,101.2L1220.8,185.6z"/>
					<polygon class="st39" points="931,74.2 764,86 724.5,160.3 942.3,175.4 					"/>
					<path class="st39" d="M764,86c0,0-67.4,8.2-71,14.4c-6.2,10.9,18.4,60.1,32.8,60.1L764,86z"/>
					<path class="st36" d="M755.6,93.4c0,0-52.8,8.6-54.9,13.1c-2.1,4.5,17.9,42.9,25.4,42.9L755.6,93.4z"/>
					<g>
						<path class="st36" d="M1186.2,174.9c0,0-82.9-56.7-144.6-81c-37-14.5-98.6-12.5-98.6-12.5l9.5,87L1186.2,174.9z"/>
						
							<linearGradient id="SVGID_4_" gradientUnits="userSpaceOnUse" x1="1064.6" y1="1120.0173" x2="1064.6" y2="1038.6785" gradientTransform="matrix(1 0 0 -1 0 1210)">
							<stop  offset="0" style="stop-color:#B5BFBF"/>
							<stop  offset="1" style="stop-color:#FFFFFF"/>
						</linearGradient>
						<path class="st40" d="M1186.2,174.9c0,0-82.9-56.7-144.6-81c-37-14.5-98.6-12.5-98.6-12.5l132.9,90.4L1186.2,174.9z"/>
					</g>
					<g>
						<polygon class="st36" points="923,82.8 770.2,92.3 739.1,153.3 931,165.7 						"/>
						
							<linearGradient id="SVGID_5_" gradientUnits="userSpaceOnUse" x1="850.6" y1="1121.5178" x2="850.6" y2="1043.4259" gradientTransform="matrix(1 0 0 -1 0 1210)">
							<stop  offset="0" style="stop-color:#B5BFBF"/>
							<stop  offset="1" style="stop-color:#FFFFFF"/>
						</linearGradient>
						<polygon class="st41" points="923,82.8 770.2,92.3 902.7,163.9 931,165.7 						"/>
					</g>
				</g>
				
					<linearGradient id="SVGID_6_" gradientUnits="userSpaceOnUse" x1="1177.974" y1="916.9" x2="1360.6405" y2="916.9" gradientTransform="matrix(1 0 0 -1 0 1210)">
					<stop  offset="0" style="stop-color:#706F6F"/>
					<stop  offset="0.2465" style="stop-color:#888888"/>
					<stop  offset="0.7474" style="stop-color:#B5B5B5"/>
					<stop  offset="1" style="stop-color:#C6C6C6"/>
				</linearGradient>
				<path class="st42" d="M1368.2,354.3c0-0.1,12.1-123.8-100.3-123.8c-113,0-102.1,123.3-101.9,125.2h11.7l7.1-0.1
					c-0.3-10.7-0.3-21.2-0.3-25.6c0-44.1,38.8-82.8,82.9-82.8s79.9,35.8,79.9,79.9c0,5.4,1,17.6,1,27.3L1368.2,354.3L1368.2,354.3z"
					/>
				
					<linearGradient id="SVGID_7_" gradientUnits="userSpaceOnUse" x1="582.8204" y1="919.8777" x2="760.4042" y2="919.8777" gradientTransform="matrix(1 0 0 -1 0 1210)">
					<stop  offset="0" style="stop-color:#706F6F"/>
					<stop  offset="0.2465" style="stop-color:#888888"/>
					<stop  offset="0.7474" style="stop-color:#B5B5B5"/>
					<stop  offset="1" style="stop-color:#C6C6C6"/>
				</linearGradient>
				<path class="st43" d="M767,355.7c0-0.1,18.3-131.2-94.1-131.2c-102.5,0-102.3,115-102.1,116.9l23.5,5.1
					c-0.1-2.1-1.6-8.8-1.6-13.2c0-44.1,31-82.8,79.8-82.8c44.1,0,79.9,35.8,79.9,79.9c0,5.4,1,15.7,1,25.3
					C753.4,355.8,767,355.7,767,355.7z"/>
				
					<linearGradient id="SVGID_8_" gradientUnits="userSpaceOnUse" x1="1400.7001" y1="930.3472" x2="1400.7001" y2="953.3097" gradientTransform="matrix(1 0 0 -1 0 1210)">
					<stop  offset="0" style="stop-color:#E8EAFF"/>
					<stop  offset="9.615380e-02" style="stop-color:#D9E8E6"/>
					<stop  offset="1" style="stop-color:#FFFFFF"/>
				</linearGradient>
				<path class="st44" d="M1436.9,279.4c0-3.3-4.7-10.9-4.7-10.9l-67.7-13.5l17.9,18.2C1382.5,273.1,1436.9,282.5,1436.9,279.4z"/>
				
					<linearGradient id="SVGID_9_" gradientUnits="userSpaceOnUse" x1="981.7" y1="994.2933" x2="981.7" y2="1045.851" gradientTransform="matrix(1 0 0 -1 0 1210)">
					<stop  offset="0" style="stop-color:#E8EAFF"/>
					<stop  offset="9.615380e-02" style="stop-color:#D9E8E6"/>
					<stop  offset="1" style="stop-color:#FFFFFF"/>
				</linearGradient>
				<path class="st45" d="M1181.5,216.6l-533.6-48.1l76.6-8.2l217.8,15.1l278.5,10.2l94.7,17.9c0,0-48.4-2.4-90,3.2
					C1214.3,208.2,1181.5,216.6,1181.5,216.6z"/>
				<g>
					
						<linearGradient id="SVGID_10_" gradientUnits="userSpaceOnUse" x1="1061.9" y1="868.896" x2="1061.9" y2="1021.2268" gradientTransform="matrix(1 0 0 -1 0 1210)">
						<stop  offset="0" style="stop-color:#E8EAFF"/>
						<stop  offset="9.615380e-02" style="stop-color:#D9E8E6"/>
						<stop  offset="1" style="stop-color:#FFFFFF"/>
					</linearGradient>
					<polygon class="st46" points="942.3,175.4 943,343 1160.3,343 1181.5,216.6 1181.5,184.2 					"/>
					
						<linearGradient id="SVGID_11_" gradientUnits="userSpaceOnUse" x1="925.9559" y1="864.2541" x2="1118.1196" y2="996.9367" gradientTransform="matrix(1 0 0 -1 0 1210)">
						<stop  offset="0" style="stop-color:#EAEFF4"/>
						<stop  offset="0.5057" style="stop-color:#F7F9FB"/>
						<stop  offset="1" style="stop-color:#FFFFFF"/>
					</linearGradient>
					<polygon class="st47" points="942.3,175.4 943,343 1160.3,343 1181.5,216.6 1181.5,184.2 					"/>
					<polygon class="st34" points="1160.3,343 943,343 942.3,175.4 945.9,175.5 946.6,339.4 1157.2,339.4 1179.7,216.6 
						1173.8,184.3 1177.3,183.6 1183.3,216.6 1183.3,216.9 					"/>
				</g>
				<g>
					
						<linearGradient id="SVGID_12_" gradientUnits="userSpaceOnUse" x1="818.5" y1="869.8999" x2="818.5" y2="1037.2495" gradientTransform="matrix(1 0 0 -1 0 1210)">
						<stop  offset="0" style="stop-color:#E8EAFF"/>
						<stop  offset="9.615380e-02" style="stop-color:#D9E8E6"/>
						<stop  offset="1" style="stop-color:#FFFFFF"/>
					</linearGradient>
					<path class="st48" d="M724.5,160.3l-30.5,66c0,0,42.6,3.2,62.9,49.3c14.4,32.7,11.2,67.5,11.2,67.5H943l-0.7-167.6L724.5,160.3
						z"/>
					
						<linearGradient id="SVGID_13_" gradientUnits="userSpaceOnUse" x1="792.8292" y1="879.8835" x2="870.251" y2="1028.2469" gradientTransform="matrix(1 0 0 -1 0 1210)">
						<stop  offset="0" style="stop-color:#EAEFF4"/>
						<stop  offset="0.5057" style="stop-color:#F7F9FB"/>
						<stop  offset="1" style="stop-color:#FFFFFF"/>
					</linearGradient>
					<path class="st49" d="M724.5,160.3l-30.5,66c0,0,42.6,3.2,62.9,49.3c14.4,32.7,11.2,67.5,11.2,67.5H943l-0.7-167.6L724.5,160.3
						z"/>
					<path class="st34" d="M943,343H768.2c0,0,4.6-29.5-12.1-69c-18.5-43.8-62.1-47.9-62.1-47.9l32-65.8l3.9,0.4L699,223.8
						c9.7,1.6,43.8,10.1,59.4,47.3c15.3,36.4,14,60.1,13.9,68.4H943V343z"/>
				</g>
				
					<linearGradient id="SVGID_14_" gradientUnits="userSpaceOnUse" x1="962.2001" y1="866.4784" x2="962.2001" y2="922.2616" gradientTransform="matrix(1 0 0 -1 0 1210)">
					<stop  offset="0" style="stop-color:#FFFFFF"/>
					<stop  offset="0.1671" style="stop-color:#E1E1E1"/>
					<stop  offset="0.4177" style="stop-color:#BABABA"/>
					<stop  offset="0.6485" style="stop-color:#9E9E9E"/>
					<stop  offset="0.85" style="stop-color:#8D8D8D"/>
					<stop  offset="1" style="stop-color:#878787"/>
				</linearGradient>
				<path class="st50" d="M1160.3,343H768.2c0,0,0.5-13.2-1.1-29.4c-1.8-18.4-6.8-29.4-6.8-29.4l403.8,35.8L1160.3,343z"/>
				<path class="st34" d="M623.6,170.9c5.1,9.2-0.2,40.6-32.2,63.2c-26.3,18.6-57.2,42.9-57.2,42.9l11.7-22.3L623.6,170.9z"/>
				<g>
					<path class="st36" d="M1324.3,206.7c0.3,6.6,32.2,47.7,42,48.9s65.9,12.9,65.9,12.9s-0.3-37.7-33.6-44.6
						C1365.3,217,1324.3,206.7,1324.3,206.7z"/>
					<polygon class="st51" points="1398.6,259.5 1368.6,249.6 1353.5,230.5 1398.6,230.5 					"/>
					<path class="st52" d="M1393.5,245c0,8,2.3,14.5,5.1,14.5c2.8,0,5.1-6.5,5.1-14.5s-2.3-14.5-5.1-14.5S1393.5,237,1393.5,245z"/>
					
						<linearGradient id="SVGID_15_" gradientUnits="userSpaceOnUse" x1="1369.2782" y1="957.0872" x2="1388.928" y2="990.2554" gradientTransform="matrix(1 0 0 -1 0 1210)">
						<stop  offset="0" style="stop-color:#B5BFBF"/>
						<stop  offset="1" style="stop-color:#FFFFFF"/>
					</linearGradient>
					<path class="st53" d="M1398.7,223.9c-33.3-6.9-74.3-17.2-74.3-17.2c0.2,3.9,11.4,19.8,22.6,32.5c21,1.9,51.9,5.5,61.4,10.8
						c14.7,8.3,23.9,18.5,23.9,18.5S1432,230.8,1398.7,223.9z"/>
					
						<linearGradient id="SVGID_16_" gradientUnits="userSpaceOnUse" x1="1405.8573" y1="952.1874" x2="1417.8481" y2="972.4275" gradientTransform="matrix(1 0 0 -1 0 1210)">
						<stop  offset="0" style="stop-color:#B5BFBF"/>
						<stop  offset="1" style="stop-color:#FFFFFF"/>
					</linearGradient>
					<path class="st54" d="M1407.4,246.6c0,8,2.3,14.5,5.1,14.5s5.1-6.5,5.1-14.5s-2.3-14.5-5.1-14.5S1407.4,238.6,1407.4,246.6z"/>
					
						<linearGradient id="SVGID_17_" gradientUnits="userSpaceOnUse" x1="1324.3999" y1="972.4" x2="1432.1998" y2="972.4" gradientTransform="matrix(1 0 0 -1 0 1210)">
						<stop  offset="0" style="stop-color:#1D1D1B"/>
						<stop  offset="1" style="stop-color:#FFFFFF"/>
					</linearGradient>
					<path class="st55" d="M1398.7,223.9c-33.3-6.9-74.3-17.2-74.3-17.2c0.2,3.9,11.4,19.8,22.6,32.5c2.1-15,53.1-6.9,62.5-1.6
						c14.7,8.3,22.7,30.9,22.7,30.9S1432,230.8,1398.7,223.9z"/>
					
						<linearGradient id="SVGID_18_" gradientUnits="userSpaceOnUse" x1="1340.6943" y1="980.3713" x2="1421.5406" y2="980.3713" gradientTransform="matrix(1 0 0 -1 0 1210)">
						<stop  offset="0" style="stop-color:#878787"/>
						<stop  offset="1" style="stop-color:#FFFFFF"/>
					</linearGradient>
					<path class="st56" d="M1340.7,216.6c0.7,3.4,46.8,9,60,13.9s20.1,14.2,20.8,12.5c0.7-1.7-7.7-12.8-20.8-16.4
						C1387.6,223.1,1340.1,213.7,1340.7,216.6z"/>
				</g>
				<g>
					<path class="st57" d="M543.6,194.9c-2.2,21.5-1.1,59.6,3.1,60.7c4.2,1.1,77-67.3,77-84.7c0-3.2-27-7.1-55.9-7.1
						C553.4,163.8,545.3,177.2,543.6,194.9z"/>
					
						<linearGradient id="SVGID_19_" gradientUnits="userSpaceOnUse" x1="554.4" y1="1024.15" x2="621.2" y2="1024.15" gradientTransform="matrix(1 0 0 -1 0 1210)">
						<stop  offset="0" style="stop-color:#FFFFFF"/>
						<stop  offset="1" style="stop-color:#878787"/>
					</linearGradient>
					<polygon class="st58" points="600.9,198 554.4,198 561.6,173.7 621.2,173.7 					"/>
					
						<linearGradient id="SVGID_20_" gradientUnits="userSpaceOnUse" x1="554.4" y1="995.35" x2="597.735" y2="995.35" gradientTransform="matrix(1 0 0 -1 0 1210)">
						<stop  offset="0" style="stop-color:#FFFFFF"/>
						<stop  offset="1" style="stop-color:#878787"/>
					</linearGradient>
					<polygon class="st59" points="573.5,226.8 554.4,226.8 554.4,202.5 597.8,202.5 					"/>
					<path class="st57" d="M616.3,167.7c-4.5,17.8-56.7,68.4-72.3,80c0.7,4.5,1.6,7.5,2.7,7.8c4.2,1.1,77-67.3,77-84.7
						C623.6,169.8,620.9,168.7,616.3,167.7z"/>
					<path class="st60" d="M552.5,185.8c-1.6,6.5,0.2,12.2,3.4,12.2s4.4-5.6,5.8-12.2c1.4-7,3.2-12.2,0-12.2
						C558.4,173.7,554.4,177.8,552.5,185.8z"/>
					<path class="st60" d="M549.2,214.6c0,6.7,2.3,12.2,5.2,12.2s5.2-5.4,5.2-12.2c0-6.7-2.3-12.2-5.2-12.2
						C551.6,202.5,549.2,207.9,549.2,214.6z"/>
					<path class="st61" d="M551.8,177.5c0,6,9,10.9,20.2,10.9s20.2-4.9,20.2-10.9s-9-10.9-20.2-10.9S551.8,171.5,551.8,177.5z"/>
				</g>
				<path class="st61" d="M666.7,202.5c0,9.5-7.7,17.2-17.2,17.2s-17.2-7.7-17.2-17.2s7.7-17.2,17.2-17.2S666.7,193,666.7,202.5z"/>
				<g>
					
						<linearGradient id="SVGID_21_" gradientUnits="userSpaceOnUse" x1="764.05" y1="1020.9609" x2="764.05" y2="969.4072" gradientTransform="matrix(1 0 0 -1 0 1210)">
						<stop  offset="0" style="stop-color:#B5BFBF"/>
						<stop  offset="0.1315" style="stop-color:#CBD2D2"/>
						<stop  offset="0.3102" style="stop-color:#E2E6E6"/>
						<stop  offset="0.503" style="stop-color:#F2F4F4"/>
						<stop  offset="0.7179" style="stop-color:#FCFCFC"/>
						<stop  offset="1" style="stop-color:#FFFFFF"/>
					</linearGradient>
					<path class="st62" d="M779.7,208.1h-31.3c-5.6,0-10.1-4.6-10.1-10.1l0,0c0-5.6,4.6-10.1,10.1-10.1h31.3
						c5.6,0,10.1,4.6,10.1,10.1l0,0C789.8,203.6,785.2,208.1,779.7,208.1z"/>
					
						<linearGradient id="SVGID_22_" gradientUnits="userSpaceOnUse" x1="768.05" y1="1016.7252" x2="768.05" y2="1006.3156" gradientTransform="matrix(1 0 0 -1 0 1210)">
						<stop  offset="0" style="stop-color:#FFFFFF"/>
						<stop  offset="0.2821" style="stop-color:#FCFCFC"/>
						<stop  offset="0.497" style="stop-color:#F2F4F4"/>
						<stop  offset="0.6898" style="stop-color:#E2E6E6"/>
						<stop  offset="0.8685" style="stop-color:#CBD2D2"/>
						<stop  offset="1" style="stop-color:#B5BFBF"/>
					</linearGradient>
					<path class="st63" d="M784.5,203.3h-32.9c-2.9,0-5.3-2.4-5.3-5.3l0,0c0-2.9,2.4-5.3,5.3-5.3h32.9c2.9,0,5.3,2.4,5.3,5.3l0,0
						C789.8,200.9,787.4,203.3,784.5,203.3z"/>
				</g>
				<g>
					
						<linearGradient id="SVGID_23_" gradientUnits="userSpaceOnUse" x1="981.75" y1="1009.2661" x2="981.75" y2="957.7123" gradientTransform="matrix(1 0 0 -1 0 1210)">
						<stop  offset="0" style="stop-color:#B5BFBF"/>
						<stop  offset="0.1315" style="stop-color:#CBD2D2"/>
						<stop  offset="0.3102" style="stop-color:#E2E6E6"/>
						<stop  offset="0.503" style="stop-color:#F2F4F4"/>
						<stop  offset="0.7179" style="stop-color:#FCFCFC"/>
						<stop  offset="1" style="stop-color:#FFFFFF"/>
					</linearGradient>
					<path class="st64" d="M997.4,219.8h-31.3c-5.6,0-10.1-4.6-10.1-10.1l0,0c0-5.6,4.6-10.1,10.1-10.1h31.3
						c5.6,0,10.1,4.6,10.1,10.1l0,0C1007.5,215.2,1002.9,219.8,997.4,219.8z"/>
					
						<linearGradient id="SVGID_24_" gradientUnits="userSpaceOnUse" x1="985.25" y1="1005.0303" x2="985.25" y2="994.6207" gradientTransform="matrix(1 0 0 -1 0 1210)">
						<stop  offset="0" style="stop-color:#FFFFFF"/>
						<stop  offset="0.2821" style="stop-color:#FCFCFC"/>
						<stop  offset="0.497" style="stop-color:#F2F4F4"/>
						<stop  offset="0.6898" style="stop-color:#E2E6E6"/>
						<stop  offset="0.8685" style="stop-color:#CBD2D2"/>
						<stop  offset="1" style="stop-color:#B5BFBF"/>
					</linearGradient>
					<path class="st65" d="M1001.7,215h-32.9c-2.9,0-5.3-2.4-5.3-5.3l0,0c0-2.9,2.4-5.3,5.3-5.3h32.9c2.9,0,5.3,2.4,5.3,5.3l0,0
						C1007,212.6,1004.6,215,1001.7,215z"/>
				</g>
				<g>
					<path class="st66" d="M1226.8,221.1c0,3.4-5.8,6.1-13,6.1s-13-2.7-13-6.1c0-3.4,5.8-6.1,13-6.1S1226.8,217.7,1226.8,221.1z"/>
					
						<linearGradient id="SVGID_25_" gradientUnits="userSpaceOnUse" x1="1213.8" y1="982.1183" x2="1213.8" y2="1008.0568" gradientTransform="matrix(1 0 0 -1 0 1210)">
						<stop  offset="0" style="stop-color:#B5BFBF"/>
						<stop  offset="1" style="stop-color:#FFFFFF"/>
					</linearGradient>
					<path class="st67" d="M1226.8,221.1c0,3.4-5.8,6.1-13,6.1s-13-2.7-13-6.1c0-3.4,5.8-6.1,13-6.1S1226.8,217.7,1226.8,221.1z"/>
				</g>
				<g>
					<path class="st68" d="M1192.7,175.4c0,0-41.8-11.9-45-15.7c-3.2-3.9-15.5-24.6-20.5-25.9c-5-1.4-18.6-5-22.3,0
						s-7.7,31,2.3,34.6s24.8-0.5,29.3,1.8c1.6,0.8,5.1,3.2,10.3,3.8L1192.7,175.4z"/>
					
						<linearGradient id="SVGID_26_" gradientUnits="userSpaceOnUse" x1="1146.9099" y1="1036.4063" x2="1146.9099" y2="1054.8312" gradientTransform="matrix(1 0 0 -1 0 1210)">
						<stop  offset="0" style="stop-color:#9FB2B2"/>
						<stop  offset="0.2154" style="stop-color:#A3B5B5"/>
						<stop  offset="0.4165" style="stop-color:#AEBEBE"/>
						<stop  offset="0.6119" style="stop-color:#C1CDCD"/>
						<stop  offset="0.8037" style="stop-color:#DBE2E2"/>
						<stop  offset="0.9914" style="stop-color:#FDFEFE"/>
						<stop  offset="1" style="stop-color:#FFFFFF"/>
					</linearGradient>
					<path class="st69" d="M1146.9,165.9c-5.2-0.6-8.7-3-10.3-3.8c-4.5-2.3-19.4,1.8-29.3-1.8c-3.8-1.4-5.6-6.1-6.1-11.6
						c-0.7,8.5,0.5,17.5,6.1,19.5c10,3.6,24.8-0.5,29.3,1.8c1.6,0.8,5.1,3.2,10.3,3.8l45.9,1.5c0,0-16-4.5-28.9-8.9L1146.9,165.9z"
						/>
				</g>
			</g>
			<g>
				<path class="st70" d="M1055.7,383.4H792c-13.8,0-24.9-11.2-24.9-24.9v-2.7h313.5v2.7C1080.6,372.3,1069.4,383.4,1055.7,383.4z"
					/>
				<path class="st33" d="M1020.5,404.1H827.1c-11.4,0-20.7-9.3-20.7-20.7l0,0h234.8l0,0C1041.2,394.9,1032,404.1,1020.5,404.1z"/>
				<g>
					<path class="st14" d="M963.4,377.9H858.5c-4.3,0-7.9-3.5-7.9-7.9l0,0c0-4.3,3.5-7.9,7.9-7.9h104.9c4.3,0,7.9,3.5,7.9,7.9l0,0
						C971.3,374.4,967.7,377.9,963.4,377.9z"/>
					<path class="st33" d="M937.5,370.2c0,2.1-1.7,3.8-3.8,3.8s-3.8-1.7-3.8-3.8c0-2.1,1.7-3.8,3.8-3.8
						C935.8,366.4,937.5,368.1,937.5,370.2z"/>
					<path class="st33" d="M966,370c0,2.1-1.7,3.8-3.8,3.8s-3.8-1.7-3.8-3.8c0-2.1,1.7-3.8,3.8-3.8S966,367.9,966,370z"/>
					<path class="st33" d="M862.6,370.2c0,2.1-1.7,3.8-3.8,3.8s-3.8-1.7-3.8-3.8c0-2.1,1.7-3.8,3.8-3.8
						C860.9,366.4,862.6,368.1,862.6,370.2z"/>
				</g>
				<polygon class="st71" points="866.5,355.8 767,355.7 824.2,360.7 824.2,383.4 852.6,390.1 852.6,404.1 932.3,404.1 932.3,387.6 
					938.9,383.4 938.9,359.8 1080.6,355.8 				"/>
				<rect x="866.5" y="32.2" class="st0" width="59.6" height="766.4"/>
				<path class="st14" d="M973.7,745.7H817.8c-12.9,0-23.4,10.5-23.4,23.4v34.2h202.7v-34.2C997.1,756.2,986.6,745.7,973.7,745.7z"
					/>
				<polygon class="st20" points="926.1,744.6 866.5,744.6 866.5,32.2 881.5,32.2 881.5,725.9 				"/>
			</g>
			<g>
				<path class="st15" d="M1233.6,674h-29.9c-5.1,0-9.2,4.8-9.2,10.7V701c0,4.3,2.2,8,5.4,9.7c0-0.3-0.1-0.7-0.1-1v-22.3
					c0-4,2.8-7.2,6.2-7.2h25.4c3.4,0,6.2,3.2,6.2,7.2v22.3c0,0.3,0,0.7-0.1,1c3.2-1.7,5.4-5.4,5.4-9.7v-16.3
					C1242.8,678.9,1238.6,674,1233.6,674z"/>
				<path class="st57" d="M1146,771.2h141.8c3,0,5.4-2.4,5.4-5.4v-65.9c0-3.1-2.5-5.7-5.7-5.7h-141.3c-3.1,0-5.7,2.5-5.7,5.7v65.9
					C1140.6,768.8,1143,771.2,1146,771.2z"/>
				<path class="st72" d="M1140.6,722.9h152.6v-24.3c0-2.4-2-4.4-4.4-4.4H1145c-2.4,0-4.4,2-4.4,4.4V722.9z"/>
				<rect x="1156.1" y="744.6" class="st16" width="121.6" height="19.3"/>
				<rect x="1140.6" y="722.9" class="st15" width="152.6" height="3.6"/>
				<path class="st16" d="M1166.1,734L1166.1,734c-2.6,0-4.8-2.1-4.8-4.8v-13.7h9.5v13.7C1170.8,731.8,1168.7,734,1166.1,734z"/>
				<path class="st16" d="M1269,734L1269,734c-2.6,0-4.8-2.1-4.8-4.8v-13.7h9.5v13.7C1273.8,731.8,1271.7,734,1269,734z"/>
			</g>
			<g>
				<g>
					<path class="st3" d="M627.6,459.2c-9.3,4.3-16.6-15.6-19.7-25.5c-3.1-9.9-9.1-39.7-9.1-39.7l10.5-4c0,0,15.2,23.2,25.2,50.1
						C635.5,442.8,637.1,454.8,627.6,459.2z"/>
					<polygon class="st4" points="611.5,391.6 618.9,406.2 602.6,411.6 599.2,396.6 					"/>
					<path class="st4" d="M613.2,399c0,0-1.7-14-2.9-16.5C609.2,380,602,372,602,372s-1.4,4.6-3.7,5.6s-8.3,2.9-8.3,2.9
						s2.6,9,5.1,12.5c2.5,3.6,5.7,6.5,5.7,6.5L613.2,399z"/>
					<path class="st15" d="M723.8,778.2c0,0-6.4,11.8-5.4,14.4c0.6,1.4,5.4,6.1,12,5.1c5.1-0.8,12.2-7.1,13.5-7.5
						c2.9-0.9-0.5-16.7-0.5-16.7L723.8,778.2z"/>
					<g>
						<polygon class="st5" points="648.5,610.6 671.2,610.4 671.9,609.1 673.5,608.2 670.9,568.5 649.9,568 						"/>
						<polygon class="st1" points="650.8,608.4 673.5,608.2 671.9,567.8 650.5,568 						"/>
						<polygon class="st22" points="671.2,610.4 671.9,609.1 650.1,609.3 649.9,568 648.5,610.6 						"/>
					</g>
					<path class="st3" d="M694.5,468c-0.7,9.4-8.7,11.6-17.9,10.3c-9.2-1.3-54.8-17.7-56.3-20.2c-1.5-2.6,1.2-15.9,5.4-16.9
						c4.2-1.1,45,6.9,52.4,9.3C685.5,452.8,695.3,457,694.5,468z"/>
					<path class="st4" d="M690.1,461.1c-1.8-3.1-13.1-13-19.9-13.9c-9.6-1.3-27.7-5.3-27.7-5.3s-4.6,5.7-5.9,14.2
						c-1.5,9.8,1.4,16.2,1.4,16.2s37.8,7.9,45.3,5.6C685.7,477.1,695,469.8,690.1,461.1z"/>
					<path class="st18" d="M711.3,410.7c0,0-1.4,27.1,0,28.6c4.5,4.5,21.9,9.7,24.6,17.1c3.2,9-22.6,45.4-26.7,57.9
						c-4.1,12.5,0,32.8,0.7,45.5s-40.1,24-41.5,23.9s-13-13.2-15-17.5s3.5-36.2,4.2-44.3c0.8-8.2,1.7-37,1.5-38.9
						c-1.3-12.8,2.9-22.3,3.7-24.9c0.7-2.6,1-7,2.5-8.6c3-3.1,18.1-6.1,18.5-7.8c0.4-1.7,4.7-24.9,4.7-24.9L711.3,410.7z"/>
					<path class="st16" d="M711.3,439.3l-25.1,11.9l-2.5-9.6c0,0-16.2,4.6-18.5,7.8c-2.3,3.2-4,10.4-4.9,13s-2.5,15.1-2.5,26.1
						c0,6.4-1,14.8-1,25.7c-0.1,9.3-3.3,32.3-3.3,32.3s8.8,1.2,22.6,1.9c15.9,0.8,32.2-0.1,33-0.6c3.3-2.2,1.4-27.2,2.3-29.9
						c0.8-2.7,24.9-47.9,25.8-54c0.9-6.1-1.9-10.5-6.3-13.3C726.2,447.8,711.3,439.3,711.3,439.3z"/>
					<path class="st10" d="M728.5,449.2c0,0,14.6,10.1-1.9,20.4c-7.1,4.5-39.5,9.4-45.7,10.6c-21.9,4.4,6.3,54.8,8.5,58.6
						s1.7,8.7,1.7,8.7l16.3,0.5c6.2,1.9,3.9-30.4,7-36.7c3.1-6.4,22.1-42.5,22.6-47.4C738,452.9,728.5,449.2,728.5,449.2z"/>
					<polygon class="st3" points="686.5,426.7 711.4,420.4 710.6,434.7 702.7,438.5 					"/>
					<path class="st18" d="M705.9,378.5c8.1-1.6,25.9,3.5,27.2,18.1s-8.1,22.4-15.8,26.1c-6.1,2.8-10.7,3.6-18.5,2.6
						c-1.6-0.2-13.9-5.2-15.7-7.3c-1.2-1.5,4.5-13.3,4-13.5s-1.3-1.7-0.8-2.6c0.7-1.4,7.1-8.5,7.3-9.5
						C693.8,391.1,696.7,380.3,705.9,378.5z"/>
					<path class="st19" d="M699.8,381.5c0,0,11.5,0.5,16.1,16.6c1,3.5-8.8,9.7-8.7,10.8c0.1,1.2,12.4-1.3,11.5-0.5
						c-9.4,8.3-9.5,16-8.6,16.7c2.7,1.9,20.3-7.1,23.2-21.5c2.9-14.3-8.9-23.2-12.3-24.4C717.6,378.1,708.2,373.1,699.8,381.5z"/>
					<path class="st18" d="M712.3,407.7c-3,2.6-6.2,6.7-4.7,8.4c1.4,1.6,5,0.8,8-1.9c3-2.6,4.3-6.1,2.8-7.7
						C717,404.9,715.3,405.1,712.3,407.7z"/>
					<g>
						<rect x="672.3" y="779" class="st15" width="15.4" height="2.9"/>
						<path class="st15" d="M687.2,758.7c2,2.8,3.4,8.3,3.6,10.8c0.2,3-1.6,9.4-3.6,9.4c-5.8,0-12.8,0.2-18.8,1s-8.3,4.3-23.6,4.2
							c-4.5,0-12.4-0.3-12.4-2.1c0-8,14.7-5.1,19.4-9.4c11.8-10.9,19.7-13.6,19.7-13.6S686.8,758.1,687.2,758.7z"/>
					</g>
					<path class="st20" d="M680.1,550.3c0,0,20.3,18.9,21.2,27.9c0.9,8.9-7.7,37.6-10.8,60.1s-5,27.1-4.2,32.4
						c0.8,5.3,6.8,26.8,6.6,41.2c-0.2,16.7,0.6,51,0.6,51s-4.5,3.5-16,3.4c-7.4,0-13.8-5.3-13.8-5.3s-4.6-84.1-5.6-92.9
						c-0.6-5.7-5.3-45.2-6.7-77.3c-0.5-10.4,0.7-34.3,0.7-38.6L680.1,550.3z"/>
					<path class="st20" d="M699.8,546l15.5-36.5c0,0,2.8,32.8-2,35.7C708.5,548.1,699.8,546,699.8,546z"/>
					<polygon class="st10" points="687.8,445.6 686.2,451.2 699.4,445 					"/>
					<polygon class="st17" points="714.4,441.1 710.6,434.7 687.8,445.6 690.5,453.6 					"/>
					<polygon class="st10" points="686.2,451.2 684.9,444 681.7,446 					"/>
					<polygon class="st21" points="684.9,444 679.3,449.3 679.1,443 683.7,439.3 					"/>
					<path class="st20" d="M651.2,546.4c-6.9-8.6,7.6-75.1,7.6-75.1l32.5,5.6l-1.1,69.5C690.2,546.4,658.1,555.1,651.2,546.4z"/>
					<path class="st20" d="M691.2,476.9c1.4-6.1,13.5-31.4,31.4-29.3c1.8,0.2,5.8,1.6,5.8,1.6l-9.8-5.7c0,0-3.9-2-12.5,3.2
						s-19.6,18.2-21.9,29C682,486.5,689.6,484.3,691.2,476.9z"/>
					<path class="st20" d="M658.8,471.3c0,0,3.7-22.4,11.9-25.2c3.5-1.2,5.1-2,5.1-2s-6.8,10.3-9,19.2c-2.2,8.9-3.2,15.3-6.1,14.9
						C657.6,477.9,658.8,471.3,658.8,471.3z"/>
					<path class="st18" d="M734,466.3c-2.6,9-10.7,9.7-19.2,6.6c-8.5-3-55.1-30.9-56-33.7c-0.9-2.8,4.5-15.3,8.7-15.5
						s48.1,18.6,54.6,22.3C728.6,449.8,737.1,455.7,734,466.3z"/>
					<path class="st21" d="M734.7,458.2c-1.1-3.4-4.9-11-11.3-13.3c-9.1-3.3-32.4-13.5-32.4-13.5s-5.6,4.7-8.6,12.7
						c-3.5,9.3-1.9,16.1-1.9,16.1s35.4,14.6,43.3,14.7C730,474.9,737.7,467.7,734.7,458.2z"/>
					<g>
						<g>
							<path class="st6" d="M589.2,396.2c0.7-1.1,4.1-3.4,4.1-3.4l65.8-46c0,0,2.6-1.9,3.7-2.1c2.7-0.5,6.5,1.6,10.4-1.8
								c2.9-2.5,4.2-10.2,3.3-10.5c-0.5-0.2-4.6,4.5-5.6,5.2s-3,0.5-4.4-0.6c-1-0.8-3.3-2.7-2.8-4.5s5.6-5.6,5.1-6.2
								c-0.5-0.7-7.3,1.5-9,3.5c-2.5,2.9-1.9,5.1-2.8,6.7c-0.5,1-3.3,2.9-3.3,2.9L588,385.3c0,0-3.4,2.5-4.7,2.8
								c-2.4,0.4-5.7-1.2-9.3,1.9c-2.6,2.3-3.9,9.3-3,9.6c0.5,0.2,4.2-4.2,5.1-4.8c0.9-0.6,2.8-0.5,4,0.6c0.9,0.8,3,2.5,2.5,4.1
								s-5.1,5.1-4.7,5.7c0.4,0.6,6.7-1.4,8.2-3.2C588.6,399.4,588.4,397.6,589.2,396.2z"/>
							<path class="st7" d="M590.8,391.9c-1.2,0.9-2.9,0.6-3.7-0.6l0,0c-0.8-1.2-0.5-2.8,0.7-3.7l67.2-47c1.2-0.9,2.9-0.6,3.7,0.6
								l0,0c0.8,1.2,0.5,2.8-0.7,3.7L590.8,391.9z"/>
							<path class="st7" d="M661,340.9c0,0,0.6,1.4,0.2,2.3c-0.3,0.8-1.4,2-1.4,2s1.5-1.1,2.3-1.4s3.2-0.1,3.2-0.1s-1.8-0.4-2.7-1.2
								C661.9,341.8,661,340.9,661,340.9z"/>
							<path class="st7" d="M660,339.5c0,0-1.1-1-2.1-1c-0.9,0-2.3,0.7-2.3,0.7s1.6-1,2.1-1.7c0.6-0.7,0.9-3,0.9-3s0,1.8,0.5,3
								C659.5,338.3,660,339.5,660,339.5z"/>
							<path class="st7" d="M586.1,393.4c0,0,1.1,1,2.2,1c0.9,0,2.4-0.7,2.4-0.7s-1.6,1-2.2,1.7c-0.6,0.7-1.2,3.1-1.2,3.1
								s0.3-1.9-0.2-3.1C586.7,394.6,586.1,393.4,586.1,393.4z"/>
							<path class="st7" d="M585.1,391.9c0,0-0.6-1.4-0.2-2.4c0.3-0.8,1.4-2,1.4-2s-1.5,1.2-2.3,1.5s-3.2-0.2-3.2-0.2
								s1.7,0.6,2.7,1.5C584.2,391,585.1,391.9,585.1,391.9z"/>
							<path class="st6" d="M590,391.6c-0.7,0.5-1.7,0.2-2.3-0.7l0,0c-0.6-0.9-0.5-1.9,0.1-2.4l67.5-47.2c0.7-0.5,1.7-0.1,2.3,0.7
								l0,0c0.6,0.9,0.5,1.9-0.1,2.4L590,391.6z"/>
						</g>
						<g>
							<g>
								<g>
									<g>
										<defs>
											<path id="SVGID_27_" d="M580.2,395.4c0.1,0.1,0.3,0.3,0.5,0.4l85-59.5c-1.1-1-2.4-2.4-2-3.8c0.5-1.8,5.6-5.6,5.1-6.2
												c-0.5-0.7-7.3,1.5-9,3.5c-2.5,2.9-1.9,5.1-2.8,6.7c-0.5,1-3.3,2.9-3.3,2.9L588,385.3c0,0-3.4,2.5-4.7,2.8
												c-2.4,0.4-5.7-1.2-9.3,1.9c-2.6,2.3-3.9,9.3-3,9.6c0.5,0.2,4.2-4.2,5.1-4.8C577.1,394.2,579,394.3,580.2,395.4z"/>
										</defs>
										<clipPath id="SVGID_28_">
											<use xlink:href="#SVGID_27_"  style="overflow:visible;"/>
										</clipPath>
										<polygon class="st73" points="564.8,395 570.4,403 676.1,329 670.5,321 										"/>
									</g>
								</g>
							</g>
						</g>
					</g>
					<path class="st18" d="M665.7,440c-8.6,5.6-18.6-13.1-23.1-22.5c-4.4-9.4-14.6-38-14.6-38l9.9-5.4c0,0,18.3,20.8,31.9,46.1
						C671.2,422.7,674.4,434.3,665.7,440z"/>
					<g>
						<path class="st16" d="M616.6,363L616.6,363c0.9-0.7,2.1-0.6,2.8,0.3l5.4,6.6c0.7,0.9,0.6,2.1-0.3,2.8l0,0
							c-0.8,0.7-2.1,0.6-2.8-0.3l-5.4-6.6C615.6,365,615.8,363.7,616.6,363z"/>
						<path class="st16" d="M619.3,360.4L619.3,360.4c0.9-0.7,2.1-0.6,2.8,0.3l5.4,6.6c0.7,0.9,0.6,2.1-0.3,2.8l0,0
							c-0.8,0.7-2.1,0.6-2.8-0.3l-5.4-6.6C618.3,362.4,618.4,361.1,619.3,360.4z"/>
						<path class="st16" d="M622,358L622,358c0.9-0.7,2.1-0.6,2.8,0.3l5.4,6.6c0.7,0.9,0.6,2.1-0.3,2.8l0,0
							c-0.8,0.7-2.1,0.6-2.8-0.3l-5.4-6.6C621,360,621.2,358.7,622,358z"/>
						<path class="st16" d="M624.9,356L624.9,356c0.9-0.7,2.1-0.6,2.8,0.3l5.4,6.6c0.7,0.9,0.6,2.1-0.3,2.8l0,0
							c-0.8,0.7-2.1,0.6-2.8-0.3l-5.4-6.6C623.9,357.9,624,356.7,624.9,356z"/>
						<path class="st16" d="M641.8,380.9c0,0-3.7-13.6-5.1-15.9s-9.7-9.2-9.7-9.2s-0.7,4.8-2.8,6.1c-2.1,1.3-7.8,4-7.8,4
							s3.8,8.5,6.8,11.7c2.9,3.2,6.6,5.7,6.6,5.7L641.8,380.9z"/>
					</g>
					<polygon class="st16" points="640.2,375.3 649.6,388.7 634.2,396.4 628.8,382 					"/>
					<path class="st20" d="M713.6,550.7c0,0,6.4,16.7,9.7,30.2s7.1,83.1,8.3,89.6s5.3,26.6,8.4,46.3c3.2,19.8,5.1,59.5,5.1,59.5
						l-25.3,4c0,0-15.1-83.3-17.5-96.4c-2.4-13.1-22.7-81.5-22.7-81.5l-3.3-45.6L713.6,550.7z"/>
					<path class="st0" d="M711,604.1c2.1,8.9,8.3,69.4,8.8,72.9c0.5,3.3,16.2,96.2,16.9,100.5l8.3-1.3c0,0-1.9-39.7-5.1-59.5
						c-3.2-19.8-7.3-39.8-8.4-46.3c-1.2-6.5-5.1-76.2-8.3-89.6c-3.3-13.5-9.7-30.2-9.7-30.2l-22.1,4.4
						C691.5,555,708.9,595.2,711,604.1z"/>
					<path class="st22" d="M651.2,546.4l1,8.6c0,0,20.3,1.4,39.4,0c22.7-1.7,22.8-2.9,22.6-2.9l-0.9-6.9c0,0-9.7,0.7-23.1,1.2
						C677.1,546.9,651.2,546.4,651.2,546.4z"/>
					<polygon class="st8" points="690.2,546.4 694.7,574.9 699.8,546 					"/>
					<g>
						<polygon class="st8" points="698.8,610.5 721.3,607.5 721.8,606.1 723.3,605 715.9,565.9 695,568.1 						"/>
						<polygon class="st20" points="700.8,608 723.3,605 716.8,565.1 695.5,567.9 						"/>
						<polygon class="st1" points="721.3,607.5 721.8,606.1 700.2,609 695,568.1 698.8,610.5 						"/>
					</g>
					<path class="st20" d="M699.8,381c0,0,11.9-14.6,28.2-4s7.4,28.5,7.4,28.5s-9.9-3.9-22.1-11.7C701.2,386,699.8,381,699.8,381z"
						/>
					<path class="st0" d="M708.1,390.2c0,0,26.8,23.1,27.2,23.5c1.5,1.4,9.1,3.7,9.7,3.3c0.7-0.4-9-13-9-13s-7.6-2.7-11.3-4.2
						C721,398.4,708.8,389.1,708.1,390.2z"/>
					<g>
						<path class="st4" d="M590.7,377.8L590.7,377.8c0.9-0.6,2.2-0.3,2.7,0.7l4.4,7.3c0.6,0.9,0.3,2.2-0.7,2.7l0,0
							c-0.9,0.6-2.2,0.3-2.7-0.7l-4.4-7.3C589.5,379.6,589.8,378.3,590.7,377.8z"/>
						<path class="st4" d="M593.7,375.6L593.7,375.6c0.9-0.6,2.2-0.3,2.7,0.7l4.4,7.3c0.6,0.9,0.3,2.2-0.7,2.7l0,0
							c-0.9,0.6-2.2,0.3-2.7-0.7l-4.4-7.3C592.5,377.4,592.8,376.1,593.7,375.6z"/>
						<path class="st4" d="M596.8,373.6L596.8,373.6c0.9-0.6,2.2-0.3,2.7,0.7l4.4,7.3c0.6,0.9,0.3,2.2-0.7,2.7l0,0
							c-0.9,0.6-2.2,0.3-2.7-0.7l-4.4-7.3C595.5,375.4,595.8,374.1,596.8,373.6z"/>
						<path class="st4" d="M599.9,371.9L599.9,371.9c0.9-0.6,2.2-0.3,2.7,0.7l4.4,7.3c0.6,0.9,0.3,2.2-0.7,2.7l0,0
							c-0.9,0.6-2.2,0.3-2.7-0.7l-4.4-7.3C598.7,373.7,599,372.5,599.9,371.9z"/>
					</g>
					<path class="st10" d="M609.9,385c0,0-3.9-5.8-5.2-5.6c-1.3,0.2-8.8,0.1-9.6,0c-0.8,0-2-0.1-0.2,2s5.3,1.8,5.6,2.7
						c0.3,0.9,0,5.2,2.5,7.7c2.6,2.5,5.3,2,6.4,1.5C610.5,392.9,612.4,386.4,609.9,385z"/>
				</g>
				<g>
					<ellipse class="st15" cx="673.6" cy="332.7" rx="33" ry="33"/>
					<g>
						
							<linearGradient id="SVGID_29_" gradientUnits="userSpaceOnUse" x1="673.6" y1="854.2889" x2="673.6" y2="890.6121" gradientTransform="matrix(1 0 0 -1 0 1210)">
							<stop  offset="0" style="stop-color:#9FB2B2"/>
							<stop  offset="0.3294" style="stop-color:#A3B4B4"/>
							<stop  offset="0.6368" style="stop-color:#AEBABA"/>
							<stop  offset="0.9345" style="stop-color:#C1C3C3"/>
							<stop  offset="1" style="stop-color:#C6C6C6"/>
						</linearGradient>
						<circle class="st74" cx="673.6" cy="333" r="26.3"/>
						<g>
							<g>
								<path class="st33" d="M667,318.1c0,2.4-2,4.4-4.4,4.4s-4.4-2-4.4-4.4s2-4.4,4.4-4.4S667,315.7,667,318.1z"/>
								<circle class="st33" cx="685.2" cy="318.1" r="4.4"/>
								<path class="st33" d="M695.9,337.8c0,2.4-2,4.4-4.4,4.4s-4.4-2-4.4-4.4s2-4.4,4.4-4.4S695.9,335.4,695.9,337.8z"/>
								<circle class="st33" cx="655.7" cy="337.8" r="4.4"/>
								<path class="st33" d="M677.3,351.1c0,2.4-2,4.4-4.4,4.4s-4.4-2-4.4-4.4s2-4.4,4.4-4.4C675.3,346.8,677.3,348.7,677.3,351.1z
									"/>
							</g>
						</g>
						<circle class="st33" cx="673.6" cy="333" r="12.4"/>
					</g>
					<g>
						<ellipse class="st15" cx="1267.1" cy="333" rx="33" ry="33"/>
						<g>
							
								<linearGradient id="SVGID_30_" gradientUnits="userSpaceOnUse" x1="1267.1" y1="854.0309" x2="1267.1" y2="890.3541" gradientTransform="matrix(1 0 0 -1 0 1210)">
								<stop  offset="0" style="stop-color:#9FB2B2"/>
								<stop  offset="0.3294" style="stop-color:#A3B4B4"/>
								<stop  offset="0.6368" style="stop-color:#AEBABA"/>
								<stop  offset="0.9345" style="stop-color:#C1C3C3"/>
								<stop  offset="1" style="stop-color:#C6C6C6"/>
							</linearGradient>
							<circle class="st75" cx="1267.1" cy="333.2" r="26.3"/>
							<g>
								<g>
									<path class="st33" d="M1260.5,318.4c0,2.4-2,4.4-4.4,4.4s-4.4-2-4.4-4.4s2-4.4,4.4-4.4S1260.5,316,1260.5,318.4z"/>
									<circle class="st33" cx="1278.8" cy="318.4" r="4.4"/>
									<path class="st33" d="M1289.4,338.1c0,2.4-2,4.4-4.4,4.4s-4.4-2-4.4-4.4s2-4.4,4.4-4.4
										C1287.5,333.7,1289.4,335.6,1289.4,338.1z"/>
									<circle class="st33" cx="1249.2" cy="338.1" r="4.4"/>
									<path class="st33" d="M1270.9,351.4c0,2.4-2,4.4-4.4,4.4s-4.4-2-4.4-4.4s2-4.4,4.4-4.4S1270.9,349,1270.9,351.4z"/>
								</g>
							</g>
							<circle class="st33" cx="1267.1" cy="333.2" r="12.4"/>
						</g>
					</g>
				</g>
			</g>
		</g>
	</g>
</g>
</svg>
